<svg id="_01" data-name="01" xmlns="http://www.w3.org/2000/svg" width="202.719" height="63.344" viewBox="0 0 202.719 63.344">
  <defs>
    <style>
      .cls-1 {
        fill: #fff;
      }

      .cls-1, .cls-2 {
        fill-rule: evenodd;
      }

      .cls-2 {
        fill: #33d687;
      }
    </style>
  </defs>
  <path id="dezily" class="cls-1" d="M75.312,48h9.522q5.841,0,8.3-1.311a5.977,5.977,0,0,0,3.082-4.324,57.36,57.36,0,0,0,.621-10.189,57.366,57.366,0,0,0-.621-10.189,5.979,5.979,0,0,0-3.082-4.324q-2.461-1.311-8.3-1.311H75.312V48Zm5.842-5.06V21.412h3.4a13.3,13.3,0,0,1,4.531.506,3.05,3.05,0,0,1,1.518,2.53,55.6,55.6,0,0,1,.345,7.728,55.582,55.582,0,0,1-.345,7.728,3.048,3.048,0,0,1-1.518,2.53,13.286,13.286,0,0,1-4.531.506h-3.4ZM121.128,48V42.94h-12.65V34.568h10.9V29.462h-10.9v-8.05h12.65v-5.06H102.636V48h18.492Zm24.563,0V42.94H132.029l13.524-21.85V16.352H125.5v5.06h12.972L125.037,43.17V48h20.654Zm10.948,0V16.352h-5.888V48h5.888Zm23.643,0V42.756H169.1v-26.4h-5.842V48h17.02Zm13.064,0V36.776l9.384-20.424H196.8l-6.072,14.122H190.4l-6.164-14.122H178.12l9.338,20.424V48h5.888Z"/>
  <path id="Shape_8_copy_2" data-name="Shape 8 copy 2" class="cls-2" d="M43.629,46.738c1.07-5.763,8.265-8.8,8.305-12.911,0.007-.745-0.709-2.165-1.308-1.728C40.474,39.518,30.182,46.582,32.8,63.349,54.845,53.75,64.663,37.98,65.723,19.66,61.1,17.674,59.3,41.448,43.629,46.738ZM36.506,19.543H29.251v7.693H21.61v7.305h7.641v7.693h7.256V34.541h7.641v-7.3H36.506V19.543Zm29.1-3.1C64.775,9.02,60.834,3.438,54.8,1.13,48.014-1.462,39.919.459,32.878,6.257c-7.04-5.8-15.135-7.719-21.917-5.127C4.923,3.438.982,9.02,0.15,16.444A26.674,26.674,0,0,0,3.721,32.662c6.093,10.489,16.036,19.745,26.124,28.2a31.361,31.361,0,0,1-.01-4.906c-8.978-7.678-17.562-16-22.9-25.188a22.881,22.881,0,0,1-3.085-13.9c0.67-5.98,3.744-10.438,8.432-12.229a13.739,13.739,0,0,1,4.929-.888c4.711,0,9.828,2.212,14.42,6.374l1.245,1.129,1.246-1.129c6.26-5.673,13.492-7.724,19.35-5.486,4.688,1.792,7.761,6.249,8.432,12.229q0.083,0.738.109,1.484a4.375,4.375,0,0,1,3.166-1.467,3.849,3.849,0,0,1,.472.03Q65.633,16.678,65.606,16.444Z"/>
</svg>
