<svg id="&#x421;&#x43B;&#x43E;&#x439;_1" height="512" viewBox="0 0 512 512" width="512" xmlns="http://www.w3.org/2000/svg"><g fill="#220dba"><path d="m111.08 512a4.16 4.16 0 0 1 -4.11-4.76c3.61-24.21 10-73.3 8.56-85.8-.58-5-1.48-19.37-2.73-39.33-2.92-46.61-7.8-124.62-14.56-175.31a4.15 4.15 0 1 1 8.22-1.1c6.8 51 11.69 129.16 14.61 175.88 1.24 19.82 2.14 34.15 2.69 38.87 2 16.72-8.17 85.09-8.6 88a4.15 4.15 0 0 1 -4.08 3.55z"/><path d="m16 340.25a4.15 4.15 0 0 1 -4.12-3.68c-11.61-102.79-7.49-166.33 13.42-206.03 20.31-38.54 55.12-51.41 95.19-63.15l1.45-.42c37.23-10.91 55.92-16.38 64.22-23.32 6.93-5.8 6.6-12.36 4.49-32.22-.23-2.16-.47-4.45-.71-6.86a4.15 4.15 0 1 1 8.25-.83c.24 2.4.48 4.67.71 6.82 2.1 19.69 3.23 30.54-7.42 39.44-9.62 8.05-28.87 13.69-67.21 24.92l-1.45.43c-38.22 11.2-71.39 23.37-90.18 59.05-19.81 37.6-23.78 101.6-12.48 201.24a4.15 4.15 0 0 1 -3.65 4.59z"/><path d="m496 340.25h-.47a4.15 4.15 0 0 1 -3.65-4.59c11.26-99.66 7.29-163.66-12.52-201.26-18.79-35.68-52-47.86-90.18-59.05l-1.45-.43c-38.34-11.22-57.59-16.86-67.21-24.92-10.65-8.91-9.5-19.76-7.42-39.46.23-2.15.47-4.41.71-6.82a4.15 4.15 0 1 1 8.25.83c-.24 2.42-.48 4.7-.71 6.86-2.11 19.86-2.44 26.43 4.49 32.22 8.29 6.94 27 12.41 64.22 23.32l1.45.42c40.07 11.76 74.88 24.63 95.19 63.17 20.91 39.7 25 103.24 13.38 206a4.15 4.15 0 0 1 -4.08 3.71z"/><path d="m400.92 512a4.15 4.15 0 0 1 -4.1-3.54c-.43-2.9-10.56-71.28-8.6-88 .56-4.73 1.45-19 2.69-38.87 2.92-46.72 7.82-124.92 14.61-175.89a4.15 4.15 0 1 1 8.22 1.1c-6.76 50.68-11.64 128.7-14.56 175.31-1.25 20-2.15 34.37-2.73 39.32-1.47 12.5 5 61.59 8.56 85.8a4.16 4.16 0 0 1 -4.11 4.76z"/></g><path d="m471 138.82c-17.08-32.47-47-43.43-84.44-54.39-78.86-23.07-84-23.42-83.08-66.67a13 13 0 0 0 -13-13.61h-68.89a13 13 0 0 0 -13 13.39v.22c.85 43.26-4.25 43.6-83.08 66.67-37.4 11-67.39 21.92-84.47 54.39-16.79 31.85-21.52 84.53-14.6 164.41.15 1.7.44 4.89.79 8.65a25.74 25.74 0 0 0 26.58 23.33l18.77-.71a25.73 25.73 0 0 0 24.67-27.89l-8.45-99.14a13.61 13.61 0 0 1 12-14.74 11.56 11.56 0 0 1 1.53-.07 13.6 13.6 0 0 1 13.48 11.81c3.95 29.64 7.76 72 11.64 129.43v.65s0 .41 0 .65c1.16 16.81 2.14 32.54 3 45.81 1.19 18.92 2.11 33.9 2.65 38.36 1.1 9.37-2.78 54.75-6.06 73.6a12.71 12.71 0 0 0 12.53 14.89h232a12.71 12.71 0 0 0 12.55-14.75c-3.07-18.87-6.5-64.35-5.4-73.74.54-4.46 1.46-19.43 2.65-38.36 2.93-46.83 7.83-125.25 14.67-176.53a13.63 13.63 0 0 1 13.48-11.81 11.56 11.56 0 0 1 1.53.07 13.58 13.58 0 0 1 12 14.74l-8.87 98.87a25.73 25.73 0 0 0 24.82 28l19.24.6a25.74 25.74 0 0 0 26.41-23.15c.29-2.87.52-5.25.64-6.56 7.29-81 2.62-134.24-14.29-166.42z" fill="#ffcae0"/><path d="m299.34 357.44a13.6 13.6 0 0 1 -7.14-2c-7.42-4.57-72.54-46-72.54-91.81a47.73 47.73 0 0 1 79.68-35.44 47.72 47.72 0 0 1 79.66 35.43c0 45.79-65.12 87.22-72.55 91.8a13.59 13.59 0 0 1 -7.11 2.02z" fill="#fff"/><path d="m299.34 348a4.14 4.14 0 0 1 -2.18-.62c-2.78-1.71-68-42.4-68-83.75a38.25 38.25 0 0 1 65.31-27.05l4.91 4.9 4.91-4.9a38.3 38.3 0 0 1 54.11 0 38 38 0 0 1 11.19 27.06c0 41.35-65.27 82-68 83.74a4.14 4.14 0 0 1 -2.25.62zm-32-114.31a29.92 29.92 0 0 0 -30 30c0 32.87 50.7 67.93 61.92 75.29 11.22-7.36 61.93-42.45 61.93-75.28a29.77 29.77 0 0 0 -8.77-21.19 30 30 0 0 0 -42.38 0l-7.84 7.82a4.15 4.15 0 0 1 -5.86 0l-7.84-7.82a29.88 29.88 0 0 0 -21.12-8.85z" fill="#220dba"/><path d="m299.31 327.55c-22.73-15.64-52.42-43.06-52.42-63.93a20.5 20.5 0 0 1 35-14.49l7.85 7.83a13.61 13.61 0 0 0 19.26.04l7.84-7.82a20.49 20.49 0 0 1 35 14.49c-.04 22.7-33.7 50.78-52.53 63.88z" fill="#ff5090"/><path d="m287.47 60.77-17.39 84.38 24.98-8.14 8.32 62.06 12.64-85.61-26.76 7.39z" fill="#ff5090"/><path d="m182.24 98.42 21.14 82.87 19.59-17.5 32.59 53.47-22.87-83.46-21.53 17.53z" fill="#ff5090"/><path d="m400.87 93.48-61.72 59.2 24.87 8.44-30.5 54.69 61.39-61-25.85-10.1z" fill="#ff5090"/></svg>