<svg width="32" height="32" viewBox="0 0 32 32" fill="none" xmlns="http://www.w3.org/2000/svg">
<path opacity="0.16" d="M29.3337 16.0001C29.3337 23.3638 23.3641 29.3334 16.0003 29.3334C8.63653 29.3334 2.66699 23.3638 2.66699 16.0001C2.66699 8.63628 8.63653 2.66675 16.0003 2.66675C23.3641 2.66675 29.3337 8.63628 29.3337 16.0001Z" fill="#36B37E"/>
<path fill-rule="evenodd" clip-rule="evenodd" d="M22.2339 11.0172C22.7769 11.5148 22.8135 12.3582 22.3159 12.9011L14.9826 20.901C14.7301 21.1766 14.3734 21.3334 13.9997 21.3334C13.6259 21.3334 13.2694 21.1766 13.0168 20.901L9.68348 17.2647C9.18589 16.7218 9.22256 15.8785 9.76538 15.3809C10.3082 14.8833 11.1516 14.92 11.6492 15.4627L13.9997 18.0269L20.3502 11.0991C20.8477 10.5563 21.6911 10.5196 22.2339 11.0172Z" fill="#36B37E"/>
</svg>
