<svg width="460" height="6" viewBox="0 0 460 6" fill="none" xmlns="http://www.w3.org/2000/svg">
<path d="M9.98032 3.01571C13.5819 3.01571 17.3549 2.98429 20.9564 2.95288C22.4999 2.95288 23.8719 2.92147 25.4154 2.92147C31.9325 2.85864 38.4496 2.79581 44.9666 2.73298C52.8557 2.67016 60.5732 2.57592 68.4623 2.51309C79.6099 2.38743 90.7575 2.29319 101.905 2.16754C104.478 2.13613 107.05 2.13613 109.623 2.10471C116.14 2.04188 122.657 1.97906 129.174 1.94764C135.691 1.88482 142.208 1.82199 148.725 1.79058C151.297 1.75916 153.87 1.72775 156.443 1.72775C166.733 1.66492 177.194 1.60209 187.484 1.53927C193.83 1.50785 200.175 1.47644 206.692 1.41361C209.265 1.41361 211.666 1.3822 214.238 1.3822C224.186 1.35079 234.304 1.31937 244.251 1.28796C254.198 1.25654 263.974 1.22513 273.921 1.19372C276.493 1.19372 279.066 1.19372 281.81 1.19372C288.327 1.19372 294.673 1.19372 301.19 1.19372C311.308 1.19372 321.255 1.19372 331.374 1.1623C334.632 1.1623 337.891 1.1623 341.15 1.1623C348.01 1.1623 354.87 1.1623 361.73 1.1623C362.244 1.1623 362.93 1.1623 363.445 1.1623C348.01 1.19372 332.403 1.22513 316.968 1.28796C310.451 1.31937 304.105 1.31937 297.588 1.35079C294.844 1.35079 291.929 1.35079 289.185 1.3822C279.752 1.41361 270.491 1.47644 261.058 1.50785C250.254 1.57068 239.449 1.60209 228.645 1.66492C226.758 1.66492 225.043 1.69633 223.157 1.69633C217.326 1.75916 211.666 1.79058 205.835 1.8534C194.173 1.94764 182.511 2.04188 170.849 2.13613C169.134 2.13613 167.419 2.16754 165.704 2.19895C160.044 2.26178 154.213 2.35602 148.553 2.41885C138.263 2.5445 128.145 2.67016 117.855 2.79581C115.111 2.82722 112.195 2.89005 109.451 2.92147C102.934 3.01571 96.417 3.10995 89.9 3.2356C81.6679 3.36126 73.2643 3.48691 65.0323 3.61257C53.5417 3.80105 41.8796 3.98953 30.389 4.17801C27.645 4.20942 24.9009 4.27225 21.9854 4.30366C17.0119 4.39791 12.0383 4.49215 7.0648 4.58639C6.55029 4.58639 6.03579 4.64921 6.03579 4.77487C6.03579 4.86911 6.55029 4.96335 7.0648 4.96335C8.95131 4.96335 10.6663 4.99476 12.5528 4.99476C12.2098 5.15183 12.0383 5.24607 12.0383 5.34031C12.0383 5.68586 13.5819 6 15.6399 6C29.8745 5.84293 43.9376 5.65445 58.1722 5.5288C70.5203 5.43456 82.8684 5.3089 95.2165 5.21466C108.765 5.089 122.485 4.96335 136.034 4.86911C140.321 4.8377 144.609 4.80628 148.896 4.74346C150.097 4.74346 151.297 4.71204 152.669 4.71204C174.622 4.6178 196.574 4.49215 218.526 4.39791C230.188 4.33508 242.022 4.27225 253.684 4.24084C257.971 4.20942 262.087 4.20942 266.375 4.17801C288.842 4.11518 311.308 4.05236 333.775 3.98953C343.379 3.95812 352.983 3.9267 362.587 3.89529C370.819 3.86387 379.051 3.86387 387.283 3.80105C394.143 3.76963 400.832 3.70681 407.692 3.67539C411.122 3.64398 414.552 3.64398 417.811 3.61257C425.528 3.51832 433.246 3.42408 440.963 3.32984C440.449 3.4555 440.449 3.64398 440.62 3.76963C440.792 3.9267 441.306 4.05236 442.164 4.11518C442.85 4.17801 443.879 4.24084 444.565 4.17801C446.28 4.05236 447.995 3.9267 449.538 3.80105C449.538 3.80105 449.538 3.80105 449.367 3.80105C449.538 3.80105 449.538 3.76963 449.71 3.76963C449.881 3.76963 450.053 3.73822 450.053 3.73822H449.881C450.739 3.67539 451.596 3.61257 452.625 3.51832C453.483 3.4555 454.512 3.36126 455.369 3.29843C456.398 3.20419 457.256 3.10995 458.285 3.01571C459.314 2.92147 460 2.67016 460 2.45026C460 2.32461 459.828 2.23037 459.485 2.10471C459.142 1.97906 458.285 1.82199 457.427 1.79058C456.57 1.75916 455.712 1.72775 454.855 1.72775C454.683 1.72775 454.512 1.72775 454.34 1.72775C453.826 1.72775 453.14 1.72775 452.625 1.75916C451.253 1.79058 450.053 1.82199 448.681 1.82199C447.652 1.82199 446.623 1.8534 445.422 1.8534C442.507 1.88482 439.763 1.91623 436.847 1.97906C436.161 1.97906 435.304 2.01047 434.618 2.01047C434.961 1.94764 435.132 1.88482 435.132 1.82199C435.304 1.75916 435.304 1.69633 435.304 1.63351C435.304 1.60209 435.304 1.53927 435.475 1.50785C435.475 1.44503 435.475 1.3822 435.304 1.35079C435.304 1.35079 435.475 1.35079 435.475 1.31937C435.99 1.25654 436.504 1.19372 436.847 1.06806C437.19 0.973822 437.362 0.848167 437.362 0.722513C437.362 0.596859 437.19 0.502618 436.847 0.376963C436.676 0.34555 436.504 0.282723 436.333 0.251309C435.818 0.157068 435.304 0.125654 434.789 0.0942408C433.76 0.0314136 432.56 0 431.359 0C430.33 0 429.473 0 428.444 0C427.072 0 425.7 0 424.328 0C422.441 0 420.383 0 418.497 0C413.352 0 408.207 0 403.062 0C398.259 0 393.286 0 388.484 0C384.025 0 379.737 0 375.278 0C357.614 0 340.121 0.0314136 322.456 0.0628272C309.25 0.0942408 296.045 0.125654 282.839 0.125654C277.008 0.125654 271.005 0.157068 265.174 0.188482C251.969 0.251309 238.763 0.282723 225.558 0.34555C221.785 0.34555 218.012 0.376963 214.238 0.376963C212.009 0.376963 209.951 0.408377 207.721 0.408377C194.687 0.502618 181.653 0.596859 168.619 0.691099C164.675 0.722513 160.73 0.753927 156.614 0.78534C154.384 0.78534 152.155 0.816754 149.925 0.848168C136.891 0.973822 124.029 1.09948 110.995 1.22513C104.306 1.28796 97.6175 1.35079 90.929 1.44503C79.4384 1.57068 67.9478 1.69633 56.6287 1.8534C46.6816 1.97906 36.7345 2.0733 26.7875 2.16754C25.2439 2.19895 23.7004 2.19895 21.9854 2.23037C19.4129 2.26178 16.8404 2.26178 14.2679 2.29319C12.0383 2.41885 9.63732 2.41885 7.4078 2.41885C7.2363 2.29319 6.55029 2.19895 6.03579 2.23037C4.49228 2.23037 3.12026 2.26178 1.57675 2.29319C0.890746 2.32461 0.204741 2.38743 0.0332395 2.51309C-0.138262 2.67016 0.376242 2.82722 1.06225 2.85864C1.74825 2.89005 2.43426 2.92147 3.12026 2.95288C3.80627 2.98429 4.32077 2.98429 5.00678 2.98429C6.72179 3.01571 8.26531 3.01571 9.98032 3.01571ZM411.294 2.01047C413.352 2.01047 415.581 2.01047 417.639 2.01047C417.811 2.10471 418.154 2.16754 418.497 2.23037C417.639 2.23037 416.782 2.26178 416.096 2.26178C414.552 2.26178 413.009 2.29319 411.465 2.29319C404.605 2.32461 397.916 2.38743 391.056 2.41885C387.969 2.45026 384.882 2.48168 381.795 2.48168C376.993 2.48168 372.02 2.51309 367.218 2.51309C356.07 2.5445 345.094 2.57592 333.946 2.60733C312.337 2.67016 290.9 2.73298 269.29 2.79581C253.855 2.82722 238.42 2.92147 222.985 3.01571C199.832 3.14136 176.508 3.2356 153.355 3.36126C148.725 3.39267 144.094 3.42408 139.464 3.48691C126.258 3.61257 113.053 3.70681 99.8471 3.83246C86.9845 3.95812 73.9503 4.05236 61.0877 4.17801C59.8872 4.17801 58.6867 4.20942 57.4862 4.20942C60.9162 4.1466 64.5178 4.11518 67.9478 4.05236C80.1244 3.89529 92.301 3.70681 104.478 3.54974C108.765 3.48691 113.053 3.42408 117.169 3.36126C119.398 3.32984 121.628 3.29843 123.686 3.29843C136.548 3.17277 149.239 3.01571 161.931 2.89005C164.332 2.85864 166.904 2.82722 169.305 2.79581C172.907 2.7644 176.508 2.73298 179.938 2.73298C192.972 2.63874 206.006 2.5445 219.041 2.45026C221.956 2.41885 224.872 2.41885 227.616 2.38743C228.302 2.38743 229.159 2.38743 229.845 2.38743C231.903 2.38743 233.961 2.38743 235.848 2.35602C248.882 2.29319 262.087 2.26178 275.121 2.19895C281.124 2.16754 287.127 2.13613 293.129 2.13613C312.509 2.10471 332.06 2.0733 351.44 2.04188C371.677 2.04188 391.571 2.01047 411.294 2.01047Z" fill="#36B37E"/>
</svg>
