<svg width="109" height="24" viewBox="0 0 109 24" fill="none" xmlns="http://www.w3.org/2000/svg">
<path d="M6.55567 14.458C6.55505 14.1498 6.61525 13.8445 6.73283 13.5597C6.85041 13.2748 7.02306 13.016 7.24088 12.798C7.45869 12.58 7.71739 12.4071 8.00215 12.2893C8.2869 12.1714 8.59211 12.111 8.90029 12.1113C9.20869 12.1107 9.51418 12.1709 9.79925 12.2886C10.0843 12.4063 10.3433 12.5792 10.5615 12.7972C10.7796 13.0152 10.9526 13.2741 11.0704 13.5591C11.1883 13.8441 11.2487 14.1496 11.2483 14.458C11.2486 14.7663 11.1881 15.0717 11.0702 15.3566C10.9523 15.6416 10.7794 15.9004 10.5612 16.1183C10.3431 16.3363 10.0841 16.509 9.79909 16.6267C9.51407 16.7443 9.20863 16.8046 8.90029 16.8039C8.59223 16.8043 8.28713 16.7439 8.00247 16.6261C7.7178 16.5084 7.45916 16.3356 7.24136 16.1178C7.02356 15.8999 6.85088 15.6412 6.73322 15.3565C6.61556 15.0718 6.55523 14.7667 6.55567 14.4586" fill="#959ECC"/>
<path d="M5.18218 20.59C5.18218 18.0256 4.96774 17.8091 2.40397 17.8091C2.09571 17.8098 1.79035 17.7495 1.50542 17.6319C1.22048 17.5143 0.961555 17.3416 0.743489 17.1237C0.525423 16.9058 0.352502 16.6471 0.234639 16.3623C0.116776 16.0774 0.0562875 15.7721 0.0566431 15.4638C0.0561992 15.1555 0.116593 14.8502 0.234366 14.5653C0.352139 14.2804 0.524975 14.0215 0.742969 13.8035C0.960964 13.5855 1.21983 13.4127 1.50474 13.2949C1.78965 13.1771 2.095 13.1167 2.40329 13.1172C2.7117 13.1166 3.01719 13.1768 3.30225 13.2945C3.58732 13.4122 3.84634 13.585 4.06448 13.803C4.28262 14.0211 4.45557 14.28 4.57343 14.565C4.69129 14.85 4.75173 15.1554 4.75128 15.4638C4.75128 18.0263 4.96707 18.2427 7.5295 18.2427C7.83788 18.2422 8.14332 18.3025 8.42831 18.4203C8.7133 18.5381 8.97224 18.711 9.19026 18.9291C9.40828 19.1472 9.5811 19.4062 9.6988 19.6912C9.8165 19.9762 9.87677 20.2817 9.87615 20.59C9.8765 20.8982 9.81603 21.2034 9.6982 21.4882C9.58037 21.7729 9.4075 22.0316 9.1895 22.2495C8.97149 22.4673 8.71264 22.6399 8.42778 22.7575C8.14293 22.8751 7.83767 22.9353 7.5295 22.9347C7.22128 22.9354 6.91594 22.8753 6.63101 22.7577C6.34607 22.6402 6.08714 22.4675 5.86907 22.2497C5.65099 22.0319 5.47806 21.7731 5.36019 21.4883C5.24232 21.2035 5.18183 20.8983 5.18218 20.59Z" fill="#084897"/>
<path d="M16.1206 15.329C16.1206 12.7652 15.9061 12.5481 13.3417 12.5481C13.0335 12.5487 12.7281 12.4884 12.4432 12.3707C12.1584 12.253 11.8996 12.0801 11.6817 11.862C11.4638 11.644 11.2912 11.385 11.1737 11.1C11.0562 10.8151 10.9962 10.5097 10.9971 10.2014C10.9963 9.89326 11.0564 9.58792 11.1739 9.30302C11.2914 9.01812 11.4641 8.75927 11.6819 8.54128C11.8998 8.32329 12.1586 8.15047 12.4434 8.03278C12.7282 7.91509 13.0335 7.85485 13.3417 7.85547C13.65 7.85485 13.9553 7.91508 14.2402 8.0327C14.5252 8.15031 14.7841 8.32299 15.0022 8.54087C15.2202 8.75875 15.3932 9.01753 15.511 9.30236C15.6289 9.5872 15.6894 9.89249 15.689 10.2007C15.689 12.7652 15.9062 12.9817 18.4679 12.9817C18.7763 12.9811 19.0818 13.0415 19.3668 13.1593C19.6518 13.277 19.9108 13.4499 20.1289 13.668C20.347 13.8861 20.5199 14.1451 20.6376 14.4301C20.7554 14.7151 20.8158 15.0206 20.8152 15.329C20.8157 15.6373 20.7553 15.9426 20.6374 16.2275C20.5196 16.5124 20.3467 16.7712 20.1286 16.9891C19.9105 17.207 19.6515 17.3797 19.3666 17.4973C19.0816 17.6149 18.7762 17.675 18.4679 17.6743C18.1596 17.675 17.8542 17.6149 17.5693 17.4973C17.2843 17.3797 17.0253 17.207 16.8072 16.9891C16.5892 16.7712 16.4162 16.5124 16.2984 16.2275C16.1806 15.9426 16.1201 15.6373 16.1206 15.329Z" fill="#576EAF"/>
<path d="M17.3595 8.96702C17.3595 6.40324 17.143 6.18679 14.5812 6.18679C14.2729 6.18768 13.9674 6.12763 13.6824 6.01011C13.3973 5.89258 13.1383 5.71991 12.9202 5.50198C12.7021 5.28404 12.5291 5.02515 12.4114 4.74019C12.2936 4.45523 12.2333 4.14981 12.2339 3.84148C12.2332 3.53308 12.2934 3.22758 12.4111 2.94252C12.5288 2.65745 12.7016 2.39842 12.9196 2.18032C13.1377 1.96222 13.3966 1.78933 13.6817 1.67158C13.9667 1.55382 14.2722 1.49352 14.5806 1.49415C14.8889 1.49361 15.1942 1.55395 15.4791 1.6717C15.764 1.78945 16.0229 1.9623 16.2409 2.18032C16.4588 2.39834 16.6316 2.65724 16.7492 2.94219C16.8669 3.22713 16.9272 3.53254 16.9265 3.84082C16.9265 6.40325 17.1423 6.61903 19.7068 6.61903C20.0152 6.61841 20.3206 6.67873 20.6057 6.79654C20.8907 6.91435 21.1496 7.0873 21.3675 7.30549C21.5854 7.52369 21.7581 7.7828 21.8756 8.06794C21.9931 8.35307 22.0531 8.65863 22.0521 8.96702C22.0529 9.27523 21.9928 9.58058 21.8752 9.86549C21.7576 10.1504 21.5849 10.4092 21.3669 10.6272C21.149 10.8451 20.8901 11.0178 20.6052 11.1354C20.3203 11.253 20.015 11.3131 19.7068 11.3123C19.3984 11.3132 19.093 11.2532 18.8079 11.1356C18.5229 11.0181 18.2638 10.8454 18.0457 10.6275C17.8276 10.4095 17.6547 10.1507 17.5369 9.86574C17.4191 9.58078 17.3588 9.27536 17.3595 8.96702ZM11.3135 20.1021C11.3129 19.7938 11.3732 19.4884 11.4909 19.2034C11.6087 18.9185 11.7816 18.6596 11.9997 18.4416C12.2178 18.2237 12.4769 18.051 12.7619 17.9335C13.047 17.816 13.3525 17.7559 13.6608 17.7568C13.969 17.7561 14.2743 17.8163 14.5591 17.9339C14.844 18.0515 15.1028 18.2242 15.3208 18.4422C15.5387 18.6601 15.7114 18.9189 15.829 19.2038C15.9466 19.4887 16.0068 19.7939 16.0061 20.1021C16.0068 20.4104 15.9466 20.7158 15.8291 21.0008C15.7115 21.2857 15.5388 21.5447 15.3209 21.7628C15.103 21.9809 14.8442 22.1538 14.5593 22.2716C14.2744 22.3895 13.9691 22.4499 13.6608 22.4495C13.3525 22.45 13.0471 22.3897 12.7621 22.2719C12.4772 22.1542 12.2183 21.9813 12.0003 21.7633C11.7823 21.5453 11.6094 21.2864 11.4917 21.0015C11.374 20.7165 11.3136 20.4111 11.3142 20.1028" fill="#F5822B"/>
<path d="M1.05909 9.20867C1.05838 8.90038 1.11854 8.59497 1.23613 8.30999C1.35371 8.02501 1.52641 7.76605 1.7443 7.54796C1.9622 7.32988 2.22101 7.15696 2.50589 7.03913C2.79076 6.9213 3.0961 6.86089 3.40439 6.86133C3.71276 6.86071 4.01822 6.92098 4.30325 7.03868C4.58827 7.15638 4.84725 7.3292 5.06534 7.54722C5.28342 7.76524 5.45632 8.02418 5.57411 8.30917C5.69189 8.59416 5.75224 8.89959 5.75171 9.20797C5.75242 9.5164 5.69222 9.82195 5.57456 10.1071C5.4569 10.3922 5.28409 10.6512 5.06606 10.8694C4.84803 11.0875 4.58907 11.2605 4.30403 11.3783C4.01899 11.4961 3.71349 11.5565 3.40506 11.556C3.09672 11.5565 2.79131 11.4962 2.50635 11.3784C2.2214 11.2606 1.96251 11.0877 1.74454 10.8696C1.52658 10.6515 1.35382 10.3925 1.23619 10.1075C1.11857 9.82244 1.05838 9.51701 1.05909 9.20867Z" fill="#F8A464"/>
<path d="M5.50586 4.42086C5.50533 4.11271 5.5656 3.80749 5.68321 3.52268C5.80083 3.23786 5.97348 2.97904 6.19128 2.76106C6.40908 2.54307 6.66774 2.37017 6.95246 2.25231C7.23717 2.13445 7.54235 2.07396 7.85049 2.07422C8.15884 2.07369 8.46426 2.134 8.74925 2.25173C9.03423 2.36947 9.29318 2.54227 9.51125 2.76028C9.72931 2.97828 9.90221 3.23719 10.02 3.52214C10.1378 3.80709 10.1983 4.11251 10.1978 4.42086C10.1984 4.72923 10.1382 5.03467 10.0205 5.31969C9.90277 5.60472 9.72995 5.86372 9.51193 6.08181C9.2939 6.29989 9.03497 6.47277 8.74998 6.59055C8.46498 6.70834 8.15953 6.76872 7.85116 6.76819C7.54293 6.76863 7.23765 6.70822 6.95282 6.59043C6.66798 6.47264 6.40921 6.29978 6.19132 6.08176C5.97343 5.86375 5.80072 5.60488 5.6831 5.31998C5.56547 5.03508 5.50524 4.72974 5.50586 4.42151V4.42086ZM34.8727 11.5127C34.8727 10.6354 34.5638 8.97592 32.7863 8.97592C30.9366 8.97592 30.5813 10.8728 30.5341 11.5127H34.8727ZM37.0062 19.1474C36.0103 19.5506 35.1336 19.7874 33.7108 19.7874C30.5806 19.7874 28.0674 17.9383 28.0674 13.386C28.0674 10.2558 29.3243 7.97995 32.8807 7.97995C36.5322 7.97995 37.22 10.4223 37.22 12.6031H30.4633C30.4633 14.8324 31.4579 18.5304 34.8491 18.5304C35.5947 18.5356 36.3321 18.3736 37.0069 18.0564V19.1474H37.0062ZM47.1784 16.8473H47.1305C46.7515 17.6774 45.6848 19.7874 43.1952 19.7874C41.2032 19.7874 40.3495 18.1279 40.3495 16.4913V8.24088H42.7447V15.3058C42.7447 16.7286 42.9578 18.0092 44.1675 18.0092C46.5378 18.0092 47.202 14.3105 47.202 12.9113V8.24088H49.5958V19.5264H47.1784V16.8473ZM53.5791 8.24088H55.9743V11.1095H56.0215C56.7801 9.59225 57.6102 8.14583 59.6729 7.97995V10.4695C57.3735 10.541 55.9743 11.3232 55.9743 14.3584V19.527H53.5791V8.24088ZM66.1262 18.7914C68.2605 18.7914 68.5214 15.9464 68.5214 13.8837C68.5214 11.8209 68.2605 8.97522 66.1262 8.97522C64.0163 8.97522 63.7553 11.8209 63.7553 13.8843C63.7553 15.9464 64.0163 18.7914 66.1262 18.7914ZM61.147 13.8837C61.147 10.067 62.8072 7.97995 66.1262 7.97995C69.4459 7.97995 71.1297 10.0663 71.1297 13.8837C71.1297 17.701 69.4459 19.7874 66.1262 19.7874C62.8072 19.7874 61.147 17.701 61.147 13.8837ZM74.8992 9.47355H72.9315V8.24088H74.8992V7.17343C74.8992 5.08707 75.3968 2.90499 79.1906 2.90499C80.1629 2.90499 81.016 3.04794 81.5844 3.16662V4.80251C81.0874 4.58942 80.4475 4.28125 79.4751 4.28125C77.5311 4.28125 77.2937 5.6798 77.2937 6.88886V8.24088H80.4947V9.47355H77.2937V19.5264H74.8992V9.47355ZM85.7106 8.24023V19.5264H83.3154V8.24023H85.7106ZM85.8057 3.16662V5.53754H83.221V3.16662H85.8057ZM89.5981 8.24088H91.9939V10.92H92.0411C92.4208 10.0906 93.5112 7.97995 96.0008 7.97995C97.9921 7.97995 98.8457 9.63878 98.8457 11.276V19.527H96.4512V12.4608C96.4512 11.038 96.2375 9.7568 95.0284 9.7568C92.6575 9.7568 91.9939 13.4561 91.9939 14.8547V19.5257H89.5988V8.23957L89.5981 8.24088ZM108.234 10.4695C107.428 9.92332 106.527 9.35489 105.389 9.35489C104.631 9.35489 103.778 9.68733 103.778 10.5404C103.778 12.5795 108.946 12.7696 108.946 16.3732C108.946 18.7914 107.049 19.7874 104.654 19.7874C103.63 19.7925 102.611 19.6243 101.643 19.2897V17.0846C102.331 17.5587 103.445 18.2701 104.773 18.2701C106.149 18.2701 106.717 17.5587 106.717 16.8473C106.717 14.856 101.619 14.4528 101.619 11.2281C101.619 9.52142 102.758 7.97995 105.579 7.97995C106.788 7.97995 107.831 8.31169 108.234 8.43037V10.4695Z" fill="#084897"/>
</svg>
