<svg width="82" height="32" viewBox="0 0 82 32" fill="none" xmlns="http://www.w3.org/2000/svg">
<path d="M38.6987 24.7218H39.7519L40.2244 27.7057H40.2649L40.7915 24.7218H42.1012L42.6548 27.7057L43.1678 24.7218H44.1805L43.3164 28.6103H41.9932L41.4396 25.6264H41.4261L40.913 28.6103H39.5493L38.6987 24.7218ZM46.7323 24.7218H47.772V28.6103H46.7323V24.7218ZM50.6344 24.7218H52.4841C53.1727 24.7218 53.7398 25.0323 53.7398 25.7074C53.7938 26.18 53.4698 26.5986 53.0107 26.6931C53.3483 26.7876 53.3618 27.0711 53.5643 27.5437L53.9423 28.5968H52.8622L52.6327 27.8947C52.4166 27.2197 52.2816 27.0576 51.9036 27.0576H51.6875V28.5968H50.6344V24.7218ZM51.674 26.3285H51.9441C52.2816 26.3285 52.7002 26.3285 52.7002 25.883C52.7002 25.5184 52.3356 25.4509 51.9441 25.4509H51.674V26.3285ZM56.4537 24.7218H59.1946V25.4644H57.4933V26.261H59.1V26.9901H57.4933V27.8677H59.2621V28.5968H56.4672V24.7218H56.4537ZM62.003 24.7218H63.0426V27.8272H64.6358V28.5968H62.003V24.7218ZM67.1742 24.7218H69.915V25.4644H68.2138V26.261H69.8205V26.9901H68.2138V27.8677H69.9825V28.5968H67.1877V24.7218H67.1742ZM72.7234 27.6382C73.0475 27.8137 73.4255 27.8947 73.7901 27.8947C74.1141 27.8947 74.4247 27.8272 74.4247 27.5167C74.4247 26.8011 72.5884 27.2467 72.5884 25.8425C72.5884 24.9108 73.5065 24.6543 74.2761 24.6543C74.6137 24.6543 74.9512 24.6948 75.2753 24.8028L75.2078 25.5994C74.9377 25.4779 74.6407 25.4239 74.3437 25.4239C74.0871 25.4239 73.6551 25.4509 73.6551 25.7885C73.6551 26.4095 75.4913 25.991 75.4913 27.3952C75.4913 28.3943 74.6407 28.6779 73.7766 28.6779C73.385 28.6779 72.9935 28.6238 72.6154 28.5158L72.7234 27.6382ZM78.2322 27.6382C78.5562 27.8137 78.9343 27.8947 79.2988 27.8947C79.6229 27.8947 79.9334 27.8272 79.9334 27.5167C79.9334 26.8011 78.0972 27.2467 78.0972 25.8425C78.0972 24.9108 79.0153 24.6543 79.7849 24.6543C80.1224 24.6543 80.46 24.6948 80.784 24.8028L80.7165 25.5994C80.4465 25.4779 80.1495 25.4239 79.8524 25.4239C79.5959 25.4239 79.1638 25.4509 79.1638 25.7885C79.1638 26.423 81.0001 25.991 81.0001 27.3952C81.0001 28.3943 80.1495 28.6779 79.2853 28.6779C78.8938 28.6779 78.5022 28.6238 78.1242 28.5158L78.2322 27.6382Z" fill="#F05F28"/>
<path d="M34.3108 19.2813H34.2703C33.5547 20.618 32.137 21.4416 30.6248 21.4011C27.3573 21.4011 26.8442 19.2003 26.8442 18.1607C26.8442 14.3126 30.9488 14.1236 33.9192 14.1236H34.1893V13.543C34.1893 11.5852 33.4872 10.5996 31.5834 10.5996C30.3817 10.5726 29.2206 10.9102 28.2079 11.5582V10.1811C29.2746 9.70849 30.4222 9.43845 31.5834 9.39795C34.4188 9.39795 35.6205 10.6806 35.6205 13.678V18.7412C35.5935 19.5513 35.634 20.348 35.7285 21.1581H34.3378L34.3108 19.2813ZM34.1893 15.3388H33.7842C31.3404 15.3388 28.397 15.5818 28.397 18.1066C28.397 19.6189 29.4771 20.1724 30.7868 20.1724C34.1353 20.1724 34.1893 17.2695 34.1893 16.0274V15.3388ZM39.1985 12.2063C39.2255 11.3557 39.185 10.4916 39.1039 9.64098H40.5351V11.8553H40.5756C41.1022 10.5726 42.0608 9.38444 43.5326 9.38444C43.8566 9.39794 44.1941 9.43845 44.5182 9.51946V11.0182C44.1806 10.9237 43.8296 10.8832 43.4785 10.8832C41.2237 10.8832 40.6161 13.408 40.6161 15.4738V21.1446H39.185L39.1985 12.2063ZM52.5518 19.2813H52.5113C51.7957 20.618 50.378 21.4416 48.8658 21.4011C45.5983 21.4011 45.0853 19.2003 45.0853 18.1607C45.0853 14.3126 49.1763 14.1236 52.1602 14.1236H52.4303V13.543C52.4303 11.5852 51.7282 10.5996 49.8244 10.5996C48.6228 10.5726 47.4481 10.9102 46.449 11.5582V10.1811C47.5156 9.69499 48.6633 9.42495 49.8379 9.37094C52.6733 9.37094 53.875 10.6536 53.875 13.651V18.7142C53.848 19.5243 53.8885 20.321 53.983 21.1311H52.5788L52.5518 19.2813ZM52.4168 15.3388H52.0252C49.5814 15.3388 46.638 15.5818 46.638 18.1066C46.638 19.6189 47.7181 20.1724 49.0278 20.1724C52.3763 20.1724 52.4303 17.2695 52.4303 16.0274L52.4168 15.3388ZM57.4395 4.24023H58.8707V21.1446H57.4395V4.24023ZM62.6647 4.24023H64.0824V21.1446H62.6647V4.24023ZM75.586 20.7665C74.5328 21.1716 73.3987 21.3876 72.2645 21.4011C68.457 21.4011 67.0393 18.8357 67.0393 15.3928C67.0393 11.8688 68.9701 9.37094 71.873 9.37094C75.1134 9.37094 76.4501 11.9768 76.4501 15.0687V15.7843H68.592C68.592 18.2147 69.9017 20.1724 72.386 20.1724C73.5067 20.1319 74.6138 19.8484 75.5995 19.3218L75.586 20.7665ZM74.8974 14.5692C74.8974 12.5574 74.0873 10.5861 71.954 10.5861C69.8207 10.5861 68.5785 12.6789 68.5785 14.5692H74.8974ZM79.38 4.24023H80.8112V21.1446H79.38V4.24023ZM17.771 5.54991H21.646C24.5894 5.54991 26.5067 7.03512 26.5067 10.0055C26.5067 12.9759 24.3059 14.4611 21.4975 14.4611H19.3372V21.2661H17.7845L17.771 5.54991ZM19.3237 13.111H20.4174C22.7667 13.111 24.9675 12.8409 24.9675 10.0055C25.1295 8.45282 24.0089 7.06212 22.4696 6.9001C22.2671 6.8731 22.0646 6.8731 21.8756 6.9001H19.3372L19.3237 13.111Z" fill="black"/>
<path d="M11.9782 21.4821L11.9512 7.60219C11.9512 7.60219 11.8161 5.60392 12.3427 4.7533C12.7613 4.19972 13.3419 3.79466 14.0169 3.61914V19.9294C14.0169 20.1994 13.9359 20.456 13.8144 20.699C13.6254 21.0095 13.3284 21.2256 12.9638 21.2931C12.6398 21.3741 12.3022 21.4416 11.9782 21.4821ZM7.99512 21.4821L7.96811 10.6806C7.96811 10.6806 7.83309 8.68234 8.37317 7.83172C8.79173 7.27815 9.37231 6.87309 10.0474 6.69757V19.9294C10.0339 20.1994 9.96639 20.456 9.84487 20.699C9.65585 21.0095 9.3588 21.2256 8.99425 21.2931C8.65671 21.3741 8.33266 21.4416 7.99512 21.4821ZM4.02557 21.4821L3.99856 13.759C3.99856 13.759 3.86355 11.7608 4.39012 10.9101C4.80868 10.3566 5.38926 9.95152 6.06435 9.77599V19.9294C6.05085 20.1994 5.98334 20.456 5.86182 20.699C5.6863 21.0095 5.37575 21.2256 5.02471 21.2931C4.68716 21.3876 4.36312 21.4416 4.02557 21.4821ZM0.0425185 21.4821L0.0155151 17.3775C0.0155151 17.3775 -0.119504 15.0147 0.407068 14.1641C0.825626 13.6105 1.40621 13.219 2.0813 13.0299V19.9294C2.0813 20.1994 2.00029 20.456 1.87877 20.699C1.68975 21.0095 1.3927 21.2256 1.02815 21.2931C0.704109 21.3741 0.380065 21.4416 0.0425185 21.4821Z" fill="#37B34A"/>
</svg>
