<svg width="146" height="42" viewBox="0 0 146 42" fill="none" xmlns="http://www.w3.org/2000/svg">
<path d="M100.486 8.59082H105.309V35.3176H100.486V8.59082Z" fill="#013134"/>
<path d="M108.627 31.9199H113.449V35.3181H108.627V31.9199Z" fill="#013134"/>
<path d="M13.6862 14.9541C7.69374 14.9541 2.83594 19.5125 2.83594 25.1357V30.7922H7.65827V25.1357C7.65827 22.0117 10.3571 19.4792 13.6862 19.4792C17.0153 19.4792 19.714 22.0117 19.714 25.1357V30.7922H24.5364V25.1357C24.5364 19.5125 19.6785 14.9541 13.6862 14.9541Z" fill="#013134"/>
<path d="M24.5371 31.9238H19.7148V35.3176H24.5371V31.9238Z" fill="#013134"/>
<path d="M2.83594 31.9238H7.65827V35.3176H2.83594V31.9238Z" fill="#013134"/>
<path d="M145.999 8.59082H141.176V11.9847H145.999V8.59082Z" fill="#013134"/>
<path d="M145.999 14.9541H141.176V35.3173H145.999V14.9541Z" fill="#013134"/>
<path fill-rule="evenodd" clip-rule="evenodd" d="M48.9486 25.1357C48.9486 19.5125 44.0907 14.9541 38.0983 14.9541C35.1021 14.9541 32.3896 16.0937 30.4261 17.9363C29.7576 18.5634 29.1761 19.2721 28.6996 20.0449C27.7765 21.5426 27.248 23.2811 27.248 25.1357C27.248 30.7589 32.1058 35.3173 38.0983 35.3173H45.4825V30.7922H38.0983C35.7449 30.7922 33.7063 29.5266 32.7137 27.6812H48.9486V25.1357ZM43.9731 23.8631C43.3578 21.352 40.9611 19.4792 38.0983 19.4792C35.2355 19.4792 32.8389 21.352 32.2236 23.8631H43.9731Z" fill="#013134"/>
<path fill-rule="evenodd" clip-rule="evenodd" d="M69.8966 35.3173V30.7922H62.5122C60.1589 30.7922 58.1204 29.5266 57.1277 27.6812H73.3626V25.1357C73.3626 19.5125 68.5047 14.9541 62.5122 14.9541C56.8944 14.9541 52.2738 18.9606 51.7181 24.0947C51.6811 24.4371 51.6621 24.7844 51.6621 25.1357C51.6621 30.7589 56.5199 35.3173 62.5122 35.3173H69.8966ZM62.5122 19.4792C65.3751 19.4792 67.7717 21.352 68.387 23.8631H56.6376C57.2081 21.5345 59.3105 19.7548 61.896 19.5085C62.0985 19.4891 62.3041 19.4792 62.5122 19.4792Z" fill="#013134"/>
<path fill-rule="evenodd" clip-rule="evenodd" d="M92.9504 8.59082H97.7729V35.3176H86.9226C80.9302 35.3176 76.0723 30.7592 76.0723 25.136C76.0723 19.5128 80.9302 14.9544 86.9226 14.9544C89.1531 14.9544 91.2264 15.5859 92.9504 16.6689V8.59082ZM92.9504 25.136C92.9504 22.012 90.2518 19.4795 86.9226 19.4795C83.8014 19.4795 81.2345 21.7053 80.9257 24.5576C80.9052 24.7479 80.8947 24.9407 80.8947 25.136C80.8947 28.26 83.5935 30.7925 86.9226 30.7925H92.9504V25.136Z" fill="#013134"/>
<path fill-rule="evenodd" clip-rule="evenodd" d="M116.764 25.1357C116.764 30.7589 121.621 35.3173 127.614 35.3173H138.464V25.1357C138.464 19.5125 133.606 14.9541 127.614 14.9541C121.996 14.9541 117.375 18.9606 116.82 24.0947C116.783 24.4371 116.764 24.7844 116.764 25.1357ZM133.642 30.7922H127.614C124.285 30.7922 121.587 28.2597 121.587 25.1357C121.587 24.9405 121.596 24.7476 121.617 24.5573C121.906 21.8953 124.161 19.7788 126.998 19.5085C127.2 19.4891 127.406 19.4792 127.614 19.4792C130.943 19.4792 133.642 22.0117 133.642 25.1357V30.7922Z" fill="#013134"/>
</svg>
