<svg width="72" height="72" viewBox="0 0 72 72" fill="none" xmlns="http://www.w3.org/2000/svg">
<rect width="72" height="72" rx="16" fill="#F1F5F9"/>
<path d="M23.0186 49.7338L49.4435 23.309" stroke="#384656" stroke-width="1.12446"/>
<path d="M49.4435 49.7339L23.0186 23.309" stroke="#384656" stroke-width="1.12446"/>
<path d="M45.8618 36.136C45.8618 41.6678 41.3775 46.1522 35.8456 46.1522C30.3141 46.1522 25.8298 41.6678 25.8298 36.136C25.8298 30.6045 30.3141 26.1201 35.8456 26.1201C41.3775 26.1201 45.8618 30.6045 45.8618 36.136Z" fill="#FF8000"/>
<path d="M35.8457 26.1201C34.9774 26.1201 34.1343 26.2306 33.3306 26.4386C37.645 27.5542 40.8317 31.4728 40.8317 36.136C40.8317 40.7992 37.6453 44.7178 33.3306 45.8334C34.1343 46.0413 34.9774 46.1518 35.8457 46.1518C41.3776 46.1518 45.8619 41.6675 45.8619 36.136C45.8619 30.6041 41.3776 26.1201 35.8457 26.1201Z" fill="#FF5F06"/>
<path d="M33.5157 41.2253C33.1419 41.2253 32.7835 41.0769 32.5191 40.8125L29.5273 37.8204C28.9767 37.2701 28.9767 36.3775 29.5273 35.8268C30.0776 35.2762 30.9702 35.2762 31.5208 35.8268L33.516 37.8221L39.0503 32.2875C39.6009 31.7372 40.4935 31.7372 41.0438 32.2875C41.5944 32.8381 41.5944 33.7307 41.0438 34.2813L34.5126 40.8125C34.2483 41.0769 33.8898 41.2253 33.5157 41.2253Z" fill="white"/>
<path d="M55.4794 23.1277C56.3715 20.9754 55.35 18.5075 53.1977 17.6153C51.0454 16.7232 48.5775 17.7448 47.6854 19.897C46.7933 22.0493 47.8148 24.5172 49.9671 25.4094C52.1193 26.3015 54.5873 25.2799 55.4794 23.1277Z" fill="#78C161"/>
<path d="M24.8965 52.1951C25.7676 50.0937 24.7702 47.6841 22.6688 46.8131C20.5674 45.9421 18.1578 46.9395 17.2868 49.0409C16.4158 51.1422 17.4132 53.5518 19.5145 54.4229C21.6159 55.2939 24.0255 54.2965 24.8965 52.1951Z" fill="#EF5361"/>
<path d="M25.2267 23.3589C26.0766 21.3085 25.1034 18.9574 23.053 18.1075C21.0026 17.2576 18.6515 18.2308 17.8016 20.2812C16.9517 22.3316 17.9249 24.6828 19.9753 25.5326C22.0257 26.3825 24.3768 25.4093 25.2267 23.3589Z" fill="#FABA59"/>
<path d="M53.9096 52.0263C54.7595 49.9759 53.7863 47.6248 51.7359 46.7749C49.6855 45.925 47.3344 46.8982 46.4845 48.9486C45.6346 50.999 46.6078 53.3501 48.6582 54.2C50.7086 55.0499 53.0598 54.0767 53.9096 52.0263Z" fill="#FF8000"/>
</svg>
