<svg width="72" height="72" viewBox="0 0 72 72" fill="none" xmlns="http://www.w3.org/2000/svg">
<rect width="72" height="72" rx="16" fill="#F1F5F9"/>
<g clip-path="url(#clip0)">
<path d="M45.6552 49.4483H53.2414C54.7649 49.4483 56 48.2132 56 46.6897V21.8621C56 20.3385 54.7649 19.1035 53.2414 19.1035H18.7586C17.2351 19.1035 16 20.3385 16 21.8621V46.6897C16 48.2132 17.2351 49.4483 18.7586 49.4483H45.6552Z" fill="#F3D55B"/>
<path d="M40.8276 43.9311H22.8966C21.373 43.9311 20.1379 42.696 20.1379 41.1724V27.3793C20.1379 25.8558 21.373 24.6207 22.8966 24.6207H40.8276V43.9311Z" fill="white"/>
<path d="M40.8276 44.6207H22.8965C20.993 44.6184 19.4505 43.0759 19.4482 41.1724V27.3793C19.4505 25.4758 20.993 23.9333 22.8965 23.931H40.8276C41.2084 23.931 41.5172 24.2398 41.5172 24.6207V43.931C41.5172 44.3119 41.2084 44.6207 40.8276 44.6207ZM22.8965 25.3103C21.7539 25.3103 20.8276 26.2366 20.8276 27.3793V41.1724C20.8276 42.3151 21.7539 43.2414 22.8965 43.2414H40.1379V25.3103H22.8965Z" fill="#E4C05C"/>
<path d="M33.2414 34.9655H23.5863C23.2054 34.9655 22.8966 34.6568 22.8966 34.2759C22.8966 33.895 23.2054 33.5862 23.5863 33.5862H33.2414C33.6223 33.5862 33.9311 33.895 33.9311 34.2759C33.9311 34.6568 33.6223 34.9655 33.2414 34.9655Z" fill="#547580"/>
<path d="M33.2414 32.2069H23.5863C23.2054 32.2069 22.8966 31.8981 22.8966 31.5172C22.8966 31.1363 23.2054 30.8276 23.5863 30.8276H33.2414C33.6223 30.8276 33.9311 31.1363 33.9311 31.5172C33.9311 31.8981 33.6223 32.2069 33.2414 32.2069Z" fill="#547580"/>
<path d="M33.2414 29.4483H23.5863C23.2054 29.4483 22.8966 29.1395 22.8966 28.7586C22.8966 28.3777 23.2054 28.069 23.5863 28.069H33.2414C33.6223 28.069 33.9311 28.3777 33.9311 28.7586C33.9311 29.1395 33.6223 29.4483 33.2414 29.4483Z" fill="#547580"/>
<path d="M23.5862 41.8621C23.2594 41.8624 22.9771 41.6333 22.9104 41.3133C22.8436 40.9933 23.0106 40.6704 23.3104 40.54C23.7913 40.368 24.2357 40.1074 24.6207 39.7717C24.9729 39.426 25.1661 38.9499 25.1545 38.4566C25.1337 38.1152 25.3661 37.8102 25.7007 37.7397C26.0353 37.6692 26.371 37.8545 26.4897 38.1752C26.6981 38.797 27.1163 39.327 27.6725 39.6745C27.8036 39.7703 27.9665 39.8122 28.1276 39.7917C28.2302 39.7236 28.2892 39.6064 28.2828 39.4835C28.2587 39.1417 28.4892 38.834 28.8241 38.7611C29.1589 38.6883 29.4964 38.8722 29.6166 39.1931C29.6856 39.3759 29.8504 39.6352 30.4938 39.7835L31.0269 39.9097C31.9537 40.1874 32.9174 40.3223 33.8849 40.3097C34.2648 40.2822 34.595 40.568 34.6225 40.9479C34.6499 41.3279 34.3641 41.6581 33.9842 41.6855C32.8755 41.7093 31.7698 41.5628 30.7056 41.251L30.1842 41.1276C29.8242 41.0511 29.4804 40.9123 29.1683 40.7173C29.0128 40.8773 28.8246 41.002 28.6166 41.0828C28.0739 41.2655 27.4773 41.1893 26.998 40.8759C26.6543 40.6786 26.3448 40.4271 26.0814 40.131C25.9463 40.3568 25.7842 40.5652 25.5987 40.7517C25.0931 41.2114 24.5034 41.569 23.8621 41.8048C23.7752 41.843 23.6812 41.8625 23.5862 41.8621Z" fill="#547580"/>
<path d="M45.6552 45.3104V51.9214C45.6551 52.2003 45.4871 52.4517 45.2294 52.5584C44.9718 52.6651 44.6752 52.6062 44.4779 52.409L42.8966 50.8276L41.3152 52.409C41.1179 52.6062 40.8214 52.6651 40.5637 52.5584C40.306 52.4517 40.138 52.2003 40.1379 51.9214V35.6552C40.3344 35.8495 40.5995 35.9586 40.8759 35.9586C41.0009 35.9585 41.1249 35.9352 41.2414 35.8897C41.3575 35.843 41.4817 35.8195 41.6069 35.8207C42.0217 35.8233 42.3978 36.0651 42.5724 36.4414C42.7439 36.8163 43.1188 37.0563 43.531 37.0552C43.7975 37.0562 44.0542 36.955 44.2483 36.7724C44.2552 36.7655 44.269 36.7586 44.2759 36.7517L45.6552 45.3104Z" fill="#FF5364"/>
<path d="M49.7931 35.6552V45.0248C49.7931 45.3037 49.625 45.5551 49.3674 45.6619C49.1097 45.7686 48.8131 45.7096 48.6159 45.5124L47.0345 43.931L45.4531 45.5124C45.2559 45.7096 44.9593 45.7686 44.7016 45.6619C44.444 45.5551 44.2759 45.3037 44.2759 45.0248V36.749C44.6799 36.3917 45.2894 36.4007 45.6828 36.7697C45.8768 36.9523 46.1336 37.0535 46.4 37.0524C46.8123 37.0535 47.1871 36.8135 47.3586 36.4386C47.5332 36.0623 47.9093 35.8205 48.3241 35.8179C48.4493 35.8168 48.5735 35.8402 48.6897 35.8869C48.8062 35.9324 48.9301 35.9558 49.0552 35.9559C49.3311 35.9565 49.5962 35.8485 49.7931 35.6552Z" fill="#DF4D60"/>
<path d="M52.9586 30.8552C53.1412 31.0492 53.2424 31.3059 53.2414 31.5724C53.2425 31.9847 53.0025 32.3595 52.6276 32.531C52.2512 32.7056 52.0095 33.0817 52.0069 33.4966C52.0057 33.6217 52.0291 33.7459 52.0759 33.8621C52.1213 33.9786 52.1447 34.1025 52.1448 34.2276C52.1419 34.7958 51.692 35.261 51.1241 35.2828C50.5728 35.303 50.1306 35.7452 50.1103 36.2966C50.1042 36.5683 49.9901 36.8265 49.7931 37.0138C49.5966 37.2081 49.3315 37.3172 49.0552 37.3172C48.9301 37.3172 48.8061 37.2938 48.6896 37.2483C48.5735 37.2016 48.4493 37.1781 48.3241 37.1793C47.9093 37.1819 47.5332 37.4237 47.3586 37.8C47.1871 38.1749 46.8123 38.4149 46.4 38.4138C46.1335 38.4148 45.8768 38.3136 45.6827 38.131C45.2894 37.7621 44.6799 37.7531 44.2759 38.1103C44.269 38.1172 44.2552 38.1241 44.2483 38.131C44.0542 38.3136 43.7975 38.4148 43.531 38.4138C43.1188 38.4149 42.7439 38.1749 42.5724 37.8C42.3978 37.4237 42.0217 37.1819 41.6069 37.1793C41.4817 37.1781 41.3575 37.2016 41.2414 37.2483C41.1249 37.2938 41.0009 37.3172 40.8759 37.3172C40.5995 37.3172 40.3344 37.2081 40.1379 37.0138C39.9409 36.8265 39.8268 36.5683 39.8207 36.2966C39.8005 35.7452 39.3582 35.303 38.8069 35.2828C38.239 35.261 37.7891 34.7958 37.7862 34.2276C37.7863 34.1025 37.8097 33.9786 37.8552 33.8621C37.9019 33.7459 37.9253 33.6217 37.9241 33.4966C37.9215 33.0817 37.6798 32.7056 37.3034 32.531C36.9285 32.3595 36.6885 31.9847 36.6896 31.5724C36.6886 31.3059 36.7898 31.0492 36.9724 30.8552C37.3494 30.4513 37.3494 29.8245 36.9724 29.4207C36.7898 29.2266 36.6886 28.9699 36.6896 28.7034C36.6885 28.2912 36.9285 27.9163 37.3034 27.7448C37.6798 27.5702 37.9215 27.1942 37.9241 26.7793C37.9253 26.6541 37.9019 26.5299 37.8552 26.4138C37.8097 26.2973 37.7863 26.1733 37.7862 26.0483C37.7891 25.48 38.239 25.0149 38.8069 24.9931C39.3582 24.9729 39.8005 24.5306 39.8207 23.9793C39.8425 23.4115 40.3076 22.9615 40.8759 22.9586C41.0009 22.9587 41.1249 22.9821 41.2414 23.0276C41.3575 23.0743 41.4817 23.0977 41.6069 23.0966C42.0217 23.094 42.3978 22.8522 42.5724 22.4759C42.7439 22.101 43.1188 21.861 43.531 21.8621C43.7975 21.861 44.0542 21.9622 44.2483 22.1448C44.6521 22.5218 45.2789 22.5218 45.6827 22.1448C45.9305 21.9148 46.2735 21.8175 46.6051 21.883C46.9367 21.9485 47.2169 22.1689 47.3586 22.4759C47.5332 22.8522 47.9093 23.094 48.3241 23.0966C48.4493 23.0977 48.5735 23.0743 48.6896 23.0276C48.8061 22.9821 48.9301 22.9587 49.0552 22.9586C49.6234 22.9615 50.0886 23.4115 50.1103 23.9793C50.1306 24.5306 50.5728 24.9729 51.1241 24.9931C51.692 25.0149 52.1419 25.48 52.1448 26.0483C52.1447 26.1733 52.1213 26.2973 52.0759 26.4138C52.0291 26.5299 52.0057 26.6541 52.0069 26.7793C52.0095 27.1942 52.2512 27.5702 52.6276 27.7448C53.0025 27.9163 53.2425 28.2912 53.2414 28.7034C53.2424 28.9699 53.1412 29.2266 52.9586 29.4207C52.5816 29.8245 52.5816 30.4513 52.9586 30.8552Z" fill="#FB7B76"/>
<path d="M44.9655 34.9655C47.6317 34.9655 49.7931 32.8041 49.7931 30.1379C49.7931 27.4717 47.6317 25.3104 44.9655 25.3104C42.2993 25.3104 40.1379 27.4717 40.1379 30.1379C40.1379 32.8041 42.2993 34.9655 44.9655 34.9655Z" fill="white"/>
<path d="M44.9655 35.6552C41.9185 35.6552 39.4483 33.1851 39.4483 30.138C39.4483 27.0909 41.9185 24.6207 44.9655 24.6207C48.0126 24.6207 50.4828 27.0909 50.4828 30.138C50.4794 33.1836 48.0112 35.6518 44.9655 35.6552ZM44.9655 26C42.6802 26 40.8276 27.8527 40.8276 30.138C40.8276 32.4233 42.6802 34.2759 44.9655 34.2759C47.2509 34.2759 49.1035 32.4233 49.1035 30.138C49.1012 27.8536 47.2499 26.0023 44.9655 26Z" fill="#F3D55B"/>
</g>
<defs>
<clipPath id="clip0">
<rect width="40" height="40" fill="white" transform="translate(16 16)"/>
</clipPath>
</defs>
</svg>
