<svg width="72" height="72" viewBox="0 0 72 72" fill="none" xmlns="http://www.w3.org/2000/svg">
<rect width="72" height="72" rx="16" fill="#F1F5F9"/>
<g clip-path="url(#clip0)">
<path d="M44.5683 45.3009C44.3807 45.3009 44.1932 45.2294 44.0502 45.0864L42.5265 43.5627C42.2404 43.2766 42.2404 42.8126 42.5265 42.5266C42.8127 42.2405 43.2765 42.2405 43.5627 42.5266L45.0864 44.0502C45.3724 44.3363 45.3724 44.8003 45.0864 45.0864C44.9433 45.2294 44.7559 45.3009 44.5683 45.3009Z" fill="#666666"/>
<path d="M45.5637 43.5727L43.5727 45.5637C43.1587 45.9777 43.1587 46.6489 43.5727 47.063L52.1992 55.6895C52.6132 56.1035 53.2844 56.1035 53.6985 55.6895L55.6895 53.6985C56.1035 53.2845 56.1035 52.6134 55.6895 52.1993L47.0629 43.5727C46.649 43.1588 45.9778 43.1588 45.5637 43.5727Z" fill="#8469E2"/>
<path d="M55.6895 52.1993L47.063 43.5727C46.6491 43.1588 45.9778 43.1588 45.5638 43.5727L43.9676 45.1689C44.3815 44.7549 45.0527 44.7549 45.4668 45.1689L54.0934 53.7955C54.5073 54.2094 54.5073 54.8806 54.0934 55.2947L53.6984 55.6895L55.6894 53.6985C56.1035 53.2845 56.1035 52.6133 55.6895 52.1993Z" fill="#7B5EE0"/>
<path d="M31.8427 47.6853C40.5923 47.6853 47.6853 40.5923 47.6853 31.8427C47.6853 23.093 40.5923 16 31.8427 16C23.093 16 16 23.093 16 31.8427C16 40.5923 23.093 47.6853 31.8427 47.6853Z" fill="#49AFFE"/>
<path d="M43.0446 20.6402C39.666 17.2616 35.1411 15.7282 30.7218 16.0397C34.395 16.2985 37.9952 17.832 40.8034 20.6402C46.9902 26.8269 46.9902 36.8578 40.8034 43.0447C37.9952 45.8529 34.395 47.3862 30.7218 47.6451C35.1411 47.9567 39.6661 46.4233 43.0447 43.0447C49.2315 36.8578 49.2315 26.8269 43.0446 20.6402Z" fill="#1299EA"/>
<path d="M31.8426 44.8924C39.0498 44.8924 44.8924 39.0498 44.8924 31.8426C44.8924 24.6355 39.0498 18.7929 31.8426 18.7929C24.6354 18.7929 18.7928 24.6355 18.7928 31.8426C18.7928 39.0498 24.6354 44.8924 31.8426 44.8924Z" fill="#F2F2F2"/>
<path d="M41.07 22.6148C38.2367 19.7814 34.4245 18.5241 30.7218 18.8414C33.6788 19.0948 36.5659 20.3519 38.8288 22.6148C43.9252 27.7111 43.9252 35.9737 38.8288 41.07C36.566 43.3328 33.6788 44.5901 30.7218 44.8433C34.4245 45.1605 38.2367 43.9034 41.07 41.07C46.1663 35.9737 46.1663 27.711 41.07 22.6148Z" fill="#E6E6E6"/>
<path d="M22.6147 41.07C27.7111 46.1662 35.9736 46.1662 41.07 41.07C41.599 40.5409 42.0713 39.9766 42.4904 39.3863C42.1897 38.283 41.3526 37.4073 40.247 37.1091L35.1798 35.9609C35.1117 35.9455 35.0404 35.9593 34.9829 35.999L31.9141 38.1157L28.8454 35.999C28.7879 35.9593 28.7165 35.9455 28.6484 35.9609L23.5812 37.1091C22.4262 37.4208 21.564 38.3626 21.3006 39.536C21.6929 40.0721 22.1304 40.5855 22.6147 41.07Z" fill="#4D5560"/>
<path d="M33.3115 44.8089L32.5158 40.1559H31.915H31.3141L30.5635 44.8295C31.4773 44.9189 32.3988 44.9118 33.3115 44.8089Z" fill="#FC3F49"/>
<path d="M35.6001 27.9184C35.6001 26.1006 34.8013 25.6752 34.5951 25.5957C34.2926 26.5047 33.5552 27.4234 31.8188 27.4902C29.5109 27.5789 28.402 27.2119 27.9183 27.8286V31.1666C27.9183 31.9513 28.229 32.7012 28.7766 33.2379L29.6162 34.0608C29.7397 34.1818 29.8752 34.2863 30.0194 34.3738L29.8734 35.7473L29.1284 36.1943L31.9142 40.156L34.7 36.1943L33.9551 35.7473L33.8102 34.3855C33.9616 34.2957 34.1034 34.1871 34.2323 34.0608L35.0719 33.2379C35.6196 32.7012 35.9302 31.9514 35.9302 31.1666V28.2883C35.7439 28.2397 35.6001 28.1324 35.6001 27.9184Z" fill="#FED9A8"/>
<path d="M31.9141 38.1156L31.9114 38.1137L28.8455 35.999C28.788 35.9593 28.7166 35.9455 28.6486 35.9609L27.2341 36.2814L27.2263 36.2837L29.3724 39.0173C29.4498 39.1159 29.5844 39.1494 29.699 39.0985L31.9141 38.1156Z" fill="#3F4651"/>
<path d="M31.9144 38.1156L31.9172 38.1137L34.983 35.999C35.0405 35.9593 35.1119 35.9455 35.18 35.9609L36.5944 36.2814L36.6022 36.2837L34.4561 39.0173C34.3787 39.1159 34.2442 39.1494 34.1296 39.0985L31.9144 38.1156Z" fill="#3F4651"/>
<path d="M31.915 38.1157V38.1155L31.9149 38.1156L31.9148 38.1155V38.1157L30.708 38.6508L31.314 40.1559H32.5157L33.1201 38.6505L31.915 38.1157Z" fill="#FC3F49"/>
<path d="M33.5262 23.518H32.2151C33.9423 23.518 35.3425 24.9181 35.3425 26.6453V29.8096H36.6535V26.6453C36.6535 24.9181 35.2534 23.518 33.5262 23.518Z" fill="#F28F0C"/>
<path d="M35.9101 28.2851V30.6099C36.4342 30.5754 36.848 30.1873 36.848 29.7112V29.184C36.8481 28.708 36.4343 28.3196 35.9101 28.2851Z" fill="#FFC07B"/>
<path d="M27.9182 28.2851V30.6099C27.3942 30.5754 26.9803 30.1873 26.9803 29.7112V29.184C26.9803 28.708 27.394 28.3196 27.9182 28.2851Z" fill="#FED9A8"/>
<path d="M33.5262 23.518H30.3224C28.5952 23.518 27.1951 24.9181 27.1951 26.6453V28.6292C27.3661 28.4348 27.6248 28.3045 27.9183 28.285V28.287V27.8284C28.402 27.2117 29.5108 27.5788 31.8188 27.49C33.5551 27.4233 34.2926 26.5045 34.5951 25.5955C34.8013 25.675 35.6001 26.1004 35.6001 27.9181C35.6001 28.1302 35.7412 28.2373 35.9251 28.2866C36.2244 28.3102 36.4859 28.4494 36.6535 28.6539V26.6453C36.6535 24.9181 35.2534 23.518 33.5262 23.518Z" fill="#114B6B"/>
<path d="M35.6001 27.9184C35.6001 26.1006 34.8013 25.6752 34.5951 25.5957C34.2926 26.5047 33.5552 27.4234 31.8188 27.4902C29.5109 27.5789 28.402 27.2119 27.9183 27.8286V31.1666C27.9183 31.9513 28.229 32.7012 28.7766 33.2379L29.6162 34.0608C30.0265 34.4629 30.5677 34.6866 31.1301 34.6866H32.7186C33.2809 34.6866 33.8222 34.4629 34.2325 34.0608L35.0721 33.2379C35.6198 32.7012 35.9304 31.9514 35.9304 31.1666V28.2883C35.7439 28.2397 35.6001 28.1324 35.6001 27.9184Z" fill="#FED9A8"/>
<path d="M31.8188 28.0696C33.7367 28.0696 34.6698 26.8251 35.0407 25.9274C34.8566 25.7157 34.678 25.6275 34.5951 25.5956C34.2926 26.5045 33.5552 27.4233 31.8188 27.4901C29.5109 27.5788 28.402 27.2117 27.9183 27.8284V28.408C28.402 27.7913 29.5091 28.0696 31.8188 28.0696Z" fill="#FFC07B"/>
<path d="M35.6002 27.9184C35.6002 26.1648 34.857 25.7072 34.6193 25.6056V31.1666C34.6193 31.9513 34.3086 32.7012 33.761 33.2379L32.9214 34.0608C32.5111 34.4629 31.9699 34.6866 31.4075 34.6866H32.7185C33.2809 34.6866 33.8221 34.4629 34.2325 34.0608L35.0721 33.2379C35.6197 32.7012 35.9303 31.9514 35.9303 31.1666V28.2883C35.7439 28.2397 35.6002 28.1324 35.6002 27.9184Z" fill="#FFC07B"/>
<path d="M27.6941 30.0511H27.9183V28.8438H27.6941C27.4966 28.8438 27.3365 29.0039 27.3365 29.2014V29.6935C27.3365 29.891 27.4966 30.0511 27.6941 30.0511Z" fill="#F7C68B"/>
<path d="M36.1544 30.0511H35.9302V28.8438H36.1544C36.3519 28.8438 36.512 29.0039 36.512 29.2014V29.6935C36.512 29.891 36.3519 30.0511 36.1544 30.0511Z" fill="#F2AD5A"/>
<path d="M30.9797 34.6811C30.9349 34.6779 30.8904 34.673 30.8461 34.6671C30.8414 34.6665 30.8367 34.666 30.832 34.6653C30.7893 34.6592 30.7468 34.6517 30.7044 34.643C30.6983 34.6418 30.6922 34.6405 30.6861 34.6393C30.645 34.6305 30.6043 34.6203 30.5637 34.6091C30.5568 34.6073 30.5498 34.6053 30.5429 34.6034C30.5032 34.5919 30.464 34.5793 30.425 34.5656C30.4176 34.563 30.4101 34.5604 30.4027 34.5577C30.3643 34.5437 30.3263 34.5286 30.2887 34.5125C30.2811 34.5092 30.2736 34.5059 30.2661 34.5026C30.2288 34.486 30.192 34.4686 30.1557 34.4499C30.1482 34.4461 30.1409 34.4422 30.1336 34.4383C30.0973 34.4191 30.0616 34.3991 30.0263 34.378C30.0237 34.3764 30.0211 34.3752 30.0186 34.3736L30.0026 34.5239C30.2795 34.8788 31.4163 36.0477 33.9005 35.2408L33.8096 34.3853C33.8095 34.3854 33.8094 34.3854 33.8093 34.3855C33.7722 34.4074 33.7343 34.428 33.6961 34.4477C33.6862 34.4528 33.6761 34.4577 33.6661 34.4627C33.635 34.4782 33.6034 34.4928 33.5715 34.5068C33.5629 34.5105 33.5544 34.5145 33.5457 34.5182C33.506 34.5349 33.4659 34.5506 33.4254 34.5649C33.4186 34.5673 33.4115 34.5694 33.4047 34.5717C33.3706 34.5834 33.3363 34.5941 33.3018 34.604C33.2902 34.6073 33.2786 34.6105 33.2671 34.6137C33.232 34.623 33.1967 34.6316 33.1611 34.6393C33.1543 34.6408 33.1477 34.6425 33.141 34.6438C33.0992 34.6523 33.0571 34.6595 33.0148 34.6655C33.0041 34.667 32.9933 34.6681 32.9825 34.6695C32.9497 34.6737 32.9166 34.677 32.8835 34.6797C32.8712 34.6806 32.859 34.6816 32.8468 34.6824C32.8039 34.685 32.7608 34.6868 32.7176 34.6868H31.1291C31.0821 34.6868 31.035 34.685 30.9883 34.6819C30.9854 34.6813 30.9825 34.6813 30.9797 34.6811Z" fill="#F2C18B"/>
<path d="M32.5942 40.6145L32.5157 40.1559H31.915H31.314L31.2404 40.6145H32.5942Z" fill="#EA2F41"/>
<path d="M40.0228 38.7745C40.0868 38.6804 40.1529 38.5876 40.2233 38.4975L41.0417 37.4509L41.0433 37.449C40.7987 37.3015 40.5318 37.186 40.247 37.1092L35.1798 35.961C35.1117 35.9456 35.0403 35.9594 34.9828 35.9991L34.5203 36.3181L38.012 37.1093C38.9038 37.3497 39.6209 37.9662 40.0228 38.7745Z" fill="#3F4651"/>
<path d="M39.1816 42.6345C39.8468 42.181 40.4799 41.6601 41.07 41.07C41.5973 40.5427 42.0681 39.9805 42.4862 39.3925C42.2641 38.5723 41.7467 37.8771 41.0418 37.4509L40.2234 38.4975C39.4704 39.4604 39.0882 40.6615 39.146 41.8824L39.1816 42.6345Z" fill="#3F4651"/>
<path d="M40.452 41.6484C40.6625 41.4632 40.869 41.2711 41.07 41.0701C41.5973 40.5428 42.068 39.9806 42.4862 39.3926C42.2641 38.5724 41.7466 37.8772 41.0417 37.451L40.2234 38.4976C40.1528 38.5877 40.0867 38.6806 40.0229 38.7746C40.2232 39.1774 40.3456 39.6277 40.3717 40.1033L40.452 41.6484Z" fill="#333A44"/>
<path d="M22.6148 41.07C23.2457 41.7009 23.9253 42.2534 24.6413 42.7281L24.6814 41.8823C24.7392 40.6614 24.3569 39.4603 23.6039 38.4974L22.7856 37.4509C22.0385 37.9026 21.5016 38.6563 21.3043 39.5409C21.6956 40.0752 22.1318 40.587 22.6148 41.07Z" fill="#3F4651"/>
</g>
<defs>
<clipPath id="clip0">
<rect width="40" height="40" fill="white" transform="translate(16 16)"/>
</clipPath>
</defs>
</svg>
