<svg width="104" height="160" viewBox="0 0 104 160" fill="none" xmlns="http://www.w3.org/2000/svg">
<path d="M92.5608 160H9.21332V157.693H92.5608V160Z" fill="#D5152C"/>
<path d="M92.56 95.3744V157.701H9.17175V96.0313C13.8943 114.669 30.7092 128.48 50.776 128.48C70.8428 128.48 88.0499 114.324 92.5519 95.3334V95.3744H92.56Z" fill="#2B2A29"/>
<path d="M9.21332 96.0229C12.7266 98.7653 17.1877 99.8573 21.5181 99.8573C21.992 99.8573 22.4741 99.8573 22.948 99.8163C28.1934 109.924 38.7252 116.845 50.8176 116.845C65.4673 116.845 77.8212 106.697 81.2446 93.0671C82.3313 93.4612 83.3281 93.5926 84.1451 93.5926C85.1828 93.5926 86.1796 93.4202 87.0048 93.1575C88.3039 94.6846 90.4283 95.5549 92.5935 95.2511C88.1324 114.283 71.1377 128.438 50.8176 128.438C30.4975 128.438 13.9359 114.636 9.21332 95.9901V96.0312V96.0229Z" fill="#E5B582"/>
<path d="M75.7867 110.482L77.8212 108.306L78.4748 108.914L77.1348 110.35L77.5679 110.745L78.7853 109.439L79.3899 110.006L78.1725 111.311L78.6055 111.705L79.9455 110.227L80.5991 110.835L78.5157 113.06L75.7867 110.49V110.482ZM72.6656 115.4C72.927 115.178 73.0087 114.924 72.8371 114.702C72.6656 114.439 72.4041 114.48 72.1426 114.661L71.5789 115.055L72.1018 115.794L72.6656 115.4ZM70.2389 114.965L71.6688 113.922C72.1427 113.577 72.5348 113.487 72.8862 113.528C73.1885 113.569 73.4499 113.75 73.6624 114.053C74.0055 114.53 73.9647 115.014 73.7032 115.449L75.1739 115.975L74.218 116.673L72.9597 116.196L72.5675 116.459L73.2212 117.371L72.396 117.978L70.2308 114.932V114.973L70.2389 114.965ZM66.7256 119.062C66.505 118.586 65.9903 118.282 65.4674 118.536C64.9444 118.758 64.7728 119.316 64.9934 119.842C65.2141 120.318 65.7697 120.622 66.2926 120.367C66.8155 120.146 66.9871 119.587 66.7665 119.062H66.7256ZM64.0375 120.236C63.6045 119.234 64.0375 118.101 65.0752 117.666C66.1128 117.19 67.2404 117.666 67.6734 118.627C68.1064 119.628 67.6734 120.761 66.6357 121.197C65.5981 121.673 64.4705 121.238 64.0375 120.236ZM57.2805 120.146L58.2773 119.924L58.8819 122.666L60.6549 122.272L60.8755 123.143L58.1057 123.75L57.2805 120.088V120.129V120.146ZM52.035 122.929L51.602 121.886L51.2098 122.929H52.035ZM51.0791 120.663H52.0759L53.7263 124.407H52.5988L52.3373 123.75L50.9075 123.791L50.646 124.489L49.5594 124.53L51.0791 120.745V120.655V120.663ZM42.018 121.533C42.2386 120.441 43.2354 119.793 44.3547 120.006C45.0084 120.137 45.3924 120.4 45.7437 120.835L45.0084 121.443C44.7878 121.18 44.5753 121.008 44.1832 120.917C43.6602 120.827 43.1455 121.18 43.0556 121.747C42.9249 122.354 43.2762 122.839 43.8318 122.97C44.0933 123.011 44.2649 123.011 44.4364 122.929L44.5263 122.494L43.8318 122.363L43.9625 121.624L45.6538 121.968L45.3515 123.627C44.9185 123.89 44.3139 124.021 43.6602 123.89C42.5327 123.668 41.8382 122.716 42.0588 121.624L42.018 121.533ZM35.4734 117.182L36.3395 117.576L36.9931 119.973L37.7693 118.142L38.7252 118.536L37.2954 121.977L36.4702 121.632L35.7757 119.103L34.9995 120.975L34.0435 120.581L35.4734 117.141V117.182ZM29.6233 116.311L29.8848 115.219L28.9288 115.827L29.6233 116.303V116.311ZM30.1871 113.914L31.0123 114.48L30.1462 118.487L29.2393 117.83L29.4109 117.132L28.2425 116.303L27.6379 116.697L26.7718 116.09L30.1952 113.914H30.1871ZM24.6393 110.646C24.77 110.515 24.77 110.301 24.5494 110.08L24.0755 109.603L23.6016 110.038L24.0347 110.515C24.2553 110.736 24.4677 110.818 24.5984 110.646H24.6393ZM23.6425 111.122L23.1195 110.556L22.5966 111.032L23.1604 111.598C23.381 111.82 23.5935 111.861 23.7242 111.73C23.8549 111.598 23.8549 111.385 23.6343 111.122H23.6425ZM24.0347 108.29L25.3338 109.685C25.6361 110.03 25.8077 110.342 25.7668 110.646C25.7668 110.868 25.6769 111.081 25.5053 111.254C25.203 111.557 24.8517 111.557 24.5085 111.385C24.7291 111.82 24.7292 112.214 24.337 112.559C23.8631 112.994 23.2503 112.863 22.6457 112.214L21.3466 110.818L24.0755 108.249L24.0347 108.29Z" fill="#2B2A29"/>
<path d="M86.7526 146.765C87.4879 147.109 88.0517 147.594 88.0517 148.678C88.0517 149.942 86.8833 150.903 85.192 150.903C84.1952 150.903 83.5007 150.599 83.1576 150.377L82.7654 150.812H82.6755L82.6347 148.242H82.7245C83.419 149.72 84.1952 150.591 85.1512 150.591C86.1071 150.591 86.4503 150.114 86.4503 149.499C86.4503 148.883 86.1888 148.538 85.192 148.152C84.759 147.98 84.3668 147.889 84.0645 147.758C83.2393 147.413 82.7654 146.715 82.7654 145.755C82.7654 144.318 83.9828 143.579 85.4126 143.579C86.1071 143.579 86.8833 143.842 87.2346 144.055L87.5778 143.661H87.6677L87.7085 146.058H87.6187C87.0957 144.794 86.581 143.883 85.5352 143.883C84.759 143.883 84.3178 144.318 84.3178 144.975C84.3178 145.714 84.8407 146.017 85.576 146.321C85.9682 146.494 86.4421 146.584 86.7444 146.756L86.7526 146.765ZM77.3892 144.367H78.1654C79.1622 144.367 79.203 144.934 79.203 145.369C79.203 146.28 78.2471 146.329 77.381 146.937V144.367H77.3892ZM78.2144 150.599H78.0428C77.6506 150.599 77.3483 150.467 77.3483 149.86V148.029C77.3483 147.594 77.6506 147.331 78.1735 147.068C79.3011 147.109 78.2144 150.903 81.0332 150.903C81.5561 150.903 81.9892 150.771 82.2506 150.64L82.2098 150.336C82.1199 150.377 81.9892 150.377 81.8666 150.377C79.6524 150.377 81.1721 147.027 78.9661 146.765C80.0528 146.37 80.6574 146.026 80.6574 145.328C80.6574 144.671 80.5675 143.801 78.6229 143.801H74.8563V144.022H75.0279C75.4201 144.022 75.7224 144.154 75.7224 144.326V149.466C75.7224 150.468 75.4201 150.599 75.0279 150.599H74.8563V150.771H78.149V150.599H78.2389H78.2144ZM58.6705 143.809H61.2687V144.03H61.0972C60.705 144.03 60.2719 144.203 60.2719 144.769V150.821H60.0105L55.4595 145.073V149.909C55.4595 150.476 55.8926 150.648 56.2357 150.648H56.4073V150.821H53.8091V150.648H53.9807C54.3728 150.648 54.8059 150.476 54.8059 149.909V144.334C54.5853 144.113 54.332 144.03 54.0705 144.03H53.8499V143.809H56.5789L59.6101 147.594V144.72C59.6101 144.154 59.1771 143.981 58.7849 143.981H58.6133V143.759L58.6542 143.801L58.6705 143.809ZM65.3458 147.249H68.467V147.421H68.4261C68.0339 147.421 67.7316 147.553 67.7316 148.16V150.254C67.7316 150.254 66.5142 150.952 64.9618 150.952C63.0581 150.952 61.4077 149.556 61.4077 147.339C61.4077 145.122 63.0581 143.677 64.8311 143.677C65.738 143.677 66.4325 144.112 66.7838 144.112C67.1352 144.112 67.0862 143.677 67.0862 143.677L67.2577 143.636L67.7806 145.861L67.6091 145.902C67.6091 145.902 66.6531 144.162 65.1416 144.162C63.9732 144.162 63.1071 144.942 63.1071 147.257C63.1071 149.433 64.1039 150.353 65.2314 150.353C65.5746 150.353 65.926 150.262 66.1874 150.18V148.086C66.1874 147.52 65.8851 147.347 65.4929 147.347H65.3213V147.175L65.3622 147.265L65.3458 147.249ZM74.7093 148.727L73.8023 150.771H68.5977V150.599H68.7693C69.1615 150.599 69.4638 150.467 69.4638 149.86V144.72C69.4638 144.154 69.1615 143.981 68.7693 143.981H68.5977V143.759H73.451L74.1046 145.418L73.933 145.508C73.933 145.508 73.1977 144.334 71.8087 144.334H71.0734V146.904H72.111C72.6748 146.904 72.9771 146.379 72.9771 145.993V145.902H73.1487V148.431H72.9771V148.341C72.9771 147.947 72.6748 147.471 72.111 147.471H71.0734V150.172H72.2009C73.5899 150.172 74.5867 148.604 74.5867 148.604L74.7583 148.694L74.7174 148.735L74.7093 148.727ZM53.5149 148.637L53.6865 148.727L52.7796 150.771H47.575V150.599H47.7466C48.1387 150.599 48.441 150.467 48.441 149.86V144.72C48.441 144.154 48.1387 143.981 47.7466 143.981H47.575V143.759H52.4283L53.0819 145.418L52.9103 145.508C52.9103 145.508 52.175 144.334 50.786 144.334H50.0506V146.904H51.0883C51.6521 146.904 51.9544 146.379 51.9544 145.993V145.902H52.1259V148.431H51.9544V148.341C51.9544 147.947 51.6521 147.471 51.0883 147.471H50.0506V150.172H51.1782C52.5672 150.172 53.564 148.604 53.564 148.604L53.5231 148.645L53.5149 148.637ZM30.5476 148.464L31.5036 146.116L32.4595 148.464H30.5558H30.5476ZM41.4226 148.637C41.4226 148.637 40.4258 150.205 39.0368 150.205H37.9092V144.72C37.9092 144.154 38.2116 143.981 38.6037 143.981H38.7753V143.759H35.4826V143.981H35.6542C36.0464 143.981 36.3487 144.113 36.3487 144.72V149.86C36.3487 150.426 36.0464 150.599 35.695 150.599C35.3437 150.599 35.0414 150.377 34.829 149.942C34.7881 149.811 32.1 143.669 32.1 143.669H31.8794L29.2812 149.942C29.1096 150.377 28.8073 150.599 28.4151 150.599C28.0229 150.599 27.7615 150.426 27.7615 149.86V144.72C27.7615 144.154 28.0638 143.981 28.456 143.981H28.6275V143.759H25.3348V143.981H25.5064C25.8986 143.981 26.2009 144.113 26.2009 144.72V146.945H23.7334V144.72C23.7334 144.154 24.0357 143.981 24.4279 143.981H24.5995V143.759H21.3068V143.981H21.4783C21.8705 143.981 22.1728 144.113 22.1728 144.72V149.86C22.1728 150.426 21.8705 150.599 21.4783 150.599H21.3068V150.771H24.5995V150.599H24.4279C24.0357 150.599 23.7334 150.467 23.7334 149.86V147.512H26.2009V149.86C26.2009 150.426 25.8986 150.599 25.5064 150.599H25.3348V150.771H30.5803V150.599H30.3597C30.0982 150.599 29.7959 150.426 30.0574 149.819L30.3597 149.039H32.7455L33.0478 149.819C33.3093 150.426 33.007 150.599 32.7455 150.599H32.5249V150.771H40.7608L41.6677 148.727L41.4961 148.637H41.4062H41.4226ZM15.375 146.592C15.375 148.99 16.4126 150.336 17.7607 150.336C19.4929 150.336 20.4897 148.16 20.4897 148.16L20.6613 148.201L20.0076 150.903L19.8361 150.862C19.8361 150.862 19.8361 150.468 19.5746 150.468C19.2723 150.468 18.6187 150.862 17.6709 150.862C15.2442 150.862 13.6428 149.203 13.6428 146.551C13.6428 143.899 15.2442 142.24 17.6709 142.24C18.6268 142.24 19.2723 142.635 19.5746 142.635C19.8769 142.635 19.8361 142.24 19.8361 142.24L20.0076 142.199L20.6613 144.901L20.4897 144.942C20.4897 144.942 19.4929 142.766 17.7607 142.766C16.4208 142.766 15.375 144.113 15.375 146.51V146.6V146.592ZM47.6158 148.727L46.7089 150.771H41.5043V150.599H41.6759C42.068 150.599 42.3704 150.467 42.3704 149.86V144.72C42.3704 144.154 42.068 143.981 41.6759 143.981H41.5043V143.759H44.797V143.981H44.6254C44.2332 143.981 43.9309 144.113 43.9309 144.72V150.205H45.0584C46.4474 150.205 47.4442 148.637 47.4442 148.637L47.6158 148.727ZM37.2147 133.094H38.0808C39.0776 133.094 39.5515 133.57 39.5515 134.317C39.5515 135.664 38.0808 135.885 37.2147 136.493V133.094ZM38.04 140.713H37.9092C37.5171 140.713 37.2147 140.582 37.2147 139.974V137.536C37.2147 137.101 37.6069 136.838 38.1217 136.624C39.2492 136.665 39.6823 142.594 43.2364 142.594C44.3231 142.594 44.9686 141.937 44.9686 141.937L44.8378 141.805C44.8378 141.805 44.4457 142.109 43.841 142.109C41.6759 142.109 41.1121 136.534 38.9469 136.271C40.0336 135.877 41.2428 135.401 41.2428 134.178C41.2428 133.307 40.5075 132.437 38.5956 132.437H34.829V132.609H34.9597C35.3519 132.609 35.6542 132.741 35.6542 133.348V139.925C35.6542 140.492 35.3519 140.664 34.9597 140.664H34.829V140.836H38.0808V140.664L38.04 140.705V140.713ZM57.2407 136.271L58.1966 138.62H56.2929L57.1998 136.271H57.2407ZM54.1604 140.713H53.9888V140.886H56.2847V140.713H56.0641C55.8027 140.713 55.5004 140.541 55.7618 139.974L56.0641 139.194H58.4009L58.7032 139.933C58.9647 140.541 58.6624 140.713 58.4009 140.713H58.1803V140.886H66.2855L67.1924 138.841L67.0208 138.751C67.0208 138.751 66.024 140.319 64.684 140.319H63.5973V134.917C63.5973 134.35 63.8997 134.219 64.2918 134.219H64.4226V134.046H61.1707V134.219H61.3014C61.6936 134.219 61.9959 134.35 61.9959 134.917V140.015C61.9959 140.582 61.6936 140.713 61.3423 140.754C60.9991 140.754 60.6887 140.533 60.5171 140.098C60.3863 139.794 57.829 133.915 57.829 133.915H57.6084L55.051 140.098C54.8794 140.533 54.5771 140.754 54.1849 140.754L54.1441 140.713H54.1604ZM48.6535 134.178H48.4819V134.005H51.9053V134.178H51.6847C51.4233 134.178 51.0311 134.35 51.3824 134.958L52.6815 137.224C52.6815 137.224 53.6783 135.565 54.0215 134.958C54.3647 134.35 53.9807 134.178 53.7192 134.178H53.4986V134.005H55.8844V134.178H55.7128C55.3696 134.178 55.1082 134.399 54.8467 134.835L53.0247 137.93V139.974C53.0247 140.541 53.327 140.713 53.6784 140.713H53.8499V140.886H50.5981V140.713H50.7696C51.1618 140.713 51.4233 140.582 51.4233 139.974V138.102L49.5604 134.835C49.299 134.399 49.0865 134.178 48.6943 134.178H48.6535ZM45.5732 134.399C46.7007 134.399 47.3462 135.36 47.3462 137.445C47.3462 139.531 46.6517 140.492 45.5732 140.492C44.4947 140.492 43.8002 139.531 43.8002 137.445C43.8002 135.36 44.4947 134.399 45.5732 134.399ZM45.5732 141.017C47.5259 141.017 49.0375 139.671 49.0375 137.445C49.0375 135.22 47.5178 133.874 45.5732 133.874C43.6286 133.874 42.1089 135.22 42.1089 137.445C42.1089 139.671 43.6286 141.017 45.5732 141.017Z" fill="#FEFEFE"/>
<path d="M52.6891 18.9829C51.5616 18.7202 47.362 18.3753 47.2721 18.7202C47.1822 19.1143 48.1382 19.1143 50.3524 20.9452C50.957 21.4215 51.7822 21.6431 52.6483 21.5118C53.2121 21.4215 53.5552 21.1669 54.0781 20.7728C55.3772 19.8122 54.4213 19.6398 52.6891 19.0322V18.9911V18.9829ZM80.2075 84.7006C79.513 84.5282 74.7495 82.6561 73.7037 82.1307C71.4486 81.0386 63.0412 74.9874 61.2192 73.0744C59.1357 70.8493 55.5407 69.199 55.2792 69.5438C55.2792 69.5438 59.1765 73.723 58.4003 77.8201C58.1389 79.298 57.9673 79.9138 58.7435 78.9532C60.2632 77.0811 59.9609 74.9874 60.0018 75.0367C60.1325 75.1681 63.8582 77.2125 63.4252 83.354C63.3844 83.8795 65.5087 81.2193 65.762 79.9138C66.195 79.9138 68.4501 83.6168 68.2785 85.2671C68.1478 86.4412 68.973 85.7023 69.4959 84.9633C69.7982 84.5281 69.9698 83.9616 70.0597 83.5675C70.1495 83.042 70.2803 83.1734 70.8849 83.3048C72.7478 83.781 77.8625 84.3065 80.2483 84.7006H80.2075ZM44.3225 99.2498C43.5872 106.13 37.2142 109.833 37.1733 110.096C37.1733 110.137 48.4813 108.437 44.3225 99.2498ZM14.8515 46.8169C14.3776 41.8494 5.14491 36.5782 8.34775 24.911C1.59073 32.8342 6.35414 36.5372 8.95236 39.5012C9.64686 40.3305 10.4231 40.9381 10.7744 41.7263C11.1666 42.5966 9.94917 42.0301 9.21383 41.989C4.31969 41.8577 3.40459 45.8234 3.9275 45.9958C4.27066 46.0861 8.38861 40.5522 13.8955 46.2996C14.2387 46.6444 14.9332 47.7364 14.8515 46.8661V46.8251V46.8169ZM21.4859 94.463C22.352 94.463 24.6479 94.4219 24.7787 93.8061C24.8686 93.412 24.5172 92.5828 24.125 92.4596C23.5204 92.2379 18.8796 93.8554 14.7616 91.7206C13.2419 90.9406 11.6405 89.5859 11.5097 89.6269C11.2483 89.7583 13.201 94.5944 21.5186 94.463H21.4778H21.4859ZM8.18433 88.149C7.7513 86.1456 8.09446 85.2343 7.57972 84.5364C7.18754 84.0109 6.58293 83.4936 5.49625 83.4936C1.90122 83.5347 2.16267 85.5873 2.24438 84.4953C2.28523 83.0995 3.11045 79.6182 7.66143 80.0944C8.43763 80.1847 8.78897 77.7872 8.48666 76.999C6.58293 72.4257 3.28203 75.7757 2.97972 77.9104C2.41595 78.1731 1.81135 74.5605 2.45682 72.4668C3.5435 69.1579 7.13852 67.2859 10.3414 71.2434C11.6405 68.148 17.0167 52.1209 12.1144 47.5065C10.3414 45.8069 7.22022 45.9794 5.35734 47.4655C3.83762 48.6889 3.6252 51.0782 3.19216 51.0782C2.49766 51.0782 -0.32116 47.5969 0.0301721 44.4111C0.504062 40.1416 4.88345 39.6654 5.10406 39.4027C5.40637 39.0086 4.71186 38.5734 4.32785 38.1382C1.72962 35.5683 1.33744 30.1247 4.45858 26.6845C11.3953 19.0158 9.27103 17.8416 10.0963 18.0141C10.5293 18.1044 12.0898 19.9764 12.433 22.0208C13.389 27.4234 9.87565 28.3348 12.3922 35.1332C12.2206 34.6569 12.5638 30.5188 15.3826 27.8175C16.7716 26.471 21.0611 24.9028 21.535 25.4693C21.5758 26.4299 15.9872 27.0786 19.6312 39.0168C21.151 44.0253 21.0202 53.7384 17.033 63.7553C16.9023 64.0591 17.4661 63.665 18.2913 63.665C21.151 63.624 22.4092 65.5781 22.2376 68.1069C22.1478 69.3303 21.7147 68.5011 20.7179 68.3286C12.5229 67.1053 11.9183 77.1222 11.7058 81.3506C11.4852 85.6202 12.3595 90.9735 25.7918 89.3231C26.5272 89.2328 27.2625 94.504 27.2625 94.9392C27.3033 95.7192 26.8295 95.9409 26.0451 96.0723C14.5573 98.207 9.0586 92.2872 8.10265 88.0587L8.19251 88.149H8.18433ZM72.7151 57.9669C73.9325 59.0999 74.3655 60.9309 74.7495 62.4498C76.4 68.6324 81.7272 68.7227 81.8579 68.46C81.8988 68.3697 78.9574 66.8507 79.1698 61.4481C79.2597 59.0506 77.6501 56.1769 75.3542 54.8304C69.4632 51.2588 61.5705 53.1308 58.1879 52.2605C61.6114 56.1769 64.5119 62.105 66.4238 63.6732C68.1968 65.1511 69.9371 65.808 74.3083 69.5931C74.2185 69.5027 72.4454 61.3578 70.362 58.6648C70.1414 58.361 68.3275 56.3576 68.1478 56.3986C69.4877 55.9635 71.7428 57.0965 72.6579 58.0079L72.6988 57.9669H72.7151ZM87.4465 30.7898C87.4057 30.3135 85.5836 34.3614 78.8675 41.8987C78.5652 42.2025 79.1698 43.7707 79.9051 44.7314C80.1257 45.0352 80.7712 45.7741 81.1634 45.6017C81.384 45.5114 80.9918 43.2945 83.4593 39.7229C85.1915 37.194 87.0135 33.8441 87.4465 30.7487V30.7898ZM104 25.4364C104 25.6581 104 25.7813 103.526 25.6581C102.75 25.4364 101.835 25.0013 101.099 25.6171C100.323 26.2739 100.144 27.1443 99.1058 27.6205C97.4145 28.4005 94.7755 27.7518 93.7297 29.6649C93.2966 30.4449 93.2558 31.7586 94.2934 32.0131C95.1595 32.2348 96.9815 30.6666 99.016 33.0559C99.1876 33.2283 101.271 32.0131 101.483 32.2266C101.704 32.7028 100.397 34.8869 99.9638 35.5765C97.7087 39.3616 94.5467 38.4503 93.2884 38.0561C91.8586 37.621 90.6412 37.4486 89.7751 38.9265C88.4352 41.1926 88.7783 43.7625 88.3044 46.2011C88.2146 46.7676 87.5282 50.0354 86.8746 49.9451C86.3108 49.8548 85.4448 46.1107 84.881 46.2421C84.7503 46.2832 85.2732 50.4213 83.492 52.162C83.3204 52.3344 82.152 47.9335 77.8543 47.4573C77.6828 45.6263 76.9883 44.6246 74.9538 42.884C76.1712 41.4471 78.0341 39.222 79.2433 37.7852C81.5801 35.0018 84.3172 32.4729 85.5265 28.9424C86.5641 25.9783 87.0462 22.9322 88.9499 20.4034C89.8568 19.18 93.1986 16.0517 97.578 17.308C98.011 17.4393 100.912 16.9138 101.173 18.6134C101.214 18.7859 100.045 18.5724 99.351 19.0486C98.6156 19.5248 98.3133 20.5265 98.1336 20.6579C93.6235 20.2638 93.7542 24.3198 94.2362 23.8354C95.2739 22.8337 98.2643 20.8714 102.039 23.0554C103.297 23.7943 103.992 25.0998 103.992 25.4036L104 25.4364ZM40.6785 13.3751C48.7836 10.2797 55.2384 13.5968 55.2384 13.4654C47.3947 7.89038 40.6785 13.3751 40.6785 13.3751ZM47.2231 5.1891C47.2231 5.79669 47.4845 6.32216 47.8277 6.32216C48.1709 6.32216 48.4323 5.84595 48.4323 5.1891C48.4323 4.58152 48.1709 4.05604 47.8277 4.05604C47.4845 4.05604 47.2231 4.53225 47.2231 5.1891ZM62.1751 7.9725C60.5737 8.23524 60.4838 9.14661 60.1407 10.1072C59.6178 12.0203 58.9232 11.9793 58.5392 12.1106C55.9819 12.5458 56.8479 14.5902 56.8888 14.7216C56.8479 14.7216 56.8479 14.7627 56.7989 14.7627C56.5375 14.9843 55.6714 15.8547 55.5407 16.4212C55.4099 16.2898 47.2231 12.2831 40.1556 16.3801C40.1556 16.4212 40.0249 15.6001 38.7666 14.6806C38.7666 14.6806 39.6735 12.5869 37.0753 12.1106C36.6831 11.9793 35.9886 11.9793 35.4739 10.1072C35.1307 9.14661 35.0408 8.23524 33.4394 7.9725C33.4394 7.9725 34.2156 7.01186 36.1275 7.75081L37.255 6.79017L37.4756 8.09565L38.9055 7.75081L38.3826 9.31904L39.7716 9.58177L38.8646 10.4521C38.8646 10.4521 41.5936 11.7986 41.2913 8.40766L40.2945 9.01524C40.2945 9.01524 39.4284 7.79187 39.2977 6.53565C39.2568 6.5767 40.6376 6.49459 40.6376 6.49459L39.3794 4.92636C39.3794 4.92636 41.1115 4.01499 42.3289 3.96572C42.3289 3.92467 42.4188 5.83774 42.4188 5.83774L43.5872 4.83604C43.5872 4.83604 44.1918 6.40427 44.3225 7.6687C44.2327 7.62765 42.762 7.6687 42.762 7.6687C42.762 7.6687 44.8454 11.0186 46.406 7.62764C46.3652 7.58659 45.5399 7.80007 44.7556 6.92975C44.7147 6.92975 44.7964 6.40426 45.3193 6.10047C44.8863 5.92805 44.4124 5.36152 44.4533 5.09878C44.4533 4.92636 44.7556 4.70467 45.2295 4.57331C45.1396 4.57331 44.6657 4.00678 44.5758 3.26782C44.5758 3.30888 44.968 3.04613 45.8341 3.35813C45.8341 3.35813 45.4909 2.96402 45.4011 1.65854C45.3602 1.61749 46.0057 1.48612 46.79 1.69959C46.8799 1.69959 46.9616 1.13306 47.4845 0.353056C47.5254 0.312003 47.5254 0.262739 47.5744 0.262739C47.6643 0.172422 47.7051 0.0903166 47.795 0C47.795 0 47.9666 0.172425 48.0973 0.394112C48.6611 1.17412 48.751 1.74065 48.7918 1.74065C49.568 1.56823 50.2217 1.65033 50.1808 1.69959C50.14 3.00508 49.7886 3.39919 49.7886 3.39919C50.6547 3.13645 51.006 3.35814 51.006 3.30887C50.9161 4.04783 50.4423 4.61436 50.3524 4.61436C50.8263 4.74573 51.1286 4.95921 51.1286 5.13984C51.1286 5.40258 50.6955 5.9691 50.2625 6.14153C50.7854 6.44532 50.8671 6.97081 50.8263 6.97081C50.0501 7.84113 49.2248 7.62765 49.1758 7.6687C50.7364 11.1089 52.8199 7.70975 52.8199 7.70975C52.8199 7.70975 51.39 7.6687 51.2593 7.70975C51.39 6.44532 51.9947 4.8771 51.9947 4.8771L53.163 5.87879C53.163 5.87879 53.2529 3.96572 53.2529 4.00677C54.4213 4.04782 56.2025 4.96742 56.2025 4.96742L54.9442 6.53565C54.9442 6.53565 56.3741 6.62595 56.2842 6.57669C56.1535 7.84112 55.2874 9.05629 55.2874 9.05629L54.2906 8.4487C53.9883 11.7986 56.7172 10.4931 56.7172 10.4931L55.8103 9.62283L57.1993 9.36008L56.6355 7.79187L58.0654 8.13671L58.2859 6.83123L59.4135 7.79187C61.3172 7.05291 62.1016 8.01354 62.1016 8.01354L62.1915 7.9725H62.1751ZM31.1844 43.1631C31.7481 42.6377 32.3527 42.5063 31.6582 43.7297C29.1009 48.4754 27.7609 53.6152 32.1321 59.5351C32.222 59.6254 32.3527 59.6664 32.3527 59.5351C32.6142 58.1885 33.7417 54.2228 38.2927 50.7415C38.7257 50.3967 41.2831 48.3933 41.4138 48.4343C41.8469 48.5247 41.0707 50.175 43.9303 52.6135C44.6657 53.2211 44.3225 52.3097 44.8373 51.6118C45.7932 50.3885 47.697 48.0402 48.5222 46.472C48.6529 46.2093 49.9929 47.6461 50.7364 50.2571C51.5126 46.5952 50.6955 45.2486 48.9144 43.7707C48.4813 43.4259 48.8245 45.1173 44.535 49.124C42.762 46.9893 43.3176 43.0236 43.0643 42.769C43.1541 42.8101 41.2913 45.8644 38.5542 47.1206C34.6977 48.9023 34.1748 50.4706 34.0032 50.1257C32.6632 47.7282 34.0931 45.4621 34.7794 43.6804C35.2124 42.5473 37.9414 37.3254 37.7289 36.8902C37.206 37.2843 32.6551 39.7229 32.7449 39.025C33.5211 32.4894 38.0312 32.8424 38.6359 28.2281C38.6767 28.0556 36.4216 29.6238 36.1193 29.7963C34.9019 30.4942 34.7304 30.7569 35.0817 29.4022C35.817 26.3068 38.8074 24.172 38.3744 24.2213C32.3936 24.6154 33.8643 30.7076 27.9733 32.67C28.1939 33.2365 29.7953 33.0641 30.2692 33.0148C30.7023 32.9738 31.9606 32.9738 32.3527 32.9738C28.0224 37.8098 29.8852 41.209 27.5893 44.6903C27.3279 45.1255 30.0568 43.9924 31.1026 43.1221L31.1925 43.1631H31.1844ZM36.2092 22.4314C37.9005 22.5217 39.8042 21.1259 39.2405 21.0356C34.9101 20.5101 32.0423 17.2505 32.0014 17.2012C31.6991 17.1602 32.3037 18.9419 32.3446 19.1635C32.8675 21.2572 33.9051 22.2589 36.201 22.3903V22.4314H36.2092ZM46.1364 38.1957C46.308 38.1957 46.357 38.1547 46.4387 37.974C46.6103 37.5799 45.5318 36.9723 46.9616 33.5321C47.5662 32.0049 47.6153 30.6173 47.6153 28.9999C47.6153 26.9965 49.2167 25.2148 49.1758 25.1244C48.9144 24.8617 45.7524 27.5219 45.8423 29.5253C45.8831 30.5681 46.0138 31.2249 45.4501 32.0542C41.9858 37.1037 45.8423 38.1957 46.1446 38.1957H46.1364ZM21.8209 45.2076C27.238 45.5114 25.465 40.4208 26.5844 37.8509C27.0174 36.8492 28.1449 35.8475 28.4064 35.0182C27.7119 35.1085 22.3847 36.2826 23.0302 30.3135C23.071 30.0098 24.6806 31.7093 26.7968 31.1839C31.1762 29.9194 30.6533 25.4775 33.7744 23.5152C30.1303 22.2097 31.8216 18.9419 29.7463 16.2406C29.2234 15.5427 28.1449 15.3292 28.0959 15.1486C28.055 14.9269 33.8152 13.9744 37.5001 17.3736C38.93 18.6791 38.4561 18.9008 39.5836 17.8499C44.0039 13.8431 55.8756 15.1896 57.1339 19.5905C57.6078 19.8532 61.0312 20.5511 62.551 20.5511C63.5069 20.5511 65.1083 20.8549 64.8469 22.029C64.1932 24.7303 62.4611 24.6893 62.5918 25.2065C63.0657 27.3824 61.595 30.3874 61.2927 30.3053C61.0312 30.215 61.0312 29.1312 60.7698 28.9588C58.6455 27.5219 54.8298 27.1278 52.8362 25.0834C50.622 26.1754 50.8835 29.6567 50.8426 30.7898C50.671 34.1889 49.6742 34.4517 49.8867 34.8376C50.7527 36.0117 52.3133 36.5782 54.1353 36.6193C55.9083 36.6603 55.7367 37.1448 57.4689 36.9231C58.2042 36.8328 59.2909 35.79 59.4625 35.8803C59.5932 35.9706 59.5034 37.4075 58.8987 38.3599C58.335 39.3616 56.995 39.6654 55.7368 39.534C53.7023 39.3124 50.3606 38.9675 49.233 41.1926C48.4977 42.6705 49.5762 41.9726 51.3574 41.2829C56.7744 39.2385 58.0735 45.5114 65.5332 38.8854C65.574 38.8444 65.6231 38.8854 65.6231 38.9265C65.6639 40.0185 66.0153 42.8429 62.1097 44.6328C60.1161 45.5442 56.0881 45.1583 55.0423 46.0286C60.7208 48.5986 65.5332 44.8053 68.7769 44.5918C71.0728 44.4194 74.5861 45.5032 75.1009 48.1634C74.5371 47.4244 72.0206 47.2931 71.0238 47.6872C59.7158 52.0881 56.2433 48.2127 55.3772 48.8202C54.4213 49.4771 54.3805 51.4312 54.7236 52.3015C55.4998 54.1325 57.281 56.3083 58.4085 60.6189C54.6827 57.3511 50.3442 57.1376 49.4373 53.6973C49.1758 52.786 49.135 51.2998 48.8327 50.4706C48.8327 50.4706 48.0973 52.0799 47.8767 52.9091C47.2231 55.6515 51.3002 57.9586 51.3002 64.3219C43.0643 60.6189 43.0643 56.4397 43.195 55.438C43.195 55.3477 43.1051 55.3477 43.0643 55.3969C42.6721 55.9635 41.806 58.0079 43.3257 62.885C44.3225 66.1939 42.9335 69.5028 42.9335 69.3714C42.7129 66.7604 39.3794 63.9688 38.211 60.5286C36.9936 57.0473 39.2078 54.4774 39.1179 54.2967C38.9872 53.9929 34.9591 56.2098 35.6945 61.1362C36.2174 64.5764 38.5542 65.5781 39.5101 68.3204C40.4661 71.0628 40.033 75.6771 33.3986 77.0319C32.6632 77.1632 33.1371 76.7691 33.5293 76.2026C35.5229 73.5424 33.3577 69.1004 32.8348 68.8869C32.5733 68.7556 31.2334 70.2828 28.676 70.1924C25.2117 70.0611 24.125 66.6619 24.5581 66.7111C30.1957 67.056 29.109 60.9637 28.7659 61.3989C28.4636 61.793 23.5613 64.0099 22.352 60.5286C22.3112 60.3972 22.3929 60.2658 22.5236 60.2248C28.1613 60.0031 26.0369 54.387 25.8572 52.3836C25.5549 49.1569 27.5893 47.72 27.4177 47.3341C27.3279 47.1124 21.4778 48.5082 21.6085 45.2897L21.7801 45.1994L21.8209 45.2076ZM86.8337 61.9326C88.1329 61.5385 88.8682 60.7995 89.3012 60.4547C89.3421 60.4136 89.3421 60.3643 89.2604 60.3233C88.4352 60.2822 85.4039 59.9784 83.4512 56.4068C81.5883 53.0076 78.7694 49.7891 74.5698 49.7891C72.7069 49.8301 68.6298 50.7908 68.8096 51.0535C68.9812 51.3573 75.6973 51.1438 78.6469 55.2327C80.6813 58.0654 82.3318 63.2463 86.8419 61.8997V61.9408L86.8337 61.9326ZM56.3659 30.2232C54.503 28.7453 52.5993 29.6156 51.6842 31.9639C51.4227 32.6618 51.5943 32.5715 51.774 32.5304C53.9392 31.9228 54.8053 32.4401 56.1044 33.0559C59.1847 34.4024 61.3499 33.7538 62.4774 31.4877C61.5705 31.4877 60.2224 33.2694 56.3659 30.2232ZM100.658 86.8846C99.9229 86.5398 100.005 85.144 98.967 84.9715C98.06 84.8402 97.1449 85.9732 96.238 85.6284C93.4682 84.4543 90.9925 85.0618 90.4778 85.6284C90.87 85.9322 93.5581 86.6301 94.1627 87.0652C95.3311 87.8452 96.1563 89.3314 95.421 91.5072C95.0778 92.5992 95.421 93.2478 94.7265 94.2495C93.8604 95.5139 93.7297 95.0788 93.9911 93.9457C94.032 93.683 93.6888 93.4695 93.1659 92.5992C92.8227 92.0326 89.2686 93.2971 88.092 89.3314C87.2259 89.8979 82.2828 92.6813 77.7318 87.1555C74.962 83.8056 71.4078 88.2886 64.5527 88.8551C64.2096 88.8962 66.244 86.8107 65.6803 84.3721C65.4597 83.4608 65.5087 83.6332 64.9449 84.0684C63.9073 84.7663 61.9545 85.809 60.5655 85.768C60.2224 85.768 62.3385 83.8549 60.7371 78.8875C60.6472 78.5837 58.9151 81.7201 55.7122 81.6709C56.2352 79.1009 56.3169 77.5738 55.843 76.49C55.3201 75.2255 53.8494 74.2238 51.7659 73.0908C51.8558 73.2222 52.2398 73.8297 52.3296 73.9201C56.0145 80.193 52.1989 83.4608 52.8035 83.6332C56.5701 84.8073 59.0867 82.4098 59.3481 82.5904C59.7812 82.8121 59.005 84.9387 58.1307 86.4248C56.7907 88.732 54.7971 89.9061 52.2398 91.2608C50.2462 92.3036 46.6021 93.6583 47.1659 96.5321C47.4273 97.7554 50.5893 101.713 50.8916 103.938C51.2348 106.467 48.6774 109.776 48.2444 111.993C48.0728 112.732 48.1137 113.52 48.2852 114.218C46.8145 114.086 45.4256 113.873 44.0366 113.52C43.7343 112.953 43.5136 112.255 43.4728 111.475C43.4319 110.868 43.5627 110.383 43.2114 110.736C42.5169 111.393 42.043 112.132 41.7407 112.871C37.925 111.607 34.4199 109.562 31.4703 106.902C37.1488 101.894 35.8007 93.6583 35.6291 91.7863C34.9755 84.8155 42.1737 85.2507 46.3733 73.2304C43.1623 79.6346 30.5144 82.5494 31.9851 92.4842C32.6795 97.271 33.2842 100.843 29.9914 105.465C29.4277 104.899 28.9048 104.291 28.4309 103.683C30.5144 99.5453 28.5616 93.8882 28.8639 89.5695C29.5584 79.5525 47.9748 77.0237 46.3325 64.7488C46.3325 64.6585 46.4224 64.6174 46.5041 64.6174C49.6252 65.7505 51.1858 68.189 51.9211 69.3221C52.0518 69.5438 52.2234 69.8476 52.3542 70.1021C53.0078 69.4453 54.0455 67.7539 54.4376 65.9229C54.7399 64.4861 54.8707 62.6551 54.3968 60.6517C54.3559 60.389 58.7762 63.1313 59.6423 64.2644C60.3368 65.1347 60.8597 66.744 61.0313 65.0937C61.1211 64.2644 61.2518 62.5237 60.9904 60.1262C61.5542 60.5203 62.4611 62.9589 64.6345 65.1758C66.3666 67.0067 74.5126 72.319 79.0227 77.3685C80.3218 78.8054 82.8792 79.5033 84.7421 78.8464C87.471 77.8858 87.3403 72.4421 93.2803 72.1794C94.9716 72.0891 97.3083 71.0463 98.2643 73.3125C98.6973 74.3142 97.6597 73.8379 96.8753 73.9201C95.8377 74.0514 95.3147 74.5276 95.3147 75.4883C95.3556 77.9268 91.6707 79.7167 91.6298 80.0616C92.5858 80.4064 96.7037 78.4934 98.6483 80.4557C99.0813 80.8909 99.1222 81.4574 99.4735 81.9336C101.639 85.07 100.773 86.901 100.601 86.8107L100.642 86.901L100.658 86.8846ZM66.4646 109.579C65.1247 110.449 63.7357 111.237 62.216 111.886C58.0572 112.108 53.8493 113.323 53.9392 112.929C55.892 103.388 52.0764 98.8146 51.5534 97.5584C49.6007 92.9851 57.4035 93.1575 61.7421 90.1524C62.3059 89.7583 62.5673 90.1935 62.9595 90.8503C63.7847 92.1558 65.5577 95.8588 68.5073 97.9525C72.0206 100.481 74.2266 100.613 75.6156 99.9559C73.8426 103.002 71.4977 105.662 68.7687 107.879C59.8384 106.221 57.8447 103.7 57.8039 104.611C57.763 105.572 57.8447 109.094 58.2369 109.316C58.5392 109.488 62.698 108.881 66.4728 109.579H66.4646Z" fill="#E5B582"/>
<path d="M69.1122 107.698C52.3382 104.258 51.8234 96.6798 51.6927 96.0722C51.8234 94.7257 54.9037 93.2888 57.6735 93.1082C58.1964 93.0671 57.3712 98.6421 72.6256 104.258C71.5389 105.523 70.3705 106.656 69.1122 107.698ZM46.8394 114.053C46.1041 113.963 45.3687 113.832 44.6252 113.659C44.0614 112.748 43.7591 111.697 43.9307 110.523C44.0614 110.219 44.3638 109.866 44.8867 108.782C45.4096 107.69 45.4504 106.779 45.5812 106.557C45.4913 110.301 46.1449 112.608 46.8803 114.004L46.8394 114.045V114.053ZM5.4476 83.2637C3.41314 83.1323 2.45717 84.175 2.49803 84.0929C3.62556 82.1799 5.05539 81.5641 6.52608 81.523C13.0707 81.2192 7.86605 93.453 25.163 90.448C25.5552 90.3576 24.5993 91.9259 24.297 92.361C23.8231 92.1393 22.7364 92.5334 21.135 92.6238C19.8359 92.6648 17.2376 92.8454 15.1541 91.7534C7.31045 87.7056 9.60637 83.5675 5.40673 83.3047L5.4476 83.2637ZM18.2753 96.1133C14.762 95.5878 10.4725 93.3709 9.17335 90.0128C9.56553 90.6696 15.0643 98.0263 25.686 94.7996C25.9066 94.7093 26.7236 95.4564 26.5929 95.4975C25.6369 95.8916 22.9979 96.844 18.3162 96.1051H18.2753V96.1133ZM47.7463 0.607544C47.7055 0.607544 48.833 2.56988 47.7872 3.78505C47.7872 3.78505 46.7005 2.91472 47.7463 0.607544ZM39.7719 5.04948C39.7719 5.04948 40.2948 4.74569 40.7687 4.61432C40.7687 4.61432 41.3733 5.78844 41.594 6.83939C41.594 6.79834 41.4632 6.66698 40.8586 6.53561C40.8178 6.53561 39.7311 5.05769 39.7311 5.05769H39.7719V5.04948ZM53.9478 6.83119C54.1684 5.78844 54.724 4.60611 54.773 4.60611C55.2959 4.77853 55.7698 5.04127 55.7698 5.04127C55.7698 5.04127 54.7321 6.51918 54.6423 6.51918C54.0377 6.65055 53.9478 6.78192 53.9069 6.82297H53.9478V6.83119ZM54.4707 10.3617C53.6455 9.4011 53.8661 7.44698 53.8661 7.44698C53.8661 7.44698 55.0835 8.14488 55.1243 8.14488C55.4266 7.48803 55.4675 6.83939 55.4675 6.83939L56.0721 6.79834C55.9822 7.70972 55.2959 8.84278 55.2959 8.84278C55.2959 8.84278 54.2991 8.23519 54.2583 8.23519C53.9559 9.06446 54.5197 10.37 54.5197 10.37H54.4788L54.4707 10.3617ZM40.2948 8.79352C40.2948 8.79352 39.6003 7.66045 39.5186 6.74908L40.1233 6.79013C40.1233 6.79013 40.1641 7.44698 40.4664 8.09561C40.5073 8.09561 41.7247 7.39771 41.7247 7.39771C41.7247 7.39771 41.8963 9.36005 41.1201 10.3125C41.1201 10.3125 41.6838 9.007 41.3815 8.17773C41.3407 8.17773 40.3439 8.7853 40.3439 8.7853H40.303L40.2948 8.79352ZM42.6316 7.57014L42.3293 7.17603C42.3293 7.17603 43.8899 7.08571 43.9798 7.08571C44.0696 7.08571 44.1513 7.56193 44.1513 7.56193H42.6316V7.57014ZM49.8707 1.99514C49.8298 2.99683 49.3478 3.8261 49.1353 4.03958C49.8707 3.56336 50.606 3.69473 50.606 3.69473C50.606 3.69473 49.217 4.95917 49.1762 4.95917C50.3037 4.78674 50.9492 5.18085 50.9492 5.18085L49.2579 5.91981C50.1648 6.18255 50.7286 6.88045 50.7286 6.88045C50.7286 6.88045 49.6011 6.83939 48.8249 6.83939L48.9964 8.49794L48.0405 6.83939H48.0813C48.0813 6.83939 48.0405 6.83939 48.0813 6.83939C49.6011 5.27117 48.3019 3.92463 48.3019 3.92463L49.9932 2.01156H49.8625L49.8707 1.99514ZM52.9019 7.61119H51.3822C51.3822 7.61119 51.4721 7.08571 51.5538 7.08571C51.6355 7.08571 53.2043 7.17603 53.2043 7.17603L52.9019 7.57014V7.61119ZM46.3982 4.95095C46.3574 4.9099 44.9684 3.68652 44.9684 3.68652C44.9684 3.68652 45.7037 3.59621 46.4391 4.03137C46.2185 3.85895 45.7446 3.02967 45.7037 1.98693L47.395 3.9C47.395 3.9 46.055 5.20549 47.6156 6.81476L46.6597 8.47331L46.8313 6.81476C46.0551 6.85582 44.9275 6.85582 44.9275 6.85582C44.9275 6.85582 45.4913 6.11685 46.3982 5.89517L44.6661 5.15622C44.6661 5.15622 45.3197 4.72106 46.4391 4.93453H46.3982V4.95095ZM41.978 8.17773C45.14 11.2731 47.1336 8.78531 47.7382 7.47982C48.735 9.44215 50.7694 10.8297 53.4984 8.13667C52.8448 10.4438 53.7599 11.1417 54.1929 11.4455C51.2025 10.1401 46.2593 9.04805 41.2344 11.4455C41.7083 11.2239 42.5336 10.2222 41.9289 8.17773H41.9698H41.978ZM61.3094 8.13667C60.2227 8.30909 60.092 8.83457 59.7488 9.83626C59.3567 11.4045 58.5314 11.618 57.9268 11.8396C55.8923 12.3159 56.3254 14.2371 56.2764 14.1468C55.108 12.8824 55.1897 11.4455 55.1897 11.4455C58.1392 12.0531 58.4007 10.3535 58.7439 9.61458C59.6998 7.70151 61.3421 8.08741 61.3012 8.13667H61.3094ZM37.6067 11.7986C37.0021 11.5769 36.1769 11.3634 35.7847 9.7952C35.4415 8.75246 35.3517 8.26804 34.2242 8.09561C34.1833 8.05456 35.8256 7.66046 36.7815 9.57353C37.0838 10.3125 37.3861 12.0121 40.3357 11.4045C40.3357 11.4045 40.4256 12.8413 39.249 14.1058C39.2082 14.1468 39.6412 12.2748 37.5986 11.7986H37.6067ZM12.7275 35.6176C12.6867 33.5239 13.8959 28.5646 19.2721 26.3806C19.6643 26.2082 11.9023 31.1674 14.8518 39.493C14.9417 39.7146 12.7684 36.0117 12.7275 35.6176ZM43.3261 41.9315C39.6412 47.3751 36.9123 46.1107 33.9627 49.7234C33.1375 40.4454 41.3733 43.0153 41.978 38.442C47.9588 40.6178 45.3606 44.9776 44.6252 48.5493C43.4568 47.5476 43.4078 41.9726 43.3261 41.9726V41.9315ZM8.39714 23.9421C-1.17871 34.2218 8.78932 38.442 9.99855 41.7098C3.92786 41.2747 3.41314 44.7559 3.15168 45.7166C1.41953 41.7509 7.79253 40.5357 6.31367 39.7064C3.58472 38.1382 -0.794691 30.256 8.39714 23.9831V23.9421ZM11.2568 70.7179C12.989 66.8014 16.4124 55.6022 13.5936 48.853C12.033 45.068 4.84296 44.5014 2.84935 50.1585C2.8085 50.2899 2.5879 50.2899 2.54705 50.1585C1.98328 48.1962 4.76127 44.2387 8.3563 44.2387C11.9513 44.2387 14.6394 47.2438 15.4238 50.7743C16.1183 54.0011 16.0774 63.5747 11.3058 70.7179H11.265H11.2568ZM2.62876 77.2535C1.3705 72.5078 6.31366 69.3713 8.78116 74.4701C9.81881 76.9087 10.211 79.0845 9.43479 79.0434C9.17333 76.8676 5.70904 70.8575 2.62876 77.2125V77.2535ZM93.3787 21.0273C93.9016 18.8926 96.5897 18.6298 97.1943 18.6298C97.7581 18.6298 98.665 17.0616 100.838 18.3671C100.879 18.3671 100.879 18.4574 100.838 18.4574C100.405 18.4574 99.8416 18.3671 99.2778 18.6298C98.5833 18.9747 98.0604 19.8039 97.7172 20.2884C93.2561 19.8121 93.8608 23.5562 93.6892 23.5151C93.5176 23.4741 92.9538 23.0389 93.4277 21.0766L93.3868 21.0355L93.3787 21.0273ZM103.437 25.2968C102.048 24.7713 101.222 24.9027 100.748 25.2968C100.185 25.732 99.3187 26.9964 98.8448 27.3413C97.5457 28.1705 92.1695 27.251 93.2561 31.6518C92.6515 31.9556 88.8359 26.0768 99.8416 24.681C100.275 24.0242 102.137 23.1128 103.486 25.3379L103.445 25.2968H103.437ZM100.054 34.4434C99.2778 35.6175 98.7549 38.0561 95.0291 38.0561C92.7332 38.0561 91.3442 36.4879 89.6529 38.1875C89.9961 37.1447 90.3883 36.3565 92.2103 36.0938C95.3723 37.4403 98.7549 35.5272 98.9265 33.7455C98.9265 33.6142 101.051 32.4811 101.092 32.5714C101.263 32.9163 100.315 34.0083 100.054 34.4434ZM78.5982 41.4553C78.729 40.7984 79.162 39.2302 79.2519 39.1481C80.8124 37.3664 85.9272 31.4794 87.8309 28.2198C87.8718 28.1787 87.9208 28.2198 87.9208 28.2609C86.6625 32.0459 79.6032 40.1088 78.6472 41.5046C78.6064 41.5456 78.5574 41.5046 78.5574 41.4635H78.5982V41.4553ZM89.7346 32.8342C87.5204 38.8033 87.9126 47.293 86.875 49.3375C86.3112 48.812 85.486 46.16 84.9222 45.3307C85.2654 44.5014 85.2245 38.6226 89.7346 32.8342ZM75.5588 43.0235C75.4689 42.9825 75.5588 42.8511 75.6487 42.8511C76.3023 42.9825 77.4217 43.3273 78.729 46.2503C78.9904 46.8579 84.3176 44.3783 83.3208 51.2587C83.3208 51.2998 83.2309 51.2998 83.2309 51.2587C82.0135 47.6871 77.9446 47.3423 77.9037 47.1617C77.773 45.5934 76.384 43.7625 75.5669 43.0235H75.5588ZM21.952 45.6345C21.9112 45.5934 24.5993 47.7282 30.4003 44.4111C30.2696 44.5425 27.843 46.8497 27.7123 46.94C26.5439 47.2848 23.1204 48.073 21.903 45.5934L21.9439 45.6345H21.952ZM28.5375 56.8255C29.7058 58.131 31.2256 61.1361 30.8334 63.5336C30.5311 65.4056 29.4934 66.7604 27.6224 66.9328C28.66 66.4976 30.9151 62.7043 28.8398 60.3971C28.709 60.2247 25.3755 64.0591 22.6874 60.742C27.7613 61.2675 28.5783 56.9076 28.4966 56.8255H28.5375ZM42.8849 68.0166C43.0565 67.6225 39.7229 63.1805 38.9385 61.3496C37.4188 57.9093 39.1591 54.5101 39.8945 53.6398C39.9844 53.5495 40.8504 52.9009 40.7197 52.9419C38.1215 53.1636 32.876 59.3462 32.6554 59.8224C33.26 55.2491 39.8536 50.331 40.8504 49.0255C40.9812 48.853 40.9403 52.6874 40.9403 52.7695C40.9403 52.8106 43.0238 55.2984 43.0238 55.3394C42.3702 55.5611 41.2916 55.6022 41.1609 55.7335C38.5137 59.3051 44.3229 64.4039 42.8522 68.0576L42.8931 68.0166H42.8849ZM45.1808 59.962C42.9257 57.2607 43.751 55.5611 43.751 55.5611C43.751 55.5611 48.9066 61.4399 50.99 63.8784C49.4295 63.8784 45.6138 60.5285 45.14 59.962H45.1808ZM51.2924 77.6887C50.2057 85.4395 40.9812 88.3625 40.3684 93.7568C39.2408 103.429 34.9105 105.555 33.3499 105.909C37.2472 100.678 36.5119 94.9309 36.3812 92.6238C36.2913 90.7928 36.2504 89.2246 36.9449 88.2229C38.7179 85.5216 45.8263 79.9055 46.913 71.933C44.9194 77.9432 32.7861 81.4245 31.2256 89.0522C29.7957 79.2569 47.0028 79.339 46.913 65.9722C47.0028 66.0132 52.4199 69.6751 51.3332 77.6887H51.2924ZM46.8721 97.0246C46.5698 97.156 44.8785 94.8488 44.8785 94.4958C44.8785 90.6204 48.6043 90.0128 51.6845 89.3149C57.4039 87.9683 57.7961 84.8319 59.0543 83.3047C58.8337 84.9633 57.2813 88.97 51.9869 90.9242C44.4863 93.6665 46.8313 97.0246 46.8313 97.0246H46.8721ZM51.5538 55.9552C50.4671 55.0438 50.0341 54.5184 49.7318 53.5577C49.6909 53.3853 49.6419 53.2539 49.601 53.0815C49.5112 52.6463 49.3805 52.0798 49.2579 51.4722C49.217 51.1684 49.1272 50.7743 49.0373 50.3802C49.0373 50.3802 48.9066 50.3392 48.8167 50.4213C47.6483 51.5954 47.4767 53.4674 47.4767 53.2539C46.6515 51.423 48.0813 46.981 48.5144 46.94C48.6043 46.94 49.0781 49.8547 49.119 49.904C49.119 49.9943 57.265 59.5761 57.6572 59.8799C56.0558 58.6154 53.1471 57.31 51.5865 55.9634H51.5456L51.5538 55.9552ZM56.0639 81.4738C56.2355 80.4721 58.8828 75.2009 52.0767 73.1564C58.0984 74.5933 57.6245 77.2535 57.6245 79.6017C57.6245 79.9958 56.1048 81.5148 56.0231 81.4738H56.0639ZM33.6114 76.7691C34.216 76.2436 36.038 73.0251 33.1375 68.2793C32.6636 68.501 30.8824 69.8065 28.9297 69.8065C26.8462 69.8065 24.8526 68.1972 24.7709 66.9738C27.5407 70.1514 32.7861 68.4107 33.7829 63.8784C33.8728 63.9195 42.1904 72.2368 33.6114 76.7691ZM81.7602 84.3885C81.4988 84.3475 81.2863 84.2571 81.0249 84.1668C81.2863 84.2571 81.4988 84.2982 81.7602 84.3885ZM81.7602 84.3885C81.4988 84.3475 81.2863 84.2571 81.0249 84.1668C81.2863 84.2571 81.4988 84.2982 81.7602 84.3885ZM65.8522 76.5063C61.1297 73.025 58.4824 69.1004 53.5474 68.8869C55.6309 66.4484 55.108 63.706 55.0181 61.8751C56.2764 62.5319 70.1009 80.9072 81.0249 84.1751C73.9165 82.1717 69.4963 79.1666 65.8522 76.4653V76.5063ZM90.903 79.6839C91.0746 76.416 94.1957 77.4588 94.1957 74.2813C94.5389 73.1482 96.2302 72.1876 97.7908 73.3699C97.8316 73.4109 97.7908 73.4602 97.7499 73.4602C95.454 73.4192 94.9311 74.4209 94.9801 75.1188C95.1108 78.3455 91.1236 79.1255 90.903 79.651V79.6921V79.6839ZM27.3691 32.3415C32.827 28.5072 31.0131 26.553 33.9545 23.6301C35.2945 23.8928 36.9041 23.8025 38.6362 23.7614C38.3748 24.1063 35.0412 22.8501 32.2632 28.4251C30.8334 31.3398 26.8053 32.7356 27.3691 32.3415ZM47.5258 15.7479C43.3179 16.4868 42.7623 17.2258 42.1986 17.6199C42.0678 17.7102 42.027 21.1505 41.4632 21.6677C41.1609 21.1423 39.7719 18.9254 39.0774 18.6627C39.5513 18.0551 42.1087 15.9614 47.5258 15.7479ZM58.4906 38.3106C56.4071 40.8806 50.0831 36.8327 48.5634 41.7509C48.5225 41.8412 44.8785 36.6521 47.7872 33.647C47.828 33.6059 48.6941 36.9559 48.6941 36.9559C48.9147 37.5635 56.5378 38.3517 57.3222 38.1793C57.6245 38.0889 59.0135 36.3483 59.1851 36.2169C59.4057 36.1266 59.1442 37.4814 58.4906 38.2614V38.3024V38.3106ZM23.1286 30.7322C25.5961 35.0428 28.8071 33.606 31.0621 33.5649C31.0621 33.6552 28.9787 34.3039 28.5456 34.7883C26.9442 34.9607 23.1286 35.6997 23.0877 30.7405H23.1286V30.7322ZM65.3865 39.5751C65.5172 43.1877 61.53 45.2814 58.9318 45.1501C57.3304 45.0597 55.6799 45.2404 54.6014 45.9793C54.2991 40.2319 61.4892 46.8086 65.4355 39.6243L65.3947 39.5833L65.3865 39.5751ZM68.4177 46.1928C70.9343 45.4128 74.66 47.3259 74.66 47.761C70.9343 46.1928 66.1627 51.5954 57.4121 49.2389C56.5868 49.0173 56.1129 48.5 55.1161 48.5821C57.7634 46.8414 56.3336 49.8465 68.4177 46.1846V46.1928ZM61.1787 29.5089C60.9581 27.2017 55.9332 27.8093 53.0327 24.9766C52.5098 24.5004 50.606 26.4135 50.5162 28.5072C49.6909 27.1114 49.5602 25.8469 49.5194 24.0652C49.5194 23.9339 48.3019 22.5873 46.3982 22.1029C48.4327 21.8402 48.8249 22.8008 52.4199 24.016C52.6405 24.1063 55.1897 23.0553 55.1897 23.1867C55.1897 23.5316 58.1392 26.8897 58.5233 27.0211C62.0774 28.1131 62.1673 25.5431 62.2899 25.6745C62.4206 25.8962 61.8977 29.7223 61.1623 29.5089H61.1787ZM61.9549 21.6677C63.4746 22.9322 64.2508 21.5364 64.2508 21.6677C63.9893 23.6301 62.1264 24.7631 62.0366 24.7139C60.3861 24.369 59.6998 21.1423 59.8714 21.1833C60.9581 21.5774 61.8242 21.5282 61.9957 21.6595H61.9549V21.6677ZM40.4174 25.108C40.7197 25.149 41.2426 27.8503 38.816 29.6813C38.9059 29.4185 39.1183 27.9406 39.1591 27.6369C39.249 26.9389 36.2586 29.3775 35.2128 29.9851C36.7733 24.1966 40.3275 25.108 40.4174 25.108ZM43.1055 29.6813C42.7133 33.3432 41.022 34.7801 37.5986 36.6028C37.5986 36.6028 33.5215 38.8689 33.1783 38.91C33.0885 33.1215 42.411 32.2923 43.1055 29.6731V29.6813ZM74.8316 56.0702C79.2927 59.8552 75.7385 64.6502 80.0362 68.0002C73.6632 66.0378 75.7876 60.2904 72.7563 57.6384C69.7659 55.0274 65.3456 56.1605 65.3456 56.1605C65.3456 56.1605 70.3297 52.2851 74.8398 56.0702H74.8316ZM81.2455 55.3312C82.2423 57.0308 83.4107 61.3824 88.8767 60.6435C88.1414 60.9062 83.6721 64.954 79.6849 56.5053C77.389 51.6693 70.8035 51.2341 69.2838 51.1028C76.9151 49.4935 79.3826 52.1948 81.2863 55.3312H81.2455ZM100.528 86.4248C100.528 86.4658 100.438 86.4658 100.438 86.4248C99.1389 83.1159 97.3169 85.5544 96.4508 85.1193C94.9801 84.3393 91.2053 84.29 90.4291 85.029C90.6497 82.8942 94.8085 82.0649 98.0604 83.198C98.714 83.239 100.879 84.1997 100.528 86.4248ZM65.2067 56.2836C65.2067 56.374 72.8789 67.6471 73.222 68.4764C69.578 65.4713 68.7609 65.2496 66.5467 63.2052C63.7279 60.6353 62.5595 56.5874 58.8337 52.7941C58.9645 52.7531 65.2476 56.103 65.2476 56.2754H65.2067V56.2836ZM94.5062 92.0408C94.5471 92.8701 95.2007 93.2642 94.2856 94.6518C94.2448 94.6928 94.1957 94.6518 94.1957 94.6107C94.3673 93.6993 93.8035 93.3052 93.2398 92.517C90.5108 92.2543 88.9094 91.425 88.5581 88.814C82.5773 92.8619 78.7208 87.0323 76.9886 86.3755C76.8171 86.2031 84.0561 89.1178 89.1219 86.2031C90.4618 89.9882 93.8444 88.2968 94.498 92.0819V92.0408H94.5062ZM56.7584 14.9104C56.7176 14.8694 55.5901 15.9532 55.4185 16.61C55.2878 16.4786 47.1009 12.4719 40.0742 16.5689C40.0742 16.61 39.9435 15.7889 38.6852 14.8694C38.6852 14.8694 39.5105 14.4342 41.071 15.0007C41.1119 15.0418 47.1826 12.2584 54.4217 15.0911C54.4217 15.1321 55.6391 14.4835 56.7584 14.9597V14.9186V14.9104ZM56.9709 31.8899C56.0639 31.3234 55.1488 30.7158 54.1112 30.7158C52.2075 30.6748 52.0277 32.1527 52.0277 32.1527C56.5787 29.7552 56.4888 36.0281 61.865 31.9803C61.9957 31.8489 59.6998 33.5485 57.0117 31.8899H56.9709ZM52.4607 21.6103H52.6323C53.1062 21.4789 53.4085 21.2654 53.9314 20.9124C55.2305 19.9517 54.2746 19.7793 52.5424 19.1717C51.4149 18.909 47.1662 18.5641 47.1254 18.909V18.95H47.0845C46.6924 19.0403 44.0941 18.6052 43.2689 18.6052C44.7396 18.0387 52.5016 15.6001 55.7943 19.262C55.8352 19.3031 55.1897 22.2671 52.5016 21.7006L52.4607 21.6103Z" fill="#857040"/>
</svg>
