<svg width="30" height="30" viewBox="0 0 30 30" fill="none" xmlns="http://www.w3.org/2000/svg">
<path fill-rule="evenodd" clip-rule="evenodd" d="M26.2406 8.70375C26.2381 8.61375 26.2119 8.52875 26.1881 8.4425C26.1694 8.37 26.1606 8.29625 26.1294 8.23C26.1006 8.165 26.0519 8.1125 26.0094 8.0525C25.9569 7.97625 25.9094 7.9 25.8419 7.8375C25.8306 7.82625 25.8256 7.81125 25.8131 7.80125C25.7681 7.7625 25.7131 7.74875 25.6644 7.7175C25.5894 7.66875 25.5156 7.61875 25.4306 7.58625C25.3469 7.55625 25.2644 7.54875 25.1781 7.53625C25.1181 7.5275 25.0644 7.5 25.0006 7.5H18.7506C18.0594 7.5 17.5006 8.06 17.5006 8.75C17.5006 9.44 18.0594 10 18.7506 10H22.2831L17.2381 15.885L11.8931 12.6788C11.3644 12.3588 10.6844 12.4763 10.2894 12.95L3.03937 21.45C2.59812 21.98 2.66937 22.7688 3.19937 23.21C3.43437 23.405 3.71687 23.5 3.99937 23.5C4.35812 23.5 4.71312 23.3475 4.96062 23.05L11.5256 15.3725L16.8569 18.5725C17.3806 18.8863 18.0531 18.7763 18.4494 18.3138L23.7506 12.1288V15C23.7506 15.69 24.3094 16.25 25.0006 16.25C25.6919 16.25 26.2506 15.69 26.2506 15V8.75C26.2506 8.73375 26.2419 8.72 26.2406 8.70375Z" fill="white"/>
</svg>
