<svg width="1440" height="835" viewBox="0 0 1440 835" fill="none" xmlns="http://www.w3.org/2000/svg">
<g clip-path="url(#clip0)">
<g opacity="0.4">
<path opacity="0.4" d="M93.668 47.95C798.915 93.4588 1090.52 -423.58 1541.36 -32.7064" stroke="#CBCCCE" stroke-width="1.58642" stroke-miterlimit="10"/>
<path opacity="0.4" d="M95.9325 56.7292C804.127 104.068 1093.47 -412.039 1546.1 -23.1827" stroke="#CBCCCE" stroke-width="1.58642" stroke-miterlimit="10"/>
<path opacity="0.4" d="M98.1662 65.5081C809.338 114.708 1096.44 -400.562 1550.85 -13.6593" stroke="#CBCCCE" stroke-width="1.58642" stroke-miterlimit="10"/>
<path opacity="0.4" d="M100.431 74.3183C814.581 125.318 1099.33 -388.991 1555.6 -4.1355" stroke="#CBCCCE" stroke-width="1.58642" stroke-miterlimit="10"/>
<path opacity="0.4" d="M102.602 83.0976C819.7 135.834 1102.28 -377.45 1560.25 5.54339" stroke="#CBCCCE" stroke-width="1.58642" stroke-miterlimit="10"/>
<path opacity="0.4" d="M104.929 91.8766C825.004 146.599 1105.35 -365.941 1565.12 14.9118" stroke="#CBCCCE" stroke-width="1.58642" stroke-miterlimit="10"/>
<path opacity="0.4" d="M107.193 100.656C830.216 157.208 1108.33 -354.401 1569.93 24.4355" stroke="#CBCCCE" stroke-width="1.58642" stroke-miterlimit="10"/>
<path opacity="0.4" d="M109.427 109.435C835.334 167.849 1111.43 -342.892 1574.61 33.9592" stroke="#CBCCCE" stroke-width="1.58642" stroke-miterlimit="10"/>
<path opacity="0.4" d="M111.692 118.214C840.67 178.458 1114.25 -331.352 1579.23 43.4828" stroke="#CBCCCE" stroke-width="1.58642" stroke-miterlimit="10"/>
<path opacity="0.4" d="M113.956 127.024C845.882 189.099 1117.23 -319.905 1584.11 52.9754" stroke="#CBCCCE" stroke-width="1.58642" stroke-miterlimit="10"/>
<path opacity="0.4" d="M116.19 135.803C851.125 199.708 1120.11 -308.303 1588.85 62.4992" stroke="#CBCCCE" stroke-width="1.58642" stroke-miterlimit="10"/>
<path opacity="0.4" d="M118.454 144.583C856.429 210.349 1123.22 -296.763 1593.6 72.0229" stroke="#CBCCCE" stroke-width="1.58642" stroke-miterlimit="10"/>
<path opacity="0.4" d="M120.719 153.362C861.548 220.989 1126.13 -285.254 1598.37 81.5464" stroke="#CBCCCE" stroke-width="1.58642" stroke-miterlimit="10"/>
<path opacity="0.4" d="M122.952 162.141C866.79 231.598 1129.11 -273.714 1603.12 91.0702" stroke="#CBCCCE" stroke-width="1.58642" stroke-miterlimit="10"/>
<path opacity="0.4" d="M125.217 170.92C871.94 242.239 1132.06 -262.174 1607.87 100.594" stroke="#CBCCCE" stroke-width="1.58642" stroke-miterlimit="10"/>
<path opacity="0.4" d="M127.42 179.73C877.214 252.848 1135.04 -250.665 1612.61 110.117" stroke="#CBCCCE" stroke-width="1.58642" stroke-miterlimit="10"/>
<path opacity="0.4" d="M129.715 188.509C882.457 263.489 1138.01 -239.249 1617.36 119.641" stroke="#CBCCCE" stroke-width="1.58642" stroke-miterlimit="10"/>
<path opacity="0.4" d="M131.98 197.288C887.668 274.129 1140.99 -227.709 1622.11 129.041" stroke="#CBCCCE" stroke-width="1.58642" stroke-miterlimit="10"/>
<path opacity="0.4" d="M134.213 206.068C892.88 284.739 1143.94 -216.076 1626.85 138.688" stroke="#CBCCCE" stroke-width="1.58642" stroke-miterlimit="10"/>
<path opacity="0.4" d="M136.478 214.847C898.122 295.503 1146.92 -204.536 1631.72 148.212" stroke="#CBCCCE" stroke-width="1.58642" stroke-miterlimit="10"/>
<path opacity="0.4" d="M138.712 223.626C903.334 305.989 1149.89 -193.026 1636.38 157.829" stroke="#CBCCCE" stroke-width="1.58642" stroke-miterlimit="10"/>
<path opacity="0.4" d="M140.976 232.436C908.546 316.629 1152.84 -181.487 1641.28 167.135" stroke="#CBCCCE" stroke-width="1.58642" stroke-miterlimit="10"/>
<path opacity="0.4" d="M143.241 241.215C913.788 327.238 1155.82 -169.946 1645.87 176.783" stroke="#CBCCCE" stroke-width="1.58642" stroke-miterlimit="10"/>
<path opacity="0.4" d="M145.474 249.994C919 337.755 1158.8 -158.437 1650.58 186.276" stroke="#CBCCCE" stroke-width="1.58642" stroke-miterlimit="10"/>
<path opacity="0.4" d="M147.739 258.773C924.211 348.519 1161.78 -146.897 1655.39 195.799" stroke="#CBCCCE" stroke-width="1.58642" stroke-miterlimit="10"/>
<path opacity="0.4" d="M149.972 267.552C929.423 359.129 1164.72 -135.357 1660.11 205.323" stroke="#CBCCCE" stroke-width="1.58642" stroke-miterlimit="10"/>
<path opacity="0.4" d="M152.237 276.332C934.666 369.769 1167.7 -123.848 1664.85 214.847" stroke="#CBCCCE" stroke-width="1.58642" stroke-miterlimit="10"/>
<path opacity="0.4" d="M154.502 285.018C939.878 380.378 1170.68 -112.308 1669.63 224.37" stroke="#CBCCCE" stroke-width="1.58642" stroke-miterlimit="10"/>
<path opacity="0.4" d="M156.735 293.921C945.089 391.019 1173.63 -100.799 1674.38 233.894" stroke="#CBCCCE" stroke-width="1.58642" stroke-miterlimit="10"/>
<path opacity="0.4" d="M159 302.7C950.332 401.628 1176.51 -89.2591 1679.06 243.418" stroke="#CBCCCE" stroke-width="1.58642" stroke-miterlimit="10"/>
<path opacity="0.4" d="M161.233 311.479C955.699 412.207 1179.58 -77.719 1683.87 252.941" stroke="#CBCCCE" stroke-width="1.58642" stroke-miterlimit="10"/>
<path opacity="0.4" d="M163.498 320.258C960.755 422.909 1182.56 -66.2098 1688.62 262.465" stroke="#CBCCCE" stroke-width="1.58642" stroke-miterlimit="10"/>
<path opacity="0.4" d="M165.762 329.037C966.122 433.518 1185.51 -54.6699 1693.36 271.989" stroke="#CBCCCE" stroke-width="1.58642" stroke-miterlimit="10"/>
<path opacity="0.4" d="M167.996 337.755C971.21 444.159 1188.36 -43.1606 1698.11 281.512" stroke="#CBCCCE" stroke-width="1.58642" stroke-miterlimit="10"/>
<path opacity="0.4" d="M170.261 346.627C976.421 454.768 1191.46 -31.6206 1702.86 291.036" stroke="#CBCCCE" stroke-width="1.58642" stroke-miterlimit="10"/>
<path opacity="0.4" d="M172.494 355.406C981.664 465.409 1194.57 -20.0807 1707.63 300.528" stroke="#CBCCCE" stroke-width="1.58642" stroke-miterlimit="10"/>
<path opacity="0.4" d="M174.759 364.185C986.876 476.018 1197.39 -8.57144 1712.38 310.083" stroke="#CBCCCE" stroke-width="1.58642" stroke-miterlimit="10"/>
<path opacity="0.4" d="M177.054 372.964C992.087 486.659 1200.37 2.96853 1717.13 319.607" stroke="#CBCCCE" stroke-width="1.58642" stroke-miterlimit="10"/>
<path opacity="0.4" d="M179.257 381.743C997.33 497.299 1203.34 14.5084 1721.93 329.099" stroke="#CBCCCE" stroke-width="1.58642" stroke-miterlimit="10"/>
<path opacity="0.4" d="M181.521 390.491C1002.54 507.909 1206.29 26.0176 1726.62 338.623" stroke="#CBCCCE" stroke-width="1.58642" stroke-miterlimit="10"/>
<path opacity="0.4" d="M183.786 399.333C1007.75 518.549 1209.27 37.5577 1731.24 348.147" stroke="#CBCCCE" stroke-width="1.58642" stroke-miterlimit="10"/>
<path opacity="0.4" d="M186.02 408.112C1013 529.096 1212.25 49.0668 1736.11 357.671" stroke="#CBCCCE" stroke-width="1.58642" stroke-miterlimit="10"/>
<path opacity="0.4" d="M188.284 416.891C1018.21 539.799 1215.1 60.6068 1740.89 367.256" stroke="#CBCCCE" stroke-width="1.58642" stroke-miterlimit="10"/>
<path opacity="0.4" d="M190.518 425.67C1023.42 550.408 1218.17 72.0228 1745.63 376.718" stroke="#CBCCCE" stroke-width="1.58642" stroke-miterlimit="10"/>
<path opacity="0.4" d="M192.782 434.449C1028.66 561.111 1221.15 83.656 1750.38 386.242" stroke="#CBCCCE" stroke-width="1.58642" stroke-miterlimit="10"/>
<path opacity="0.4" d="M195.047 443.228C1033.87 571.658 1224.1 95.1649 1755.13 395.734" stroke="#CBCCCE" stroke-width="1.58642" stroke-miterlimit="10"/>
<path opacity="0.4" d="M197.28 452.039C1039.08 582.33 1227.2 106.705 1759.87 405.289" stroke="#CBCCCE" stroke-width="1.58642" stroke-miterlimit="10"/>
<path opacity="0.4" d="M199.545 460.818C1044.3 592.939 1230.05 118.245 1764.62 414.812" stroke="#CBCCCE" stroke-width="1.58642" stroke-miterlimit="10"/>
<path opacity="0.4" d="M201.872 469.597C1049.54 603.548 1233.03 129.909 1769.37 424.336" stroke="#CBCCCE" stroke-width="1.58642" stroke-miterlimit="10"/>
<path opacity="0.4" d="M204.043 478.376C1054.75 614.189 1235.98 141.294 1774.14 433.922" stroke="#CBCCCE" stroke-width="1.58642" stroke-miterlimit="10"/>
<path opacity="0.4" d="M206.308 487.155C1059.96 624.798 1238.96 152.834 1778.89 443.383" stroke="#CBCCCE" stroke-width="1.58642" stroke-miterlimit="10"/>
<path opacity="0.4" d="M208.541 495.965C1065.21 635.563 1241.94 164.374 1783.64 452.907" stroke="#CBCCCE" stroke-width="1.58642" stroke-miterlimit="10"/>
<path opacity="0.4" d="M210.806 504.744C1070.42 646.079 1244.88 175.914 1788.38 462.4" stroke="#CBCCCE" stroke-width="1.58642" stroke-miterlimit="10"/>
<path opacity="0.4" d="M213.039 513.523C1075.63 656.689 1247.86 187.423 1793.28 471.923" stroke="#CBCCCE" stroke-width="1.58642" stroke-miterlimit="10"/>
<path opacity="0.4" d="M215.304 522.303C1080.81 667.329 1250.84 198.932 1797.88 481.447" stroke="#CBCCCE" stroke-width="1.58642" stroke-miterlimit="10"/>
<path opacity="0.4" d="M217.569 531.082C1085.99 677.938 1253.82 210.566 1802.59 490.971" stroke="#CBCCCE" stroke-width="1.58642" stroke-miterlimit="10"/>
<path opacity="0.4" d="M219.802 539.892C1091.29 688.579 1256.76 222.013 1807.37 500.494" stroke="#CBCCCE" stroke-width="1.58642" stroke-miterlimit="10"/>
<path opacity="0.4" d="M222.067 548.702C1096.54 699.188 1259.71 233.522 1812.15 510.018" stroke="#CBCCCE" stroke-width="1.58642" stroke-miterlimit="10"/>
<path opacity="0.4" d="M224.3 557.45C1101.75 709.829 1262.81 245.062 1816.89 519.542" stroke="#CBCCCE" stroke-width="1.58642" stroke-miterlimit="10"/>
<path opacity="0.4" d="M226.689 566.229C1107.08 720.469 1265.92 256.571 1821.76 529.003" stroke="#CBCCCE" stroke-width="1.58642" stroke-miterlimit="10"/>
<path opacity="0.4" d="M228.83 575.009C1112.2 731.079 1268.65 268.111 1826.45 538.589" stroke="#CBCCCE" stroke-width="1.58642" stroke-miterlimit="10"/>
<path opacity="0.4" d="M231.063 583.788C1117.41 741.719 1271.62 279.775 1831.13 548.113" stroke="#CBCCCE" stroke-width="1.58642" stroke-miterlimit="10"/>
<path opacity="0.4" d="M233.328 592.598C1122.63 752.328 1274.6 291.222 1835.88 557.636" stroke="#CBCCCE" stroke-width="1.58642" stroke-miterlimit="10"/>
<path opacity="0.4" d="M235.561 601.439C1127.87 763.031 1277.55 302.762 1840.62 567.315" stroke="#CBCCCE" stroke-width="1.58642" stroke-miterlimit="10"/>
<path opacity="0.4" d="M237.826 610.156C1133.08 773.609 1280.53 314.24 1845.4 576.622" stroke="#CBCCCE" stroke-width="1.58642" stroke-miterlimit="10"/>
<path opacity="0.4" d="M240.09 618.935C1138.29 784.219 1283.5 325.749 1850.12 586.207" stroke="#CBCCCE" stroke-width="1.58642" stroke-miterlimit="10"/>
<path opacity="0.4" d="M242.2 627.714C1143.38 794.859 1286.33 337.289 1854.77 595.731" stroke="#CBCCCE" stroke-width="1.58642" stroke-miterlimit="10"/>
<path opacity="0.4" d="M244.589 636.493C1148.75 805.469 1289.43 348.798 1859.64 605.224" stroke="#CBCCCE" stroke-width="1.58642" stroke-miterlimit="10"/>
<path opacity="0.4" d="M246.853 645.304C1153.96 816.109 1292.28 360.338 1864.39 614.747" stroke="#CBCCCE" stroke-width="1.58642" stroke-miterlimit="10"/>
<path opacity="0.4" d="M249.087 654.176C1159.17 826.811 1295.39 371.878 1869.13 624.364" stroke="#CBCCCE" stroke-width="1.58642" stroke-miterlimit="10"/>
<path opacity="0.4" d="M251.506 662.862C1164.57 837.359 1298.49 383.388 1873.94 633.795" stroke="#CBCCCE" stroke-width="1.58642" stroke-miterlimit="10"/>
<path opacity="0.4" d="M253.585 671.641C1169.62 847.999 1301.31 394.928 1878.63 643.318" stroke="#CBCCCE" stroke-width="1.58642" stroke-miterlimit="10"/>
<path opacity="0.4" d="M255.849 680.42C1174.84 858.609 1304.38 406.468 1883.4 652.842" stroke="#CBCCCE" stroke-width="1.58642" stroke-miterlimit="10"/>
<path opacity="0.4" d="M258.114 689.199C1180.08 869.125 1307.24 417.977 1888.15 662.366" stroke="#CBCCCE" stroke-width="1.58642" stroke-miterlimit="10"/>
<path opacity="0.4" d="M260.347 698.01C1185.29 879.859 1310.21 429.517 1892.89 671.889" stroke="#CBCCCE" stroke-width="1.58642" stroke-miterlimit="10"/>
<path opacity="0.4" d="M262.612 706.913C1190.5 890.623 1313.19 441.15 1897.64 681.537" stroke="#CBCCCE" stroke-width="1.58642" stroke-miterlimit="10"/>
<path opacity="0.4" d="M264.846 715.568C1195.74 901.108 1316.14 452.535 1902.39 690.936" stroke="#CBCCCE" stroke-width="1.58642" stroke-miterlimit="10"/>
<path opacity="0.4" d="M267.017 724.347C1200.77 911.749 1319.02 464.106 1907.04 700.46" stroke="#CBCCCE" stroke-width="1.58642" stroke-miterlimit="10"/>
<path opacity="0.4" d="M269.375 733.126C1206.23 922.358 1322.1 475.646 1911.88 709.984" stroke="#CBCCCE" stroke-width="1.58642" stroke-miterlimit="10"/>
<path opacity="0.4" d="M271.608 741.905C1211.57 932.999 1325.07 487.155 1916.66 719.507" stroke="#CBCCCE" stroke-width="1.58642" stroke-miterlimit="10"/>
<path opacity="0.4" d="M273.873 750.715C1216.62 943.639 1328.02 498.664 1921.4 729" stroke="#CBCCCE" stroke-width="1.58642" stroke-miterlimit="10"/>
<path opacity="0.4" d="M276.107 759.65C1221.83 954.404 1331 510.359 1926.15 738.679" stroke="#CBCCCE" stroke-width="1.58642" stroke-miterlimit="10"/>
<path opacity="0.4" d="M278.371 768.273C1227.08 964.889 1333.98 521.744 1930.9 748.047" stroke="#CBCCCE" stroke-width="1.58642" stroke-miterlimit="10"/>
<path opacity="0.4" d="M280.636 777.052C1232.29 975.591 1336.92 533.253 1935.64 757.571" stroke="#CBCCCE" stroke-width="1.58642" stroke-miterlimit="10"/>
<path opacity="0.4" d="M282.869 785.832C1237.5 986.139 1339.9 544.793 1940.39 767.219" stroke="#CBCCCE" stroke-width="1.58642" stroke-miterlimit="10"/>
<path opacity="0.4" d="M285.134 794.611C1242.71 996.779 1342.97 556.333 1945.14 776.618" stroke="#CBCCCE" stroke-width="1.58642" stroke-miterlimit="10"/>
<path opacity="0.4" d="M287.367 803.421C1247.95 1007.39 1345.86 567.842 1949.91 786.142" stroke="#CBCCCE" stroke-width="1.58642" stroke-miterlimit="10"/>
<path opacity="0.4" d="M289.632 812.2C1253.17 1018.03 1348.81 579.382 1954.66 795.666" stroke="#CBCCCE" stroke-width="1.58642" stroke-miterlimit="10"/>
<path opacity="0.4" d="M291.835 820.979C1258.32 1028.64 1351.72 590.892 1959.34 805.189" stroke="#CBCCCE" stroke-width="1.58642" stroke-miterlimit="10"/>
<path opacity="0.4" d="M294.13 829.759C1263.62 1039.28 1354.76 602.432 1964.15 814.713" stroke="#CBCCCE" stroke-width="1.58642" stroke-miterlimit="10"/>
<path opacity="0.4" d="M296.395 838.538C1268.83 1049.89 1357.71 613.972 1968.9 824.237" stroke="#CBCCCE" stroke-width="1.58642" stroke-miterlimit="10"/>
<path opacity="0.4" d="M298.628 847.317C1274.04 1060.53 1360.69 625.481 1973.64 833.76" stroke="#CBCCCE" stroke-width="1.58642" stroke-miterlimit="10"/>
<path opacity="0.4" d="M300.893 856.127C1279.29 1071.17 1363.66 637.021 1978.39 843.284" stroke="#CBCCCE" stroke-width="1.58642" stroke-miterlimit="10"/>
<path opacity="0.4" d="M303.158 864.906C1284.53 1081.78 1366.64 648.53 1983.14 852.715" stroke="#CBCCCE" stroke-width="1.58642" stroke-miterlimit="10"/>
<path opacity="0.4" d="M305.391 873.685C1289.71 1092.42 1369.59 660.07 1987.91 862.331" stroke="#CBCCCE" stroke-width="1.58642" stroke-miterlimit="10"/>
<path opacity="0.4" d="M307.655 882.464C1294.95 1103.03 1372.57 671.517 1992.66 871.824" stroke="#CBCCCE" stroke-width="1.58642" stroke-miterlimit="10"/>
<path opacity="0.4" d="M309.92 891.243C1300.16 1113.67 1375.55 683.119 1997.5 881.348" stroke="#CBCCCE" stroke-width="1.58642" stroke-miterlimit="10"/>
<path opacity="0.4" d="M312.154 900.022C1305.38 1124.28 1378.49 694.659 2002.15 890.871" stroke="#CBCCCE" stroke-width="1.58642" stroke-miterlimit="10"/>
<path opacity="0.4" d="M318.916 926.391C1320.92 1156.17 1387.43 729.248 2016.39 919.442" stroke="#CBCCCE" stroke-width="1.58642" stroke-miterlimit="10"/>
<path opacity="0.4" d="M321.181 935.17C1326.28 1166.81 1390.37 740.757 2021.17 928.966" stroke="#CBCCCE" stroke-width="1.58642" stroke-miterlimit="10"/>
</g>
<rect width="694" height="835" fill="url(#paint0_linear)"/>
</g>
<defs>
<linearGradient id="paint0_linear" x1="524.987" y1="417.5" x2="694" y2="417.5" gradientUnits="userSpaceOnUse">
<stop stop-color="white"/>
<stop offset="1" stop-color="white" stop-opacity="0"/>
</linearGradient>
<clipPath id="clip0">
<rect width="1440" height="835" fill="white"/>
</clipPath>
</defs>
</svg>
