<svg width="139" height="120" viewBox="0 0 139 120" fill="none" xmlns="http://www.w3.org/2000/svg">
<ellipse cx="86.7087" cy="52.043" rx="52.0667" ry="52.0237" fill="url(#paint0_linear)"/>
<mask id="mask0" style="mask-type:alpha" maskUnits="userSpaceOnUse" x="34" y="0" width="105" height="105">
<ellipse cx="86.7087" cy="52.043" rx="52.0667" ry="52.0237" fill="url(#paint1_linear)"/>
</mask>
<g mask="url(#mask0)">
<path d="M109.322 54.1126L73.3634 54.2884C72.3848 54.2994 71.571 53.541 71.549 52.6067L70.7133 26.7866C70.6803 25.8522 71.4501 25.1048 72.4178 25.1378L108.453 25.9951C108.892 26.0113 109.309 26.1922 109.621 26.5018C109.933 26.8114 110.117 27.227 110.136 27.6659L110.905 52.4748C110.914 52.6876 110.88 52.9 110.804 53.0991C110.728 53.2983 110.613 53.4799 110.465 53.6331C110.317 53.7863 110.139 53.9078 109.943 53.9902C109.746 54.0726 109.535 54.1142 109.322 54.1126Z" fill="#D8DEE8"/>
<path d="M109.967 53.9035L73.9974 54.0903C73.0297 54.0903 72.216 53.3319 72.183 52.3976L71.3473 26.5775C71.3143 25.6432 72.084 24.9067 73.0517 24.9287L109.087 25.7861C109.527 25.7997 109.946 25.9798 110.258 26.2899C110.57 26.6 110.753 27.0171 110.77 27.4569L111.55 52.2657C111.558 52.4781 111.522 52.6899 111.446 52.8883C111.37 53.0867 111.254 53.2678 111.106 53.4206C110.959 53.5735 110.782 53.695 110.586 53.778C110.39 53.8609 110.179 53.9036 109.967 53.9035Z" fill="#F4F7FA"/>
<path d="M111.573 44.5162L71.9202 44.3403L71.9422 45.0878L111.595 45.2417L111.573 44.5162Z" fill="white"/>
<path d="M95.1572 25.2693L95.784 44.9669H96.5208L95.894 25.2913L95.1572 25.2693Z" fill="white"/>
<path d="M90.9353 48.847H76.9148C76.8827 48.847 76.852 48.8342 76.8293 48.8115C76.8066 48.7889 76.7939 48.7581 76.7939 48.726L76.7499 47.473C76.7499 47.4571 76.753 47.4414 76.7591 47.4267C76.7652 47.412 76.7741 47.3987 76.7853 47.3875C76.7965 47.3762 76.8099 47.3673 76.8246 47.3613C76.8392 47.3552 76.855 47.3521 76.8708 47.3521L90.8913 47.374C90.9234 47.374 90.9542 47.3868 90.9769 47.4094C90.9996 47.4321 91.0123 47.4629 91.0123 47.4949L91.0563 48.737C91.0535 48.7672 91.0396 48.7952 91.0172 48.8155C90.9948 48.8359 90.9656 48.8471 90.9353 48.847Z" fill="#C281E8"/>
<path d="M94.7733 51.6282L77.003 51.6722C76.9877 51.6737 76.9722 51.672 76.9576 51.6672C76.9429 51.6623 76.9295 51.6545 76.9181 51.6441C76.9067 51.6338 76.8976 51.6211 76.8914 51.607C76.8852 51.5929 76.882 51.5776 76.8821 51.5622L76.8381 50.2982C76.8408 50.268 76.8548 50.24 76.8772 50.2197C76.8996 50.1993 76.9288 50.1881 76.959 50.1882L94.7183 50.1663C94.7486 50.1661 94.7778 50.1774 94.8002 50.1977C94.8226 50.2181 94.8365 50.2461 94.8393 50.2762L94.8833 51.5183C94.8833 51.5474 94.8717 51.5754 94.8511 51.596C94.8304 51.6166 94.8025 51.6282 94.7733 51.6282Z" fill="#D8DEE8"/>
<path d="M108.88 32.3374L98.1364 32.1616L98.0045 27.9626L108.748 28.1935L108.88 32.3374Z" fill="#D8DEE8"/>
<path d="M109.187 42.3397L98.454 42.2628L98.1901 33.9419L108.934 34.1068L109.187 42.3397Z" fill="#D8DEE8"/>
<path d="M83.3241 32.1284C85.0066 32.1504 86.4141 33.5024 86.4581 35.1402C86.4775 35.5794 86.3907 36.0167 86.2052 36.4153L89.801 38.0861C90.219 37.1813 90.4187 36.1911 90.3838 35.1952C90.2629 31.4579 87.0519 28.3582 83.1922 28.2703H83.1702L83.2911 32.1284H83.3241Z" fill="white"/>
<path d="M86.2048 36.4151C85.9634 36.9217 85.5807 37.3479 85.1028 37.6424C84.6248 37.9368 84.072 38.087 83.5107 38.0748C81.8172 38.0529 80.3987 36.7009 80.3437 35.0521C80.2887 33.4033 81.6083 32.1172 83.2907 32.1282L83.1698 28.27C79.299 28.2151 76.231 31.2159 76.352 34.9971C76.4729 38.7783 79.7499 41.8891 83.6316 41.922C86.4137 41.944 88.767 40.3722 89.8006 38.0858L86.2048 36.4151Z" fill="url(#paint2_linear)"/>
<path d="M159.033 87.1217C159.088 88.7705 157.846 90.1775 156.262 90.2544L18.6856 97.0255C14.7269 97.2673 12.9345 95.1458 12.8685 93.2332L10.3173 18.2901L10.8122 11.3652C10.7462 9.43063 11.6259 5.79229 13.7372 5.88023L153.953 11.629C155.537 11.695 156.867 13.1129 156.911 14.7727L159.033 87.1217Z" fill="#D8DEE8"/>
<path d="M157.143 22.5656L156.912 14.7724C156.868 13.1126 155.538 11.6946 155.713 11.0461L15.6186 5.4292C10.6922 5.63805 9.90049 8.48496 9.96647 10.4195L10.3184 18.2898L12.9465 17.8391L157.143 22.5656Z" fill="#F8924E"/>
<path d="M163.182 87.4071C163.237 89.0779 161.984 90.5068 160.389 90.5838L19.5357 96.9591C17.4134 97.047 15.6099 95.5411 15.544 93.6065L12.9488 17.839L13.7075 8.97953C13.6416 7.02296 14.5103 5.97872 16.6436 6.06666L158.036 11.123C159.631 11.1889 160.972 12.6069 161.027 14.2886L163.182 87.4071Z" fill="white"/>
<path d="M161.256 22.1697L161.025 14.2885C160.97 12.6067 159.629 11.1888 158.034 11.1228L16.4001 5.28608C14.2668 5.19815 12.5733 6.72603 12.6393 8.6826L12.9472 17.8389L161.256 22.1697Z" fill="#FFC244"/>
<path d="M38.6545 12.5628C38.6875 13.5191 37.8847 14.2665 36.8621 14.2226C35.8394 14.1786 34.9707 13.3872 34.9377 12.4419C34.9047 11.4966 35.7184 10.7381 36.7411 10.7821C37.7638 10.8261 38.6215 11.6175 38.6545 12.5628Z" fill="#9C73F4"/>
<path d="M73.4613 54.3873C72.3727 54.3873 71.471 53.5299 71.427 52.4857L70.5912 26.6656C70.5837 26.4196 70.6267 26.1748 70.7175 25.946C70.8083 25.7173 70.9449 25.5095 71.1191 25.3356C71.3044 25.1499 71.526 25.0043 71.77 24.9079C72.0141 24.8114 72.2753 24.7662 72.5376 24.775L108.562 25.6324C109.06 25.651 109.532 25.8556 109.887 26.2056C110.241 26.5556 110.451 27.0257 110.475 27.523L111.245 52.3318C111.254 52.5744 111.214 52.8163 111.127 53.0429C111.04 53.2696 110.908 53.4764 110.739 53.6509C110.398 54.0023 109.932 54.2039 109.442 54.2114L73.4723 54.3873H73.4613ZM72.4826 25.2257C72.2887 25.2237 72.0963 25.2607 71.9169 25.3343C71.7374 25.4079 71.5746 25.5168 71.438 25.6544C71.3062 25.784 71.2037 25.9404 71.1373 26.1129C71.071 26.2854 71.0422 26.4701 71.0531 26.6546L71.8888 52.4637C71.9108 53.2771 72.6146 53.9366 73.4613 53.9366H73.4723L109.442 53.7498C109.623 53.7499 109.803 53.7135 109.97 53.6428C110.137 53.5722 110.288 53.4686 110.414 53.3384C110.54 53.2081 110.639 53.0539 110.704 52.8847C110.77 52.7156 110.8 52.535 110.794 52.3538L110.025 27.545C110.008 27.1617 109.847 26.7989 109.573 26.5297C109.3 26.2605 108.935 26.1048 108.551 26.094L72.5266 25.2257H72.4826Z" fill="#F4F7FA"/>
<path d="M150.832 53.9253L117.93 54.1011C117.499 54.0958 117.086 53.9252 116.777 53.6245C116.468 53.3238 116.287 52.916 116.27 52.4853L115.511 27.8084C115.502 27.5999 115.536 27.3919 115.611 27.1971C115.686 27.0024 115.8 26.8252 115.947 26.6767C116.093 26.5281 116.269 26.4114 116.463 26.3337C116.656 26.2561 116.864 26.2193 117.073 26.2255L150.029 27.017C150.854 27.0389 151.546 27.7534 151.568 28.6108L152.283 52.3644C152.305 53.2218 151.656 53.9253 150.832 53.9253Z" fill="#D8DEE8"/>
<path d="M151.415 53.6945L118.514 53.8594C118.082 53.8595 117.667 53.6903 117.359 53.3882C117.05 53.0861 116.873 52.6751 116.864 52.2436L116.094 27.5777C116.085 27.3692 116.119 27.1611 116.194 26.9664C116.269 26.7717 116.383 26.5945 116.53 26.446C116.676 26.2974 116.852 26.1807 117.046 26.103C117.24 26.0254 117.447 25.9886 117.656 25.9948L150.612 26.7862C151.448 26.7972 152.13 27.5227 152.163 28.3801L152.866 52.1227C152.888 52.9911 152.251 53.6945 151.415 53.6945Z" fill="#F4F7FA"/>
<path d="M116.611 44.5273L116.633 45.2418L152.976 45.3847L152.954 44.6922L116.611 44.5273Z" fill="white"/>
<path d="M130.07 48.8584H120.976C120.947 48.8584 120.919 48.8468 120.898 48.8262C120.878 48.8056 120.866 48.7776 120.866 48.7485L120.833 47.5504C120.832 47.5365 120.833 47.5224 120.837 47.5091C120.842 47.4958 120.849 47.4836 120.858 47.4732C120.867 47.4628 120.879 47.4545 120.892 47.4489C120.904 47.4432 120.918 47.4403 120.932 47.4404H130.026C130.055 47.4429 130.081 47.4553 130.101 47.4754C130.121 47.4955 130.134 47.522 130.136 47.5504L130.169 48.7485C130.169 48.7758 130.159 48.8022 130.141 48.8226C130.123 48.8429 130.097 48.8557 130.07 48.8584Z" fill="#FFC244"/>
<path d="M141.101 51.5075L121.065 51.5625C121.036 51.5625 121.008 51.5509 120.988 51.5303C120.967 51.5097 120.955 51.4817 120.955 51.4525L120.911 50.2434C120.911 50.2143 120.923 50.1863 120.944 50.1657C120.964 50.1451 120.992 50.1335 121.021 50.1335L141.057 50.1115C141.072 50.1098 141.087 50.1114 141.101 50.1163C141.115 50.1212 141.128 50.1292 141.139 50.1398C141.149 50.1504 141.157 50.1632 141.162 50.1774C141.167 50.1915 141.169 50.2066 141.167 50.2215L141.2 51.3976C141.201 51.4115 141.2 51.4255 141.196 51.4388C141.191 51.4521 141.184 51.4644 141.175 51.4748C141.166 51.4851 141.154 51.4934 141.141 51.4991C141.129 51.5047 141.115 51.5076 141.101 51.5075Z" fill="#D8DEE8"/>
<path d="M121.438 40.944C121.379 40.9407 121.322 40.9217 121.273 40.889C121.195 40.845 121.137 40.7718 121.112 40.6853C121.087 40.5989 121.098 40.5061 121.141 40.4273C123.483 36.3383 126.156 34.1289 129.103 33.8541C130.961 33.6893 132.391 34.3488 133.776 34.9973C135.162 35.6458 136.316 36.1844 137.988 36.2284C141.056 36.3053 144.19 34.4147 147.28 30.5785C147.339 30.511 147.422 30.468 147.511 30.4579C147.601 30.4477 147.69 30.4711 147.764 30.5236C147.832 30.5831 147.874 30.6665 147.882 30.7566C147.891 30.8467 147.864 30.9364 147.808 31.0072C144.586 35.0083 141.276 36.9978 137.966 36.9099C136.151 36.8659 134.799 36.2284 133.49 35.6129C132.182 34.9973 130.84 34.3818 129.158 34.5356C126.453 34.7885 123.956 36.8879 121.735 40.7681C121.705 40.8204 121.662 40.8641 121.61 40.8949C121.558 40.9257 121.499 40.9426 121.438 40.944Z" fill="url(#paint3_linear)"/>
<path d="M139.724 36.5909C139.733 36.7638 139.706 36.9367 139.646 37.0991C139.586 37.2615 139.494 37.4099 139.374 37.5354C139.255 37.6609 139.111 37.7607 138.952 37.8289C138.793 37.8971 138.621 37.9321 138.448 37.9319C137.723 37.9319 137.107 37.3053 137.085 36.5579C137.076 36.384 137.102 36.2102 137.163 36.0471C137.224 35.8839 137.317 35.7349 137.438 35.6093C137.558 35.4837 137.703 35.384 137.864 35.3165C138.025 35.2491 138.197 35.2151 138.371 35.2169C138.729 35.2308 139.069 35.3806 139.32 35.6359C139.571 35.8913 139.716 36.2328 139.724 36.5909Z" fill="white"/>
<path d="M138.462 38.108H138.451C137.626 38.097 136.944 37.4045 136.911 36.5582C136.904 36.357 136.938 36.1566 137.012 35.9693C137.086 35.7821 137.198 35.6121 137.34 35.47C137.471 35.3338 137.628 35.2257 137.802 35.152C137.976 35.0783 138.163 35.0406 138.352 35.0413H138.374C138.779 35.0552 139.163 35.2237 139.447 35.5119C139.731 35.8002 139.894 36.1864 139.902 36.5911C139.909 36.7912 139.875 36.9904 139.803 37.1773C139.731 37.3641 139.623 37.5348 139.485 37.6793C139.351 37.8148 139.192 37.9224 139.016 37.996C138.841 38.0696 138.652 38.1076 138.462 38.108ZM138.352 35.382C138.208 35.3816 138.065 35.4106 137.933 35.4673C137.801 35.524 137.681 35.6072 137.582 35.7118C137.474 35.8213 137.39 35.9521 137.335 36.096C137.28 36.2398 137.256 36.3934 137.263 36.5472C137.266 36.8643 137.391 37.1682 137.612 37.3955C137.833 37.6228 138.134 37.756 138.451 37.7673C138.597 37.7692 138.741 37.7409 138.876 37.6842C139.01 37.6274 139.131 37.5434 139.232 37.4375C139.339 37.327 139.424 37.1963 139.48 37.0529C139.537 36.9095 139.565 36.7563 139.562 36.6021C139.553 36.2848 139.425 35.9824 139.203 35.7559C138.98 35.5295 138.68 35.3958 138.363 35.382H138.352Z" fill="#A67FF7"/>
<path d="M132.183 30.6774L120.57 30.4576L120.504 28.446L132.117 28.6879L132.183 30.6774Z" fill="#D8DEE8"/>
<path d="M64.7621 87.8689L25.3397 89.3748C24.2731 89.4078 23.3824 88.6493 23.3494 87.671L22.4367 60.6418C22.4037 59.6636 23.2394 58.8611 24.3061 58.8502L63.8054 58.4874C64.795 58.4764 65.6198 59.2349 65.6528 60.1802L66.4995 86.0992C66.5215 87.0445 65.7517 87.8359 64.7621 87.8689Z" fill="#D8DEE8"/>
<path d="M65.3563 87.638L25.934 89.1329C24.8674 89.1768 23.9657 88.4184 23.9327 87.4291L23.02 60.4109C22.987 59.4216 23.8227 58.6192 24.9004 58.6082L64.3887 58.2565C65.3783 58.2455 66.2031 59.0039 66.2361 59.9382L67.0828 85.8682C67.1158 86.8026 66.335 87.594 65.3563 87.638Z" fill="#F4F7FA"/>
<path d="M67.0697 77.3494L23.6117 78.5585L23.6447 79.3389L67.0917 78.0968L67.0697 77.3494Z" fill="white"/>
<path d="M63.1342 69.7098L28.2094 70.4243L27.9125 61.7517L62.8593 61.334L63.1342 69.7098Z" fill="#D8DEE8"/>
<path d="M63.287 74.2828L28.3622 75.1511L28.2632 72.0954L63.188 71.3259L63.287 74.2828Z" fill="#D8DEE8"/>
<path d="M39.7471 82.7574L28.6736 83.1201C28.6405 83.1202 28.6085 83.1079 28.584 83.0854C28.5595 83.063 28.5444 83.0322 28.5417 82.9992L28.4977 81.6802C28.4977 81.6481 28.5104 81.6173 28.5331 81.5947C28.5558 81.572 28.5866 81.5593 28.6186 81.5593L39.7031 81.2075C39.7355 81.2096 39.7663 81.2228 39.7903 81.2448C39.8143 81.2668 39.8301 81.2963 39.835 81.3284L39.879 82.6365C39.8791 82.6533 39.8756 82.67 39.8689 82.6854C39.8621 82.7009 39.8522 82.7147 39.8398 82.7261C39.8274 82.7375 39.8127 82.7462 39.7967 82.7515C39.7808 82.7569 39.7638 82.7589 39.7471 82.7574Z" fill="url(#paint4_linear)"/>
<path d="M50.1263 85.3297L28.7712 86.0771C28.7553 86.0786 28.7392 86.077 28.724 86.0722C28.7087 86.0675 28.6945 86.0598 28.6823 86.0496C28.67 86.0394 28.6599 86.0269 28.6525 86.0127C28.6451 85.9986 28.6406 85.9831 28.6392 85.9672L28.5952 84.6482C28.5973 84.6157 28.6105 84.5849 28.6325 84.5609C28.6545 84.5369 28.684 84.5212 28.7162 84.5162L50.0823 83.8018C50.1138 83.8013 50.1444 83.8122 50.1686 83.8323C50.1928 83.8525 50.209 83.8806 50.2143 83.9117L50.2473 85.2087C50.249 85.225 50.2471 85.2415 50.2416 85.257C50.2361 85.2724 50.2273 85.2865 50.2157 85.2981C50.2041 85.3097 50.19 85.3185 50.1746 85.324C50.1591 85.3295 50.1426 85.3314 50.1263 85.3297Z" fill="#D8DEE8"/>
<path d="M65.3458 52.6284C65.3788 53.5737 64.609 54.3322 63.6193 54.3431L24.109 54.541C23.0424 54.552 22.1407 53.7606 22.1077 52.7713L21.195 25.6871C21.162 24.6979 21.9977 23.9284 23.0754 23.9504L62.6517 24.8957C63.6413 24.9177 64.4771 25.7091 64.4991 26.6544L65.3458 52.6284Z" fill="#D8DEE8"/>
<path d="M65.9944 52.4199C66.0274 53.3652 65.2467 54.1346 64.257 54.1346L24.7467 54.3325C23.6801 54.3435 22.7894 53.5521 22.7564 52.5628L21.8327 25.4786C21.7997 24.5004 22.6464 23.7199 23.7131 23.7419L63.3003 24.6872C64.29 24.7202 65.1147 25.5006 65.1477 26.4459L65.9944 52.4199Z" fill="#F4F7FA"/>
<path d="M65.9817 44.3297L22.4357 44.1208L22.4687 44.9123L66.0147 45.0772L65.9817 44.3297Z" fill="white"/>
<path d="M42.6924 24.0054L43.3742 44.7472L44.1989 44.7582L43.5061 24.0274L42.6924 24.0054Z" fill="white"/>
<path d="M39.4041 36.5032L27.0551 36.3493L26.7252 26.4346L39.0742 26.6984L39.4041 36.5032Z" fill="#D8DEE8"/>
<path d="M39.58 41.8563L27.2419 41.7684L27.121 38.2729L39.47 38.3939L39.58 41.8563Z" fill="#D8DEE8"/>
<path d="M42.5368 51.7599L27.6145 51.8039C27.5978 51.8054 27.5808 51.8034 27.5649 51.7981C27.5489 51.7927 27.5342 51.784 27.5218 51.7726C27.5094 51.7612 27.4995 51.7474 27.4927 51.7319C27.486 51.7165 27.4825 51.6998 27.4826 51.683L27.4386 50.364C27.4369 50.3477 27.4388 50.3312 27.4443 50.3157C27.4497 50.3003 27.4586 50.2862 27.4702 50.2746C27.4818 50.263 27.4958 50.2542 27.5113 50.2487C27.5268 50.2433 27.5433 50.2413 27.5596 50.243H42.4818C42.5588 50.243 42.6137 50.287 42.6137 50.353L42.6577 51.65C42.6578 51.6654 42.6546 51.6807 42.6484 51.6948C42.6422 51.7089 42.6331 51.7215 42.6217 51.7319C42.6103 51.7423 42.5969 51.7501 42.5822 51.7549C42.5676 51.7598 42.5521 51.7615 42.5368 51.7599Z" fill="#D8DEE8"/>
<path d="M50.994 41.6914L47.5521 41.6694L47.0682 26.8633L50.5101 26.9402L50.994 41.6914Z" fill="white"/>
<path d="M56.7044 41.7353L53.3065 41.7023L52.8226 26.9951L56.2205 27.0611L56.7044 41.7353Z" fill="white"/>
<path d="M62.3545 41.7685L58.9896 41.7465L58.5057 27.1162L61.8706 27.1822L62.3545 41.7685Z" fill="white"/>
<path d="M50.9932 41.6914L47.5513 41.6695L47.2984 33.9861L50.7403 34.0301L50.9932 41.6914Z" fill="url(#paint5_linear)"/>
<path d="M56.7008 41.7355L53.3029 41.7026L52.929 30.4028L56.3269 30.4688L56.7008 41.7355Z" fill="url(#paint6_linear)"/>
<path d="M62.352 41.7685L58.9871 41.7465L58.6572 31.7988L62.0221 31.8648L62.352 41.7685Z" fill="url(#paint7_linear)"/>
<path d="M151.742 84.549L118.907 85.8021C118.697 85.8094 118.487 85.7751 118.29 85.701C118.093 85.6269 117.913 85.5146 117.759 85.3706C117.606 85.2265 117.483 85.0535 117.397 84.8615C117.31 84.6696 117.263 84.4625 117.258 84.2522L116.488 59.6303C116.48 59.4197 116.515 59.2097 116.59 59.0127C116.665 58.8158 116.779 58.6357 116.924 58.4832C117.069 58.3306 117.244 58.2086 117.437 58.1244C117.63 58.0401 117.838 57.9953 118.049 57.9925L150.94 57.6957C151.764 57.6847 152.457 58.3772 152.479 59.2346L153.194 82.9442C153.216 83.8016 152.567 84.527 151.742 84.549Z" fill="#D8DEE8"/>
<path d="M152.339 84.3184L119.504 85.5715C119.292 85.5788 119.081 85.5442 118.883 85.4696C118.684 85.395 118.503 85.2818 118.348 85.1367C118.194 84.9916 118.07 84.8174 117.983 84.6242C117.897 84.4309 117.849 84.2224 117.843 84.0107L117.085 59.3887C117.076 59.1792 117.109 58.97 117.183 58.7737C117.257 58.5773 117.369 58.3979 117.514 58.2461C117.659 58.0942 117.833 57.9731 118.025 57.8899C118.218 57.8067 118.425 57.7632 118.635 57.7619L151.537 57.4541C152.361 57.4541 153.043 58.1466 153.076 59.004L153.78 82.7026C153.802 83.56 153.164 84.2854 152.339 84.3184Z" fill="#F4F7FA"/>
<path d="M117.59 75.9317L117.612 76.6461L153.878 75.6019L153.856 74.9094L117.59 75.9317Z" fill="white"/>
<path d="M128.123 79.8887L121.943 80.0865C121.928 80.0883 121.913 80.0867 121.899 80.0818C121.885 80.0769 121.872 80.0688 121.861 80.0582C121.851 80.0477 121.843 80.0348 121.838 80.0207C121.833 80.0065 121.831 79.9915 121.833 79.9766L121.789 78.7785C121.789 78.7493 121.801 78.7214 121.821 78.7008C121.842 78.6801 121.87 78.6686 121.899 78.6686L128.079 78.4707C128.108 78.4707 128.136 78.4823 128.157 78.5029C128.178 78.5235 128.189 78.5515 128.189 78.5806L128.222 79.7787C128.224 79.7926 128.222 79.8067 128.218 79.82C128.214 79.8333 128.207 79.8455 128.197 79.8559C128.188 79.8663 128.176 79.8746 128.164 79.8802C128.151 79.8859 128.137 79.8888 128.123 79.8887Z" fill="#FFC244"/>
<path d="M134.667 82.3398L122.021 82.7905C121.992 82.7905 121.964 82.7789 121.943 82.7583C121.923 82.7377 121.911 82.7097 121.911 82.6806L121.878 81.4825C121.876 81.4686 121.878 81.4545 121.882 81.4412C121.886 81.4279 121.893 81.4157 121.903 81.4053C121.912 81.3949 121.924 81.3866 121.936 81.381C121.949 81.3753 121.963 81.3725 121.977 81.3725L134.623 80.9438C134.65 80.9437 134.677 80.9538 134.697 80.9721C134.717 80.9904 134.73 81.0156 134.733 81.0428L134.766 82.2299C134.767 82.2438 134.766 82.2578 134.762 82.2712C134.757 82.2845 134.75 82.2967 134.741 82.3071C134.732 82.3175 134.72 82.3258 134.707 82.3314C134.695 82.337 134.681 82.3399 134.667 82.3398Z" fill="#D8DEE8"/>
<path d="M122.878 73.2492L120.964 73.3042L120.579 60.9382L122.493 60.9163L122.878 73.2492Z" fill="white"/>
<path d="M125.707 73.1835L123.804 73.2275L123.43 60.9055L125.333 60.8726L125.707 73.1835Z" fill="white"/>
<path d="M128.52 73.1066L126.629 73.1616L126.255 60.8616L128.146 60.8396L128.52 73.1066Z" fill="white"/>
<path d="M131.325 73.0407L129.444 73.0846L129.07 60.8286L130.951 60.8066L131.325 73.0407Z" fill="white"/>
<path d="M134.106 72.9638L132.237 73.0187L131.863 60.7957L133.733 60.7737L134.106 72.9638Z" fill="white"/>
<path d="M136.864 72.8976L135.006 72.9415L134.643 60.7625L136.501 60.7405L136.864 72.8976Z" fill="white"/>
<path d="M139.616 72.8316L137.768 72.8756L137.406 60.7295L139.253 60.7075L139.616 72.8316Z" fill="white"/>
<path d="M122.881 73.2499L120.967 73.3048L120.769 66.8855L122.683 66.8416L122.881 73.2499Z" fill="#FFC244"/>
<path d="M125.706 73.184L123.803 73.228L123.517 63.7639L125.42 63.731L125.706 73.184Z" fill="#FFC244"/>
<path d="M128.52 73.107L126.629 73.162L126.376 64.8081L128.267 64.7751L128.52 73.107Z" fill="#FFC244"/>
<path d="M131.326 73.0409L129.446 73.0849L129.182 64.6651L131.062 64.6321L131.326 73.0409Z" fill="#FFC244"/>
<path d="M134.107 72.9643L132.238 73.0192L131.952 63.6321L133.821 63.6101L134.107 72.9643Z" fill="#FFC244"/>
<path d="M136.867 72.898L135.009 72.942L134.756 64.6651L136.614 64.6321L136.867 72.898Z" fill="#FFC244"/>
<path d="M139.617 72.8324L137.77 72.8764L137.506 63.929L139.353 63.907L139.617 72.8324Z" fill="#FFC244"/>
<path d="M110.376 86.132L74.4834 87.495C74.2583 87.5099 74.0325 87.4796 73.8192 87.406C73.606 87.3324 73.4096 87.217 73.2416 87.0665C73.0736 86.9159 72.9374 86.7334 72.8409 86.5295C72.7445 86.3256 72.6898 86.1045 72.68 85.8792L71.8443 60.1141C71.8113 59.1798 72.581 58.4103 73.5487 58.3993L109.507 58.0696C109.942 58.0692 110.36 58.2374 110.674 58.5386C110.988 58.8399 111.173 59.2509 111.19 59.6854L111.959 84.4393C111.971 84.8729 111.812 85.2938 111.515 85.6106C111.219 85.9275 110.81 86.1148 110.376 86.132Z" fill="#D8DEE8"/>
<path d="M110.971 85.8904L75.0789 87.2644C74.1113 87.2973 73.2975 86.5719 73.2645 85.6375L72.4288 59.8724C72.4243 59.6474 72.4653 59.4239 72.5494 59.2152C72.6335 59.0064 72.7589 58.8168 72.918 58.6577C73.0772 58.4986 73.2669 58.3733 73.4757 58.2892C73.6845 58.2052 73.9082 58.1642 74.1333 58.1687L110.092 57.8389C110.528 57.8358 110.947 58.003 111.262 58.3048C111.576 58.6067 111.76 59.0193 111.774 59.4547L112.544 84.2086C112.551 84.4223 112.516 84.6353 112.441 84.8355C112.366 85.0357 112.252 85.2191 112.106 85.3753C111.96 85.5315 111.785 85.6574 111.59 85.7457C111.395 85.8341 111.185 85.8833 110.971 85.8904Z" fill="#F4F7FA"/>
<path d="M112.564 76.0742L72.9874 77.1844L73.0204 77.9319L112.586 76.7887L112.564 76.0742Z" fill="white"/>
<path d="M89.8781 81.1305L77.969 81.5152C77.9536 81.5167 77.9381 81.515 77.9235 81.5102C77.9089 81.5054 77.8954 81.4975 77.884 81.4871C77.8726 81.4768 77.8635 81.4641 77.8573 81.45C77.8511 81.4359 77.8479 81.4207 77.848 81.4053L77.804 80.1412C77.804 80.112 77.8156 80.0841 77.8362 80.0635C77.8568 80.0428 77.8848 80.0313 77.914 80.0313L89.8342 79.6575C89.8495 79.656 89.865 79.6577 89.8796 79.6625C89.8943 79.6674 89.9077 79.6752 89.9191 79.6856C89.9305 79.6959 89.9396 79.7086 89.9458 79.7227C89.952 79.7368 89.9552 79.752 89.9551 79.7675L89.9881 81.0095C89.9896 81.0249 89.9879 81.0404 89.9831 81.055C89.9783 81.0696 89.9704 81.0831 89.9601 81.0945C89.9497 81.1059 89.937 81.115 89.9229 81.1212C89.9088 81.1274 89.8936 81.1305 89.8781 81.1305Z" fill="#C281E8"/>
<path d="M99.5222 83.5818L78.0571 84.3402C78.0418 84.3418 78.0263 84.3401 78.0116 84.3353C77.997 84.3304 77.9835 84.3226 77.9721 84.3122C77.9607 84.3018 77.9516 84.2892 77.9454 84.2751C77.9392 84.261 77.9361 84.2457 77.9361 84.2303L77.8922 82.9772C77.8922 82.9452 77.9049 82.9144 77.9276 82.8917C77.9503 82.8691 77.981 82.8563 78.0131 82.8563L99.4782 82.1309C99.5074 82.1309 99.5354 82.1424 99.556 82.1631C99.5766 82.1837 99.5882 82.2116 99.5882 82.2408L99.6322 83.4719C99.6297 83.5002 99.6173 83.5267 99.5972 83.5468C99.5771 83.5669 99.5505 83.5793 99.5222 83.5818Z" fill="#D8DEE8"/>
<path d="M76.5171 69.9628C76.464 69.9625 76.4116 69.9513 76.3631 69.9298C76.3228 69.911 76.2866 69.8843 76.2568 69.8512C76.2271 69.8181 76.2043 69.7794 76.1899 69.7373C76.1756 69.6952 76.1698 69.6506 76.1732 69.6062C76.1765 69.5619 76.1887 69.5186 76.2092 69.4791C77.4628 66.885 78.9143 65.478 80.5198 65.2912C81.5205 65.1703 82.2682 65.544 82.994 65.8957C83.7198 66.2475 84.4895 66.6322 85.5562 66.5003C86.3699 66.4014 86.7548 66.0936 87.2496 65.7089C87.7445 65.3242 88.3273 64.8625 89.4269 64.5657C90.5266 64.2689 91.3843 64.3898 92.242 64.5657C93.035 64.7489 93.8475 64.8338 94.6613 64.8185C96.1568 64.7855 96.9595 64.4558 97.9712 64.0381C98.8846 63.6333 99.8346 63.3168 100.808 63.0928C102.997 62.5982 105.35 62.5652 107.813 62.9939C107.903 63.01 107.983 63.0603 108.036 63.1341C108.089 63.2079 108.112 63.2994 108.099 63.3896C108.08 63.4771 108.029 63.5543 107.955 63.6053C107.882 63.6564 107.792 63.6775 107.703 63.6644C105.328 63.2577 103.052 63.2906 100.951 63.7633C100.018 63.9729 99.1083 64.2748 98.2351 64.6646C97.1904 65.0933 96.2997 65.467 94.6723 65.5C93.8108 65.5137 92.9507 65.4252 92.1101 65.2362C91.2963 65.0603 90.6585 64.9394 89.6029 65.2142C88.5472 65.489 88.1513 65.8628 87.6675 66.2475C87.1837 66.6322 86.6448 67.0609 85.6332 67.1818C84.3686 67.3357 83.4778 66.896 82.6971 66.5113C81.9163 66.1266 81.3995 65.8738 80.6078 65.9617C79.2442 66.1266 77.9686 67.4126 76.825 69.7759C76.7953 69.8319 76.751 69.8788 76.6968 69.9117C76.6426 69.9446 76.5805 69.9622 76.5171 69.9628Z" fill="url(#paint8_linear)"/>
<path d="M108.218 73.1283L96.0014 73.4251L95.8475 68.3358L108.065 68.094L108.218 73.1283Z" fill="#D8DEE8"/>
<path d="M83.7524 62.3235L77.3524 62.4115C77.3204 62.4115 77.2896 62.3987 77.2669 62.376C77.2442 62.3534 77.2315 62.3226 77.2315 62.2905L77.1875 61.0375C77.186 61.0221 77.1877 61.0066 77.1925 60.992C77.1973 60.9774 77.2052 60.9639 77.2155 60.9525C77.2259 60.9411 77.2386 60.932 77.2527 60.9258C77.2668 60.9196 77.2821 60.9165 77.2975 60.9165L83.7084 60.8396C83.7405 60.8396 83.7713 60.8523 83.794 60.875C83.8166 60.8977 83.8294 60.9284 83.8294 60.9605L83.8734 62.2026C83.8734 62.2347 83.8606 62.2654 83.838 62.2881C83.8153 62.3108 83.7845 62.3235 83.7524 62.3235Z" fill="#D8DEE8"/>
</g>
<mask id="mask1" style="mask-type:alpha" maskUnits="userSpaceOnUse" x="0" y="3" width="105" height="94">
<path d="M104.144 96.4015V3.72266H0.00285339V96.4015H104.144Z" fill="#C4C4C4"/>
</mask>
<g mask="url(#mask1)">
<path d="M109.324 54.1128L73.3652 54.2887C72.3865 54.2997 71.5728 53.5412 71.5508 52.6069L70.7151 26.7868C70.6821 25.8525 71.4518 25.105 72.4195 25.138L108.455 25.9954C108.894 26.0115 109.311 26.1924 109.623 26.5021C109.935 26.8117 110.118 27.2273 110.137 27.6662L110.907 52.475C110.916 52.6878 110.882 52.9002 110.806 53.0994C110.73 53.2985 110.615 53.4802 110.467 53.6333C110.319 53.7865 110.141 53.908 109.944 53.9904C109.748 54.0728 109.537 54.1145 109.324 54.1128Z" fill="#D8DEE8"/>
<path d="M109.972 53.9037L74.0029 54.0906C73.0352 54.0906 72.2215 53.3321 72.1885 52.3978L71.3528 26.5777C71.3198 25.6434 72.0895 24.907 73.0572 24.9289L109.093 25.7863C109.533 25.7999 109.951 25.98 110.263 26.2901C110.576 26.6003 110.759 27.0174 110.775 27.4571L111.556 52.2659C111.563 52.4784 111.528 52.6901 111.451 52.8885C111.375 53.087 111.26 53.268 111.112 53.4209C110.964 53.5737 110.787 53.6952 110.591 53.7782C110.395 53.8612 110.185 53.9038 109.972 53.9037Z" fill="#F4F7FA"/>
<path d="M111.575 44.5164L71.9219 44.3406L71.9439 45.088L111.597 45.2419L111.575 44.5164Z" fill="white"/>
<path d="M95.159 25.2695L95.7861 44.9671H96.5231L95.8961 25.2915L95.159 25.2695Z" fill="white"/>
<path d="M90.9372 48.8474H76.9167C76.8846 48.8474 76.8538 48.8347 76.8311 48.812C76.8084 48.7894 76.7957 48.7586 76.7957 48.7265L76.7517 47.4734C76.7517 47.4576 76.7548 47.4418 76.7609 47.4272C76.767 47.4125 76.7759 47.3992 76.7871 47.388C76.7984 47.3767 76.8117 47.3678 76.8264 47.3617C76.8411 47.3557 76.8568 47.3525 76.8727 47.3525L90.8932 47.3745C90.9253 47.3745 90.956 47.3873 90.9787 47.4099C91.0014 47.4326 91.0141 47.4634 91.0141 47.4954L91.0581 48.7375C91.0554 48.7676 91.0414 48.7956 91.019 48.816C90.9966 48.8363 90.9674 48.8476 90.9372 48.8474Z" fill="#C281E8"/>
<path d="M94.7751 51.6284L77.0048 51.6724C76.9895 51.6739 76.974 51.6722 76.9593 51.6674C76.9447 51.6626 76.9312 51.6547 76.9198 51.6444C76.9084 51.634 76.8993 51.6214 76.8931 51.6073C76.8869 51.5931 76.8838 51.5779 76.8838 51.5625L76.8398 50.2984C76.8426 50.2683 76.8565 50.2403 76.8789 50.2199C76.9013 50.1996 76.9305 50.1884 76.9608 50.1885L94.7201 50.1665C94.7504 50.1664 94.7796 50.1776 94.802 50.1979C94.8244 50.2183 94.8383 50.2463 94.8411 50.2764L94.885 51.5185C94.885 51.5477 94.8735 51.5756 94.8528 51.5962C94.8322 51.6169 94.8042 51.6284 94.7751 51.6284Z" fill="#D8DEE8"/>
<path d="M108.882 32.3377L98.1382 32.1618L98.0062 27.9629L108.75 28.1937L108.882 32.3377Z" fill="#D8DEE8"/>
<path d="M109.188 42.34L98.4558 42.263L98.1919 33.9421L108.935 34.107L109.188 42.34Z" fill="#D8DEE8"/>
<path d="M83.3259 32.1287C85.0083 32.1507 86.4159 33.5027 86.4599 35.1405C86.4792 35.5796 86.3925 36.017 86.207 36.4155L89.8028 38.0863C90.2208 37.1816 90.4204 36.1914 90.3856 35.1954C90.2646 31.4582 87.0537 28.3584 83.1939 28.2705H83.1719L83.2929 32.1287H83.3259Z" fill="white"/>
<path d="M86.2066 36.4153C85.9652 36.922 85.5825 37.3482 85.1046 37.6426C84.6266 37.9371 84.0737 38.0873 83.5124 38.0751C81.819 38.0531 80.4004 36.7011 80.3455 35.0523C80.2905 33.4035 81.61 32.1175 83.2925 32.1284L83.1715 28.2703C79.3008 28.2153 76.2328 31.2161 76.3537 34.9973C76.4747 38.7786 79.7516 41.8893 83.6334 41.9223C86.4155 41.9443 88.7687 40.3724 89.8024 38.0861L86.2066 36.4153Z" fill="url(#paint9_linear)"/>
<path d="M159.037 87.122C159.092 88.7708 157.849 90.1777 156.266 90.2547L18.6893 97.0257C14.7306 97.2675 12.9381 95.1461 12.8722 93.2335L10.321 18.2904L10.8158 11.3655C10.7498 9.43087 11.6296 5.79254 13.7409 5.88047L153.957 11.6293C155.54 11.6952 156.871 13.1132 156.915 14.773L159.037 87.122Z" fill="#D8DEE8"/>
<path d="M157.145 22.5671L156.914 14.7738C156.87 13.114 155.539 11.6961 155.715 11.0475L15.6204 5.43066C10.694 5.63951 9.90226 8.48643 9.96824 10.421L10.3201 18.2912L12.9483 17.8406L157.145 22.5671Z" fill="#F8924E"/>
<path d="M163.184 87.4073C163.239 89.0781 161.986 90.5071 160.391 90.584L19.5374 96.9593C17.4151 97.0473 15.6117 95.5414 15.5457 93.6068L12.9506 17.8393L13.7093 8.97977C13.6433 7.0232 14.5121 5.97897 16.6454 6.0669L158.038 11.1232C159.632 11.1892 160.974 12.6071 161.029 14.2889L163.184 87.4073Z" fill="white"/>
<path d="M161.258 22.17L161.027 14.2887C160.972 12.607 159.631 11.189 158.036 11.1231L16.4019 5.28633C14.2686 5.19839 12.5751 6.72627 12.6411 8.68284L12.949 17.8391L161.258 22.17Z" fill="#FFC244"/>
<path d="M22.3601 12.0025C22.3931 12.9588 21.5574 13.7172 20.5017 13.6843C19.4461 13.6513 18.5664 12.8379 18.5334 11.8596C18.5004 10.8813 19.3251 10.1448 20.3918 10.1778C21.4584 10.2108 22.3271 11.0352 22.3601 12.0025Z" fill="#9C73F4"/>
<path d="M30.5656 12.2884C30.5986 13.2447 29.7849 13.9921 28.7512 13.9592C27.7176 13.9262 26.8379 13.1128 26.8049 12.1565C26.7719 11.2002 27.5856 10.4417 28.6303 10.4857C29.6749 10.5297 30.5327 11.3321 30.5656 12.2884Z" fill="#9C73F4"/>
<path d="M38.6563 12.563C38.6892 13.5193 37.8865 14.2668 36.8638 14.2228C35.8412 14.1789 34.9724 13.3874 34.9394 12.4421C34.9065 11.4968 35.7202 10.7384 36.7429 10.7823C37.7655 10.8263 38.6233 11.6177 38.6563 12.563Z" fill="#9C73F4"/>
<path d="M73.4612 54.3876C72.3725 54.3876 71.4708 53.5302 71.4268 52.4859L70.5911 26.6659C70.5836 26.4199 70.6266 26.175 70.7174 25.9463C70.8081 25.7175 70.9448 25.5098 71.1189 25.3358C71.3043 25.1502 71.5259 25.0046 71.7699 24.9081C72.0139 24.8117 72.2752 24.7665 72.5375 24.7752L108.562 25.6326C109.06 25.6513 109.532 25.8558 109.887 26.2058C110.241 26.5559 110.451 27.0259 110.475 27.5232L111.245 52.3321C111.254 52.5746 111.214 52.8165 111.127 53.0432C111.04 53.2698 110.908 53.4766 110.739 53.6511C110.398 54.0025 109.931 54.2042 109.442 54.2117L73.4722 54.3876H73.4612ZM72.4825 25.2259C72.2885 25.224 72.0962 25.2609 71.9167 25.3345C71.7373 25.4082 71.5745 25.517 71.4378 25.6546C71.3061 25.7843 71.2036 25.9406 71.1372 26.1131C71.0708 26.2857 71.0421 26.4704 71.053 26.6549L71.8887 52.464C71.9107 53.2774 72.6145 53.9369 73.4612 53.9369H73.4722L109.442 53.75C109.623 53.7501 109.803 53.7137 109.97 53.6431C110.137 53.5724 110.288 53.4689 110.414 53.3386C110.54 53.2084 110.639 53.0541 110.704 52.8849C110.769 52.7158 110.8 52.5353 110.794 52.354L110.024 27.5452C110.008 27.1619 109.847 26.7992 109.573 26.5299C109.3 26.2607 108.935 26.105 108.551 26.0943L72.5265 25.2259H72.4825Z" fill="#F4F7FA"/>
<path d="M64.7638 87.8691L25.3415 89.375C24.2749 89.408 23.3841 88.6496 23.3511 87.6713L22.4384 60.6421C22.4055 59.6638 23.2412 58.8614 24.3078 58.8504L63.8071 58.4877C64.7968 58.4767 65.6216 59.2351 65.6545 60.1804L66.5013 86.0994C66.5233 87.0448 65.7535 87.8362 64.7638 87.8691Z" fill="#D8DEE8"/>
<path d="M65.3581 87.6382L25.9358 89.1331C24.8692 89.1771 23.9675 88.4186 23.9345 87.4293L23.0218 60.4111C22.9888 59.4219 23.8245 58.6194 24.9022 58.6085L64.3904 58.2567C65.3801 58.2457 66.2049 59.0042 66.2379 59.9385L67.0846 85.8685C67.1176 86.8028 66.3368 87.5942 65.3581 87.6382Z" fill="#F4F7FA"/>
<path d="M67.0715 77.3496L23.6135 78.5587L23.6465 79.3392L67.0935 78.0971L67.0715 77.3496Z" fill="white"/>
<path d="M63.1378 69.7101L28.213 70.4246L27.9161 61.7519L62.8629 61.3342L63.1378 69.7101Z" fill="#D8DEE8"/>
<path d="M63.2925 74.283L28.3678 75.1514L28.2688 72.0956L63.1935 71.3262L63.2925 74.283Z" fill="#D8DEE8"/>
<path d="M39.747 82.7576L28.6736 83.1204C28.6404 83.1205 28.6084 83.1081 28.5839 83.0857C28.5595 83.0633 28.5444 83.0325 28.5416 82.9994L28.4976 81.6804C28.4976 81.6483 28.5104 81.6176 28.533 81.5949C28.5557 81.5722 28.5865 81.5595 28.6186 81.5595L39.703 81.2078C39.7355 81.2099 39.7663 81.223 39.7903 81.245C39.8143 81.267 39.83 81.2965 39.835 81.3287L39.879 82.6367C39.879 82.6536 39.8756 82.6702 39.8688 82.6857C39.8621 82.7011 39.8522 82.715 39.8397 82.7263C39.8273 82.7377 39.8127 82.7464 39.7967 82.7518C39.7807 82.7572 39.7638 82.7592 39.747 82.7576Z" fill="url(#paint10_linear)"/>
<path d="M50.1281 85.3299L28.7729 86.0773C28.757 86.0789 28.741 86.0772 28.7257 86.0725C28.7105 86.0678 28.6963 86.0601 28.684 86.0499C28.6718 86.0396 28.6617 86.0271 28.6543 86.013C28.6469 85.9988 28.6424 85.9833 28.641 85.9674L28.597 84.6484C28.5991 84.6159 28.6123 84.5852 28.6343 84.5612C28.6562 84.5372 28.6858 84.5214 28.7179 84.5165L50.0841 83.802C50.1156 83.8016 50.1462 83.8124 50.1704 83.8326C50.1946 83.8527 50.2108 83.8809 50.216 83.9119L50.249 85.209C50.2508 85.2253 50.2488 85.2418 50.2434 85.2572C50.2379 85.2727 50.229 85.2867 50.2174 85.2983C50.2058 85.3099 50.1918 85.3188 50.1763 85.3242C50.1609 85.3297 50.1444 85.3316 50.1281 85.3299Z" fill="#D8DEE8"/>
<path d="M65.3475 52.6287C65.3805 53.574 64.6108 54.3324 63.6211 54.3434L24.1108 54.5413C23.0442 54.5522 22.1424 53.7608 22.1095 52.7715L21.1967 25.6874C21.1638 24.6981 21.9995 23.9287 23.0771 23.9507L62.6534 24.896C63.6431 24.9179 64.4788 25.7094 64.5008 26.6547L65.3475 52.6287Z" fill="#D8DEE8"/>
<path d="M65.9962 52.4202C66.0292 53.3655 65.2484 54.1349 64.2588 54.1349L24.7485 54.3328C23.6818 54.3437 22.7911 53.5523 22.7581 52.563L21.8344 25.4789C21.8014 24.5006 22.6482 23.7202 23.7148 23.7422L63.3021 24.6875C64.2918 24.7204 65.1165 25.5009 65.1495 26.4462L65.9962 52.4202Z" fill="#F4F7FA"/>
<path d="M65.9835 44.3299L22.4375 44.1211L22.4705 44.9125L66.0165 45.0774L65.9835 44.3299Z" fill="white"/>
<path d="M42.6942 24.0056L43.3759 44.7474L44.2007 44.7584L43.5079 24.0276L42.6942 24.0056Z" fill="white"/>
<path d="M39.4059 36.5037L27.0569 36.3498L26.727 26.4351L39.076 26.6989L39.4059 36.5037Z" fill="#D8DEE8"/>
<path d="M39.5817 41.8566L27.2437 41.7686L27.1227 38.2732L39.4718 38.3941L39.5817 41.8566Z" fill="#D8DEE8"/>
<path d="M33.6008 48.8365H27.5198C27.503 48.838 27.4861 48.836 27.4701 48.8307C27.4541 48.8253 27.4395 48.8166 27.427 48.8052C27.4146 48.7938 27.4047 48.78 27.3979 48.7645C27.3912 48.7491 27.3877 48.7324 27.3878 48.7156L27.3328 47.3966C27.3328 47.3797 27.3362 47.363 27.343 47.3476C27.3497 47.3322 27.3596 47.3183 27.3721 47.3069C27.3845 47.2955 27.3991 47.2869 27.4151 47.2815C27.4311 47.2761 27.448 47.2741 27.4648 47.2756H33.5458C33.579 47.2755 33.611 47.2879 33.6354 47.3103C33.6599 47.3327 33.675 47.3635 33.6778 47.3966L33.7218 48.7046C33.7233 48.7214 33.7213 48.7383 33.7159 48.7543C33.7105 48.7702 33.7019 48.7849 33.6905 48.7973C33.6791 48.8097 33.6652 48.8196 33.6498 48.8264C33.6343 48.8331 33.6177 48.8366 33.6008 48.8365Z" fill="url(#paint11_linear)"/>
<path d="M42.5404 51.7602L27.6182 51.8041C27.6014 51.8057 27.5845 51.8037 27.5685 51.7983C27.5526 51.7929 27.5379 51.7843 27.5255 51.7729C27.5131 51.7615 27.5031 51.7476 27.4964 51.7322C27.4896 51.7168 27.4862 51.7001 27.4863 51.6832L27.4423 50.3642C27.4405 50.3479 27.4425 50.3314 27.4479 50.316C27.4534 50.3005 27.4623 50.2865 27.4739 50.2749C27.4855 50.2633 27.4995 50.2544 27.515 50.249C27.5304 50.2435 27.5469 50.2416 27.5632 50.2433H42.4854C42.5624 50.2433 42.6174 50.2873 42.6174 50.3532L42.6613 51.6503C42.6614 51.6657 42.6583 51.6809 42.6521 51.695C42.6459 51.7091 42.6368 51.7218 42.6254 51.7321C42.6139 51.7425 42.6005 51.7504 42.5859 51.7552C42.5712 51.76 42.5557 51.7617 42.5404 51.7602Z" fill="#D8DEE8"/>
<path d="M50.9976 41.6917L47.5557 41.6697L47.0719 26.8635L50.5138 26.9405L50.9976 41.6917Z" fill="white"/>
<path d="M56.7062 41.7356L53.3082 41.7026L52.8244 26.9954L56.2223 27.0613L56.7062 41.7356Z" fill="white"/>
<path d="M62.3563 41.7687L58.9913 41.7467L58.5075 27.1165L61.8724 27.1824L62.3563 41.7687Z" fill="white"/>
<path d="M50.995 41.6917L47.5531 41.6697L47.3002 33.9863L50.7421 34.0303L50.995 41.6917Z" fill="url(#paint12_linear)"/>
<path d="M56.7026 41.7358L53.3047 41.7028L52.9308 30.4031L56.3287 30.469L56.7026 41.7358Z" fill="url(#paint13_linear)"/>
<path d="M62.3537 41.7688L58.9888 41.7468L58.6589 31.7991L62.0238 31.865L62.3537 41.7688Z" fill="url(#paint14_linear)"/>
<path d="M110.378 86.1323L74.4852 87.4953C74.2601 87.5101 74.0343 87.4799 73.821 87.4063C73.6077 87.3327 73.4113 87.2172 73.2433 87.0667C73.0753 86.9162 72.9391 86.7336 72.8427 86.5297C72.7463 86.3258 72.6915 86.1048 72.6818 85.8795L71.8461 60.1143C71.8131 59.18 72.5828 58.4106 73.5505 58.3996L109.509 58.0698C109.944 58.0695 110.362 58.2376 110.676 58.5389C110.99 58.8401 111.174 59.2511 111.191 59.6856L111.961 84.4395C111.973 84.8732 111.814 85.294 111.517 85.6109C111.221 85.9278 110.811 86.1151 110.378 86.1323Z" fill="#D8DEE8"/>
<path d="M110.973 85.8906L75.0807 87.2646C74.113 87.2976 73.2993 86.5721 73.2663 85.6378L72.4306 59.8727C72.4261 59.6477 72.4671 59.4241 72.5512 59.2154C72.6352 59.0067 72.7606 58.817 72.9198 58.6579C73.079 58.4988 73.2687 58.3735 73.4775 58.2895C73.6863 58.2054 73.91 58.1644 74.135 58.1689L110.093 57.8392C110.529 57.8361 110.949 58.0032 111.263 58.3051C111.578 58.6069 111.762 59.0195 111.776 59.455L112.546 84.2088C112.553 84.4225 112.518 84.6355 112.443 84.8357C112.368 85.0359 112.254 85.2193 112.108 85.3755C111.962 85.5317 111.787 85.6576 111.592 85.746C111.397 85.8344 111.187 85.8835 110.973 85.8906Z" fill="#F4F7FA"/>
<path d="M112.565 76.0745L72.9892 77.1846L73.0222 77.9321L112.587 76.7889L112.565 76.0745Z" fill="white"/>
<path d="M89.8799 81.1307L77.9707 81.5154C77.9554 81.517 77.9399 81.5153 77.9253 81.5104C77.9106 81.5056 77.8972 81.4978 77.8858 81.4874C77.8744 81.477 77.8653 81.4644 77.8591 81.4503C77.8529 81.4362 77.8497 81.4209 77.8498 81.4055L77.8058 80.1414C77.8058 80.1123 77.8174 80.0843 77.838 80.0637C77.8586 80.0431 77.8866 80.0315 77.9158 80.0315L89.8359 79.6578C89.8513 79.6562 89.8667 79.6579 89.8814 79.6628C89.896 79.6676 89.9095 79.6754 89.9209 79.6858C89.9323 79.6962 89.9414 79.7088 89.9476 79.7229C89.9538 79.737 89.957 79.7523 89.9569 79.7677L89.9899 81.0098C89.9914 81.0251 89.9897 81.0406 89.9849 81.0552C89.9801 81.0699 89.9722 81.0833 89.9618 81.0947C89.9515 81.1061 89.9388 81.1152 89.9247 81.1214C89.9106 81.1276 89.8953 81.1308 89.8799 81.1307Z" fill="#C281E8"/>
<path d="M99.5258 83.582L78.0608 84.3405C78.0454 84.342 78.0299 84.3403 78.0153 84.3355C78.0007 84.3307 77.9872 84.3228 77.9758 84.3124C77.9644 84.3021 77.9553 84.2894 77.9491 84.2753C77.9429 84.2612 77.9397 84.246 77.9398 84.2306L77.8958 82.9775C77.8958 82.9454 77.9086 82.9147 77.9312 82.892C77.9539 82.8693 77.9847 82.8566 78.0168 82.8566L99.4818 82.1311C99.511 82.1311 99.539 82.1427 99.5596 82.1633C99.5802 82.1839 99.5918 82.2119 99.5918 82.241L99.6358 83.4721C99.6333 83.5004 99.6209 83.527 99.6008 83.5471C99.5807 83.5672 99.5542 83.5796 99.5258 83.582Z" fill="#D8DEE8"/>
<path d="M76.5189 69.963C76.4658 69.9627 76.4134 69.9515 76.3649 69.93C76.3245 69.9113 76.2884 69.8846 76.2586 69.8515C76.2289 69.8184 76.2061 69.7796 76.1917 69.7375C76.1773 69.6954 76.1716 69.6508 76.1749 69.6065C76.1782 69.5621 76.1905 69.5189 76.211 69.4794C77.4645 66.8853 78.9161 65.4783 80.5216 65.2914C81.5222 65.1705 82.27 65.5442 82.9958 65.896C83.7215 66.2477 84.4913 66.6324 85.558 66.5005C86.3717 66.4016 86.7566 66.0938 87.2514 65.7091C87.7462 65.3244 88.3291 64.8627 89.4287 64.566C90.5284 64.2692 91.3861 64.3901 92.2438 64.566C93.0368 64.7491 93.8493 64.834 94.663 64.8188C96.1585 64.7858 96.9613 64.456 97.973 64.0383C98.8863 63.6335 99.8364 63.317 100.81 63.093C102.998 62.5984 105.352 62.5654 107.815 62.9941C107.904 63.0103 107.984 63.0605 108.038 63.1343C108.091 63.2081 108.114 63.2997 108.101 63.3898C108.082 63.4774 108.031 63.5545 107.957 63.6056C107.884 63.6566 107.793 63.6778 107.705 63.6646C105.33 63.2579 103.053 63.2909 100.953 63.7635C100.02 63.9731 99.1101 64.2751 98.2369 64.6649C97.1922 65.0936 96.3015 65.4673 94.674 65.5003C93.8125 65.514 92.9525 65.4254 92.1118 65.2365C91.2981 65.0606 90.6603 64.9397 89.6047 65.2145C88.549 65.4893 88.1531 65.863 87.6693 66.2477C87.1854 66.6324 86.6466 67.0611 85.6349 67.182C84.3703 67.3359 83.4796 66.8962 82.6989 66.5115C81.9181 66.1268 81.4013 65.874 80.6095 65.9619C79.246 66.1268 77.9704 67.4129 76.8268 69.7761C76.797 69.8321 76.7527 69.879 76.6985 69.9119C76.6443 69.9448 76.5823 69.9625 76.5189 69.963Z" fill="url(#paint15_linear)"/>
<path d="M108.22 73.1285L96.0032 73.4253L95.8492 68.3361L108.066 68.0942L108.22 73.1285Z" fill="#D8DEE8"/>
<path d="M83.7542 62.3238L77.3542 62.4117C77.3221 62.4117 77.2914 62.399 77.2687 62.3763C77.246 62.3536 77.2333 62.3228 77.2333 62.2908L77.1893 61.0377C77.1877 61.0224 77.1894 61.0069 77.1943 60.9923C77.1991 60.9776 77.207 60.9642 77.2173 60.9528C77.2277 60.9414 77.2403 60.9323 77.2544 60.9261C77.2686 60.9199 77.2838 60.9167 77.2992 60.9168L83.7102 60.8398C83.7422 60.8398 83.773 60.8526 83.7957 60.8753C83.8184 60.8979 83.8311 60.9287 83.8311 60.9608L83.8751 62.2028C83.8751 62.2349 83.8624 62.2657 83.8397 62.2883C83.817 62.311 83.7862 62.3238 83.7542 62.3238Z" fill="#D8DEE8"/>
</g>
<path d="M121.676 59.6683L76.9361 57.3425C75.6979 57.2745 74.9087 56.2544 75.1808 55.0711L82.651 22.5504C82.8032 21.9673 83.1576 21.4572 83.6511 21.1109C84.1445 20.7647 84.7448 20.6048 85.3452 20.6598L129.2 25.257C130.261 25.3658 130.928 26.3451 130.697 27.4468L124.084 57.7641C123.839 58.8794 122.764 59.7363 121.676 59.6683Z" fill="#D8DEE8"/>
<path d="M122.233 59.8179L77.5476 57.4785C76.3093 57.4105 75.5202 56.404 75.7923 55.2343L83.2216 23.2032C83.4938 22.0471 84.7048 21.2174 85.9158 21.3399L129.716 25.9235C130.778 26.0323 131.444 26.998 131.213 28.0725L124.627 57.9409C124.396 59.0426 123.321 59.8723 122.233 59.8179Z" fill="url(#paint16_linear)"/>
<path d="M126.711 48.5695L78.1208 45.1692L77.9031 46.1077L126.52 49.44L126.711 48.5695Z" fill="white"/>
<path d="M113.076 24.1829L107.742 47.8899L108.654 47.9443L113.961 24.2781L113.076 24.1829Z" fill="white"/>
<path d="M100.545 52.2556L82.9784 51.1675C82.9597 51.1679 82.9412 51.1641 82.9243 51.1564C82.9073 51.1486 82.8923 51.137 82.8805 51.1226C82.8687 51.1082 82.8604 51.0912 82.8561 51.0731C82.8518 51.0549 82.8518 51.036 82.8559 51.0179L83.2233 49.4537C83.2327 49.4142 83.2554 49.3791 83.2876 49.3543C83.3198 49.3295 83.3596 49.3166 83.4002 49.3177L100.967 50.4466C101 50.4532 101.03 50.4723 101.05 50.5001C101.071 50.5278 101.08 50.5621 101.076 50.5962L100.722 52.1332C100.712 52.1715 100.689 52.2051 100.656 52.2276C100.624 52.2501 100.584 52.2601 100.545 52.2556Z" fill="#C281E8"/>
<path d="M104.396 55.955L82.1623 54.7037C82.0806 54.6901 82.0262 54.6221 82.0534 54.5541L82.4072 52.9763C82.4211 52.9369 82.4469 52.9027 82.481 52.8783C82.5151 52.854 82.5558 52.8407 82.5977 52.8403L104.804 54.1597C104.886 54.1733 104.94 54.2277 104.913 54.3093L104.573 55.8326C104.563 55.871 104.54 55.9045 104.507 55.9271C104.475 55.9496 104.435 55.9595 104.396 55.955Z" fill="#D8DEE8"/>
<path d="M127.485 33.7305L114.613 32.5472L115.742 27.4739L128.587 28.7524L127.485 33.7305Z" fill="#D8DEE8"/>
<path d="M124.832 45.7676L111.865 44.8019L114.124 34.7097L127.009 35.8522L124.832 45.7676Z" fill="#D8DEE8"/>
<path d="M96.4221 31.1329C98.5039 31.3369 99.8238 33.1051 99.3611 35.1045C99.2365 35.6634 98.9902 36.1882 98.64 36.6414L102.559 38.9944C103.338 37.9659 103.89 36.7837 104.178 35.5261C105.212 30.9697 102.246 26.9029 97.497 26.4404H97.4698L96.3948 31.1465L96.4221 31.1329Z" fill="white"/>
<path d="M98.6398 36.6412C97.7418 37.8109 96.2586 38.559 94.7619 38.4366C92.6528 38.2598 91.3193 36.478 91.782 34.4514C92.2446 32.4248 94.3128 30.9695 96.3947 31.1327L97.4696 26.4266C92.6664 25.9778 87.8632 29.3645 86.7882 34.0162C85.7133 38.6678 88.8293 42.8026 93.6733 43.1698C97.1431 43.4283 100.558 41.6873 102.559 38.9942L98.6398 36.6412Z" fill="url(#paint17_linear)"/>
<path d="M79.8621 39.8512L78.7464 38.7223C78.491 38.34 78.3316 37.9018 78.2818 37.4448C78.2321 36.9877 78.2934 36.5255 78.4607 36.0972C79.0185 34.5467 79.7941 34.9683 79.7941 34.9683L79.5764 36.0564C79.5764 36.0564 79.4403 36.7637 80.1071 37.6342C80.4488 38.2098 80.6882 38.8403 80.8146 39.4976L79.8621 39.8512Z" fill="#FFB78D"/>
<path d="M126.599 44.2176L127.851 43.0751L128.423 40.9941C128.423 40.9941 129.96 41.6062 129.117 43.5648C128.586 44.2177 127.266 45.1969 126.695 46.1626C126.123 47.1283 126.599 44.2176 126.599 44.2176Z" fill="#FFB78D"/>
<path d="M114.148 58.172C114.148 58.172 120.203 54.4317 121.686 53.0987C123.169 51.7658 127.265 46.3661 127.605 45.7404C127.945 45.1148 126.517 43.8499 126.517 43.8499C126.517 43.8499 119.482 52.6363 110.638 50.0384C112.039 53.1939 114.148 58.172 114.148 58.172Z" fill="#F99746"/>
<path d="M115.034 109.83C115.034 109.83 116.136 112.632 115.85 113.869C116.507 113.86 117.162 113.801 117.81 113.693C117.81 113.693 117.334 112.414 117.238 111.788C117.157 111.048 117.116 110.303 117.116 109.558L115.034 109.83Z" fill="#FFB78D"/>
<path d="M102.774 116.372C102.904 116.514 102.981 116.697 102.992 116.889C102.991 117.006 102.968 117.121 102.924 117.229C102.733 117.732 102.434 117.787 102.121 118.317C101.808 118.848 101.958 118.739 101.781 118.888C101.604 119.038 101.25 119.093 101.005 119.093C100.41 119.093 99.8145 119.061 99.2225 118.997C99.6171 118.48 100.053 117.964 100.502 117.433L101.087 116.753L102.257 116.359L102.774 116.372Z" fill="#26264F"/>
<path d="M101.809 110.687C101.809 110.687 101.142 114.183 101.985 115.162C102.829 116.141 101.632 115.434 101.632 115.434L100.353 116.563L99.577 117.896C99.577 117.896 100.285 114.468 100.094 113.108C99.9036 111.748 99.822 110.837 99.822 110.837L101.809 110.687Z" fill="#FFB78D"/>
<path d="M105.128 50.025C101.862 49.4673 97.1952 51.1131 91.7932 48.2704C86.3913 45.4277 83.3434 41.3066 81.5064 38.6543L79.1252 39.8376C80.4723 42.1634 83.6563 47.1551 87.8745 50.637C93.1812 55.0031 98.3654 55.2615 101.196 58.8386C102.515 57.5193 106.72 50.2834 105.128 50.025Z" fill="#F99746"/>
<path d="M99.278 72.4537C99.278 72.4537 97.4819 74.0586 97.4819 80.6961C97.4819 87.3335 98.3256 101.71 98.3256 101.71L99.6999 112.02C99.6999 112.02 101.115 112.074 102.054 111.789C102.911 107.912 104.299 101.343 103.632 95.8479C103.36 89.8769 106 82.3962 106 82.3962C106 82.3962 108.286 89.9721 109.891 93.7669C111.497 97.5617 114.572 109.422 114.858 110.265C116.736 110.442 117.538 109.939 117.538 109.939C117.538 109.939 116.327 97.1672 115.198 92.3388C114.069 87.5103 114.15 75.854 112.259 72.5489C108 70.8351 99.278 72.4537 99.278 72.4537Z" fill="#213F7A"/>
<path style="mix-blend-mode:multiply" opacity="0.25" d="M108.626 84.5996C109.197 88.2448 110.313 90.2034 113.116 92.7332C115.361 94.4198 113.688 98.0649 114.531 100.867C114.803 101.71 115.647 102.553 115.933 103.397C116.967 105.478 116.001 108.035 116.477 110.252C117.212 110.143 117.538 109.939 117.538 109.939C117.538 109.939 116.327 97.1672 115.198 92.3388C114.069 87.5103 114.15 75.854 112.259 72.5489C108 70.8351 99.278 72.4537 99.278 72.4537C99.278 72.4537 97.4819 74.0586 97.4819 80.6961C97.4819 81.2265 97.4819 81.8114 97.4955 82.4506C99.3597 84.0964 103.183 84.4636 105.537 82.6274C105.679 82.5346 105.836 82.4657 106 82.4234V82.3962C106.008 82.4032 106.013 82.4129 106.013 82.4234C107.088 82.233 108.395 83.6203 108.626 84.5996Z" fill="url(#paint18_linear)"/>
<path d="M115.551 114.931C115.551 114.931 115.279 114.931 115.306 115.284C115.333 115.638 115.17 116.876 116.585 116.93C118 116.984 118.204 116.835 118.259 116.835C118.313 116.835 117.878 115.652 117.878 115.652L117.429 115.08L116.218 114.958L115.551 114.931Z" fill="#26264F"/>
<path d="M118.679 116.168C118.601 115.774 118.477 115.391 118.312 115.025C118.067 114.468 118.271 114.25 118.026 113.747C117.95 113.557 117.834 113.385 117.686 113.244C117.555 113.116 117.399 113.017 117.228 112.951C117.057 112.886 116.875 112.856 116.692 112.863C116.532 112.862 116.373 112.899 116.23 112.972C116.05 113.073 115.904 113.224 115.808 113.407C115.658 113.652 115.699 113.733 115.468 114.413C115.433 114.529 115.406 114.648 115.386 114.767C115.363 114.865 115.349 114.965 115.345 115.066C115.713 115.066 117.128 115.121 117.427 115.338C117.571 115.454 117.686 115.602 117.764 115.769C117.841 115.937 117.88 116.119 117.876 116.304C117.876 116.671 118.067 116.848 118.257 116.834C118.448 116.821 118.747 116.522 118.679 116.168Z" fill="#7978E0"/>
<path d="M101.631 114.658C101.944 114.672 102.175 114.917 102.352 115.529C102.529 116.141 103.373 116.671 102.379 116.549C101.386 116.426 100.692 117.814 100.338 118.317C99.9847 118.82 99.0458 119.296 99.073 118.793C99.1002 118.29 99.5084 118.059 99.6309 117.542C99.7534 117.025 100.896 114.658 101.631 114.658Z" fill="#7978E0"/>
<path d="M108.298 49.8076C106.706 49.7668 102.665 49.3179 100.774 51.2085C98.8825 53.0991 100.801 55.4657 100.447 58.6484C100.216 60.811 100.298 62.0895 99.8894 65.6259C99.7903 66.4684 99.6403 67.3041 99.4404 68.1285C98.8961 70.4271 97.9573 74.9564 97.4538 76.0853C99.073 76.9149 103.25 78.4111 108.217 77.663C110.097 77.3889 111.916 76.7906 113.592 75.8949C112.299 71.9913 112.544 66.646 113.02 64.7146C113.959 60.9062 114.177 59.4237 116.844 53.9424C117.578 52.4326 115.823 53.2895 114.707 51.9566C112.993 49.93 109.904 49.862 108.298 49.8076Z" fill="#F99746"/>
<g style="mix-blend-mode:multiply" opacity="0.25">
<path d="M103.579 59.7636C103.661 59.0699 103.797 57.7778 103.157 56.4313C102.878 55.8575 102.501 55.3373 102.042 54.8943C100.626 53.6022 98.8031 53.6838 96.7212 53.5342C94.5616 53.3718 92.4238 52.9937 90.3396 52.4053C94.34 54.9079 98.0547 55.6832 100.49 58.0498C100.491 58.25 100.477 58.45 100.45 58.6483C100.218 60.8109 100.3 62.0894 99.8916 65.6257C99.7925 66.4682 99.6426 67.304 99.4426 68.1284C98.8983 70.427 97.9595 74.9562 97.456 76.0851C99.0752 76.9148 103.253 78.4109 108.219 77.6629C110.099 77.3887 111.918 76.7905 113.594 75.8947C113.194 74.6481 112.929 73.3622 112.805 72.0591C110.284 72.0622 107.796 71.4802 105.538 70.359C104.001 69.5837 103.239 69.1893 102.776 68.3188C101.892 66.673 102.967 65.1225 103.579 59.7636Z" fill="#ED7D2B"/>
</g>
<path d="M105.985 45.1014C106.216 43.3197 107.631 42.1908 107.93 41.9459C109.209 40.9258 109.482 40.817 109.917 40.7354L110.516 40.6538H110.584C110.937 40.6674 111.985 41.089 112.189 41.2251C112.802 41.6467 112.339 44.707 110.488 48.5018C110.407 48.8282 110.339 49.141 110.271 49.4674C111.89 49.7531 112.285 50.0387 112.298 50.2699C112.325 50.7868 110.556 51.426 108.91 51.4668C106.842 51.5212 104.665 50.6372 104.706 49.9707C104.719 49.6987 105.1 49.3722 106.597 49.0458L107.304 48.0665C107.087 47.8081 105.821 46.4072 105.985 45.1014Z" fill="#FFB78D"/>
<path d="M109.918 39.4844C109.265 40.1237 109.116 41.2254 109.306 42.0142C109.415 42.4903 109.565 42.5311 109.551 42.8439C109.483 43.7144 107.905 44.0952 107.986 44.5305C108.068 44.9657 108.871 44.7345 109.02 45.1289C109.17 45.5234 108.272 45.9314 107.877 47.0059C107.823 47.1827 107.442 48.2028 107.918 48.8149C108.394 49.4269 109.347 49.2365 110.463 49.0869C111.277 48.9909 112.074 48.7802 112.83 48.4613C113.647 48.094 114.517 47.7132 115.252 46.8291C115.416 46.6251 116.422 45.3602 116.341 43.592C116.232 41.2662 114.286 39.2804 112.286 38.9675C111.959 38.9131 110.708 38.7091 109.918 39.4844Z" fill="#233862"/>
<path d="M103.822 49.8756L104.965 49.522C104.965 49.522 105.264 51.0725 108.924 51.2629C110.14 51.2641 111.322 50.8623 112.285 50.1204L113.156 50.5285C113.156 50.5285 111.346 52.8271 108.625 52.7727C107.637 52.7697 106.668 52.4987 105.822 51.9884C104.976 51.4782 104.285 50.748 103.822 49.8756Z" fill="#ED7D2B"/>
<defs>
<linearGradient id="paint0_linear" x1="86.7087" y1="0.0192871" x2="86.7087" y2="104.067" gradientUnits="userSpaceOnUse">
<stop stop-color="#3A36FF"/>
<stop offset="1" stop-color="white"/>
</linearGradient>
<linearGradient id="paint1_linear" x1="86.7087" y1="0.0192871" x2="86.7087" y2="104.067" gradientUnits="userSpaceOnUse">
<stop stop-color="#3A36FF"/>
<stop offset="1" stop-color="white"/>
</linearGradient>
<linearGradient id="paint2_linear" x1="76.3465" y1="35.0982" x2="89.805" y2="35.0982" gradientUnits="userSpaceOnUse">
<stop stop-color="#FF9085"/>
<stop offset="1" stop-color="#FB6FBB"/>
</linearGradient>
<linearGradient id="paint3_linear" x1="27191.1" y1="2932.17" x2="33715.6" y2="2932.17" gradientUnits="userSpaceOnUse">
<stop stop-color="#FF9085"/>
<stop offset="1" stop-color="#FB6FBB"/>
</linearGradient>
<linearGradient id="paint4_linear" x1="1946.02" y1="1418.88" x2="3123.77" y2="1418.88" gradientUnits="userSpaceOnUse">
<stop stop-color="#FF9085"/>
<stop offset="1" stop-color="#FB6FBB"/>
</linearGradient>
<linearGradient id="paint5_linear" x1="1187.37" y1="1990.22" x2="1957.88" y2="2317.93" gradientUnits="userSpaceOnUse">
<stop stop-color="#FF9085"/>
<stop offset="1" stop-color="#FB6FBB"/>
</linearGradient>
<linearGradient id="paint6_linear" x1="1337.15" y1="2528.58" x2="2183.58" y2="2778.44" gradientUnits="userSpaceOnUse">
<stop stop-color="#FF9085"/>
<stop offset="1" stop-color="#FB6FBB"/>
</linearGradient>
<linearGradient id="paint7_linear" x1="1393.03" y1="2019.76" x2="2201.13" y2="2285.41" gradientUnits="userSpaceOnUse">
<stop stop-color="#FF9085"/>
<stop offset="1" stop-color="#FB6FBB"/>
</linearGradient>
<linearGradient id="paint8_linear" x1="19300.7" y1="4098.82" x2="28570.7" y2="4098.82" gradientUnits="userSpaceOnUse">
<stop stop-color="#FF9085"/>
<stop offset="1" stop-color="#FB6FBB"/>
</linearGradient>
<linearGradient id="paint9_linear" x1="76.3482" y1="35.0985" x2="89.8068" y2="35.0985" gradientUnits="userSpaceOnUse">
<stop stop-color="#FF9085"/>
<stop offset="1" stop-color="#FB6FBB"/>
</linearGradient>
<linearGradient id="paint10_linear" x1="1946.03" y1="1418.88" x2="3123.77" y2="1418.88" gradientUnits="userSpaceOnUse">
<stop stop-color="#FF9085"/>
<stop offset="1" stop-color="#FB6FBB"/>
</linearGradient>
<linearGradient id="paint11_linear" x1="1036.48" y1="654.994" x2="1407.45" y2="654.994" gradientUnits="userSpaceOnUse">
<stop stop-color="#FF9085"/>
<stop offset="1" stop-color="#FB6FBB"/>
</linearGradient>
<linearGradient id="paint12_linear" x1="1187.38" y1="1990.22" x2="1957.89" y2="2317.93" gradientUnits="userSpaceOnUse">
<stop stop-color="#FF9085"/>
<stop offset="1" stop-color="#FB6FBB"/>
</linearGradient>
<linearGradient id="paint13_linear" x1="1337.16" y1="2528.58" x2="2183.59" y2="2778.44" gradientUnits="userSpaceOnUse">
<stop stop-color="#FF9085"/>
<stop offset="1" stop-color="#FB6FBB"/>
</linearGradient>
<linearGradient id="paint14_linear" x1="1393.03" y1="2019.76" x2="2201.14" y2="2285.41" gradientUnits="userSpaceOnUse">
<stop stop-color="#FF9085"/>
<stop offset="1" stop-color="#FB6FBB"/>
</linearGradient>
<linearGradient id="paint15_linear" x1="19300.7" y1="4098.82" x2="28570.7" y2="4098.82" gradientUnits="userSpaceOnUse">
<stop stop-color="#FF9085"/>
<stop offset="1" stop-color="#FB6FBB"/>
</linearGradient>
<linearGradient id="paint16_linear" x1="61.5622" y1="40.5775" x2="132.489" y2="40.5775" gradientUnits="userSpaceOnUse">
<stop stop-color="#E3E7EF"/>
<stop offset="1" stop-color="#FAFBFD"/>
</linearGradient>
<linearGradient id="paint17_linear" x1="20544.4" y1="2335.67" x2="22427.7" y2="2820.69" gradientUnits="userSpaceOnUse">
<stop stop-color="#FF9085"/>
<stop offset="1" stop-color="#FB6FBB"/>
</linearGradient>
<linearGradient id="paint18_linear" x1="17861.8" y1="22473.3" x2="22471.8" y2="26508.2" gradientUnits="userSpaceOnUse">
<stop stop-color="#311944"/>
<stop offset="1" stop-color="#893976"/>
</linearGradient>
</defs>
</svg>
