<svg width="118" height="120" viewBox="0 0 118 120" fill="none" xmlns="http://www.w3.org/2000/svg">
<ellipse opacity="0.15" cx="58.8741" cy="114.791" rx="58.8741" ry="2.79106" fill="black"/>
<circle cx="61" cy="60" r="55" fill="url(#paint0_linear)"/>
<mask id="mask0" style="mask-type:alpha" maskUnits="userSpaceOnUse" x="6" y="5" width="110" height="110">
<circle cx="61" cy="60" r="55" fill="#C4C4C4"/>
<circle cx="61" cy="60" r="55" fill="url(#paint1_linear)"/>
</mask>
<g mask="url(#mask0)">
<path d="M59.9968 19.8762H23.7438V53.8593H59.9968V19.8762Z" fill="#053957"/>
<path d="M52.146 21.9932C52.146 22.3572 51.8524 22.6524 51.4901 22.6524C51.1278 22.6524 50.8342 22.3572 50.8342 21.9932C50.8342 21.6294 51.1278 21.3345 51.4901 21.3345C51.8524 21.3345 52.146 21.6294 52.146 21.9932Z" fill="#6B82F1"/>
<path d="M54.8689 21.9932C54.8689 22.3572 54.5753 22.6524 54.2126 22.6524C53.8507 22.6524 53.5571 22.3572 53.5571 21.9932C53.5571 21.6294 53.8507 21.3345 54.2126 21.3345C54.5753 21.3345 54.8689 21.6294 54.8689 21.9932Z" fill="#FFD975"/>
<path d="M57.4101 21.9932C57.4101 22.3572 57.1164 22.652 56.7541 22.652C56.3919 22.652 56.0982 22.3572 56.0982 21.9932C56.0982 21.6294 56.3919 21.3345 56.7541 21.3345C57.1164 21.3345 57.4101 21.6294 57.4101 21.9932Z" fill="#FF9B8D"/>
<path d="M35.3217 26.8032H30.1873V27.2365H35.3217V26.8032Z" fill="#FF9B8D"/>
<path d="M41.3119 26.8032H36.1773V27.2365H41.3119V26.8032Z" fill="#FFD975"/>
<path d="M39.7378 29.3555H31.7755V29.7887H39.7378V29.3555Z" fill="#6B82F1"/>
<path d="M45.0799 29.3555H41.0326V29.7887H45.0799V29.3555Z" fill="#FF9B8D"/>
<path d="M38.0406 31.543H34.5437V31.9762H38.0406V31.543Z" fill="#FFD975"/>
<path d="M51.6355 31.543H40.0344V31.9762H51.6355V31.543Z" fill="#FFD975"/>
<path d="M50.479 34.0955H37.2208V34.5291H50.479V34.0955Z" fill="#6B82F1"/>
<path d="M37.9888 36.2827H33.9084V36.7165H37.9888V36.2827Z" fill="#FF9B8D"/>
<path d="M43.8425 36.2827H39.7621V36.7165H43.8425V36.2827Z" fill="#6B82F1"/>
<path d="M36.1235 48.3142H30.1873V48.7477H36.1235V48.3142Z" fill="#FF9B8D"/>
<path d="M44.11 48.3142H38.1738V48.7477H44.11V48.3142Z" fill="#FFD975"/>
<path d="M51.915 48.3142H45.9788V48.7477H51.915V48.3142Z" fill="#FF9B8D"/>
<path d="M43.3766 46.127H31.7755V46.5602H43.3766V46.127Z" fill="#6B82F1"/>
<path d="M56.7629 46.127H45.1622V46.5602H56.7629V46.127Z" fill="#FF9B8D"/>
<path d="M46.056 43.9392H34.5437V44.3725H46.056V43.9392Z" fill="#FF9B8D"/>
<path d="M50.2266 43.9392H47.0226V44.3725H50.2266V43.9392Z" fill="#FFD975"/>
<path d="M38.1059 41.3867H33.7722V41.8203H38.1059V41.3867Z" fill="#FFD975"/>
<path d="M44.7313 41.3867H40.3974V41.8203H44.7313V41.3867Z" fill="#6B82F1"/>
<path d="M51.8556 41.3867H47.5217V41.8203H51.8556V41.3867Z" fill="#FF9B8D"/>
<path d="M44.8863 39.1992H38.8091V39.633H44.8863V39.1992Z" fill="#FFD975"/>
<path d="M36.4914 39.1992H30.4143V39.633H36.4914V39.1992Z" fill="#6B82F1"/>
<path d="M27.3816 26.4385H26.8294V26.9931H27.3816V26.4385Z" fill="#FAFCFD"/>
<path d="M27.3816 30.1226H26.8294V28.991H27.3816V30.1226ZM27.3816 32.9515H26.8294V31.8199H27.3816V32.9515ZM27.3816 35.7801H26.8294V34.6485H27.3816V35.7801ZM27.3816 38.6087H26.8294V37.4771H27.3816V38.6087ZM27.3816 41.4375H26.8294V40.3057H27.3816V41.4375ZM27.3816 44.2665H26.8294V43.1353H27.3816V44.2665ZM27.3816 47.0951H26.8294V45.9639H27.3816V47.0951Z" fill="#FAFCFD"/>
<path d="M27.3816 48.6787H26.8294V49.2339H27.3816V48.6787Z" fill="#FAFCFD"/>
<path d="M90.9064 15.1853H68.1296V29.2854H90.9064V15.1853Z" fill="#FF9B8D"/>
<path d="M76.2616 21.3395L73.2105 22.6471L76.2616 23.9355L75.8623 24.8616L72.2037 23.2197L72.2038 22.0838L75.8623 20.4324L76.2616 21.3395Z" fill="#FAFCFD"/>
<path d="M80.7353 18.4792L78.5208 27.0218L77.4661 26.7736L79.6902 18.2407L80.7353 18.4792Z" fill="#FAFCFD"/>
<path d="M86.0461 22.0838V23.2197L82.3868 24.8616L81.9879 23.9357L85.0291 22.6471L81.9879 21.3395L82.3868 20.4324L86.0461 22.0838Z" fill="#FAFCFD"/>
<path d="M113.623 48.6787H96.6206V60.8443H113.623V48.6787Z" fill="#6B82F1"/>
<path d="M103.738 51.3038C103.191 51.3038 103.008 51.452 103.008 51.8618V53.6928C103.008 54.4074 102.713 54.6254 102.218 54.765C102.713 54.8961 103.008 55.1139 103.008 55.8201V57.6511C103.008 58.0605 103.199 58.2091 103.738 58.2091V59.0112C102.357 59.0112 101.966 58.5664 101.966 57.6422V55.9071C101.966 55.4104 101.837 55.2185 101.385 55.2185V54.303C101.837 54.303 101.966 54.1026 101.966 53.6055V51.8704C101.966 50.9378 102.357 50.5017 103.738 50.5017V51.3038Z" fill="#F4F5F5"/>
<path d="M108.284 51.8704V53.6055C108.284 54.1022 108.414 54.3029 108.874 54.3029V55.2185C108.414 55.2185 108.284 55.4104 108.284 55.9069V57.6422C108.284 58.5662 107.893 59.0112 106.513 59.0112V58.2091C107.052 58.2091 107.242 58.0605 107.242 57.6511V55.8201C107.242 55.1139 107.537 54.8955 108.032 54.765C107.537 54.6254 107.242 54.4074 107.242 53.6928V51.8618C107.242 51.4519 107.06 51.3038 106.513 51.3038V50.5017C107.893 50.5017 108.284 50.9372 108.284 51.8704Z" fill="#F4F5F5"/>
<path d="M22.5371 22.7681C21.6738 23.6352 20.2694 23.6348 19.4062 22.7681C18.543 21.9012 18.543 20.4908 19.4062 19.6239C20.2694 18.7568 21.6738 18.7568 22.5371 19.6239C23.4003 20.4908 23.4003 21.9012 22.5371 22.7681ZM18.5189 19.2412C17.6079 20.3861 17.6217 22.0588 18.5501 23.1891C19.6043 24.4741 21.4104 24.6809 22.7079 23.8122L24.7103 25.8226C24.7945 25.9077 24.9315 25.9077 25.0161 25.8226L25.5787 25.2576C25.6631 25.1728 25.6631 25.0356 25.5787 24.9505L23.5765 22.9399C24.3873 21.7187 24.2577 20.0493 23.1856 18.9726C21.8812 17.6629 19.7034 17.7525 18.5189 19.2412Z" fill="#FAFCFD"/>
<path d="M84.533 49.7725L79.1417 52.8015V55.0378C78.6133 54.9781 78.1145 55.0139 77.6515 55.1091L77.6574 55.139C77.6574 55.139 76.8617 59.8617 81.6117 59.8617C86.1358 59.8617 86.7118 55.4431 86.753 55.0199C85.5836 54.8885 84.7289 54.99 84.7289 54.99V49.7725H84.533Z" fill="url(#paint2_radial)"/>
<path d="M72.8686 43.0075C72.2813 46.1304 72.8461 52.2394 75.7826 54.3476C76.544 54.8947 80.537 54.42 81.1858 53.8498C82.1423 53.0086 83.1012 52.1696 84.0599 51.3312C84.2718 51.1459 84.4854 50.9588 84.6511 50.7315C84.8839 50.4136 85.0123 50.0316 85.1257 49.654C85.7883 47.4431 86.2762 45.0164 85.7578 42.7222C85.4799 41.491 84.9017 40.4837 84.1376 39.7051C82.8172 38.36 81.1126 37.7404 79.4251 37.741C76.4302 37.7413 73.4924 39.6932 72.8686 43.0075Z" fill="url(#paint3_radial)"/>
<path d="M82.4773 46.5807C82.5163 46.0819 83.0269 45.5359 83.5393 45.8596C84.07 46.1943 83.9451 47.08 83.7252 47.5678C83.5531 47.9495 82.9763 48.3682 82.5858 48.0126C82.2583 47.7147 82.7667 47.3635 82.7834 47.0916C82.7986 46.8467 82.3111 46.6712 82.5107 46.4093" fill="#FFBFA6"/>
<path d="M82.5781 48.7274C83.1132 48.8891 84.0198 48.479 84.2492 47.7303C84.4786 46.9815 84.454 46.127 84.454 46.127C84.454 46.127 84.7234 46.8048 84.5847 47.8953C84.4462 48.9854 84.0659 50.024 83.2137 50.0379C82.3617 50.0513 82.5781 48.7274 82.5781 48.7274Z" fill="#FFBFA6"/>
<path d="M81.9267 48.1434C81.9092 48.1518 81.8895 48.1581 81.8668 48.1613C81.5354 48.2078 81.4031 47.8051 81.354 47.5533C81.2388 46.9646 81.257 46.3689 81.2369 45.7736C81.2321 45.6245 81.2436 45.4382 81.1826 45.2978C80.9964 44.8698 80.5007 44.5918 80.3492 44.1494C80.173 43.6351 80.6702 43.122 80.4728 42.5592C80.1708 41.6968 79.0682 41.4985 78.2706 41.5078C77.0736 41.522 75.9071 41.7447 74.7261 41.9288C73.4793 42.1233 71.8855 42.3077 70.787 41.5157C69.4629 40.5614 68.91 38.0743 69.8982 36.7123C70.4365 35.9696 71.4582 35.5744 72.353 35.5538C73.3018 35.5318 74.1033 36.0999 74.9737 36.3858C75.6668 36.6134 76.3372 35.9475 76.9848 35.8174C77.7995 35.6543 78.145 36.5469 78.8656 36.5716C79.5654 36.5953 80.2518 36.0461 80.9321 35.9216C82.2889 35.6726 82.209 37.0412 83.1192 37.5085C83.6848 37.7987 84.4158 37.6234 84.9879 37.9186C85.4228 38.1426 85.4838 38.5366 85.5784 38.9833C85.6606 39.3692 85.665 39.8149 85.7914 40.1817C85.9055 40.5118 86.1814 40.7199 86.3964 40.9779C86.6312 41.2598 86.7812 41.5885 86.9003 41.9411C87.1646 42.7242 87.2233 43.5689 87.1512 44.3883C87.03 45.7641 86.5893 47.1184 86.1314 48.4142C85.8349 49.2552 85.7245 50.1303 85.2678 50.926C85.1451 51.14 84.6004 51.7646 84.3976 51.2992C84.3543 51.1995 84.361 51.0862 84.3686 50.9776C84.4288 50.1105 85.2325 44.5257 83.1259 45.1964C82.6837 45.3375 82.3871 45.707 82.222 46.1287C82.0252 46.6328 82.0112 47.1408 82.0363 47.6737C82.04 47.7499 82.0419 47.8264 82.0389 47.9026C82.0352 48.0011 82.0107 48.1012 81.9267 48.1434Z" fill="#233862"/>
<path d="M79.158 54.6118C81.5532 54.2252 83.1339 52.3247 83.1339 52.3247C83.1339 52.3247 82.488 55.5278 79.0141 55.6967L79.158 54.6118Z" fill="#FFBFA6"/>
<path d="M83.0526 98.2627H86.4817V131.302C86.4817 131.637 86.2107 131.909 85.8774 131.909H83.6569C83.3232 131.909 83.0526 131.637 83.0526 131.302V98.2627Z" fill="#002B42"/>
<path d="M75.3386 98.627H94.195V99.1438C94.195 100.445 93.1445 101.5 91.8486 101.5H77.6844C76.3891 101.5 75.3386 100.445 75.3386 99.1438V98.627Z" fill="#395970"/>
<path d="M84.7864 102.273H83.5972V124.871H84.7864V102.273Z" fill="#395970"/>
<path d="M98.2786 74.2002C97.456 74.1741 96.787 74.8582 96.8346 75.6833C97.0701 79.7848 96.2043 89.791 92.4004 93.205C87.7492 97.3793 74.5665 96.8109 74.5665 96.8109C74.5665 96.8109 72.3896 99.494 76.7438 100.09C81.0981 100.686 93.3685 100.289 96.337 97.5066C99.2107 94.8127 100.917 87.7555 99.631 75.4722C99.557 74.7678 98.9836 74.2226 98.2786 74.2002Z" fill="#FFD975"/>
<path d="M96.2142 84.7732C95.9172 85.3696 74.5755 84.7851 72.5597 84.9699C72.5597 84.9699 59.4973 91.2314 57.6211 97.0928C57.4312 97.6832 57.3777 98.4642 57.4371 99.3948C57.9596 107.647 67.3169 127.409 67.3169 127.409L68.7537 126.777L73.563 124.671L74.2461 124.373C74.2461 124.373 66.8242 102.161 68.3084 100.969C69.7927 99.7762 86.6136 96.7949 92.4498 95.2087C98.2922 93.6163 96.2142 84.7732 96.2142 84.7732Z" fill="#67689C"/>
<path d="M72.4445 84.7732L72.2542 84.8568C72.2542 84.8568 50.3872 87.9395 46.8248 94.0992C44.5089 98.1068 48.9909 127.387 48.9909 127.387L56.7273 127.405C56.7273 127.405 55.5705 103.014 55.9561 101.654C56.3898 100.104 57.1319 99.5434 57.429 99.3829C57.3693 98.4521 57.4225 97.6713 57.6128 97.0808C59.4891 91.2191 72.551 84.958 72.551 84.958C72.5097 84.9285 72.474 84.8628 72.4445 84.7732Z" fill="#4B508B"/>
<path d="M93.5412 64.4404L92.0543 64.5338C92.0543 64.5338 91.7336 68.8945 90.8606 72.8659L72.5917 79.8306L72.3419 81.1604C72.2649 81.1544 72.1876 81.1488 72.1166 81.1425C72.1223 81.4167 72.1223 81.6851 72.134 81.9356C72.1759 83.468 72.2764 84.5712 72.437 85.0123C72.4668 85.1019 72.5024 85.1676 72.5441 85.1971C73.0402 85.6035 79.5019 84.8161 86.4875 87.392C92.5455 89.626 95.9413 92.0665 96.0982 91.7387C98.0024 87.7632 94.5207 71.882 93.5412 64.4404Z" fill="#F99746"/>
<path d="M91.6504 73.6173C91.1636 75.9667 89.9049 80.6416 87.4347 81.2679C84.2106 82.0908 77.9766 82.049 72.134 81.7329C72.1223 81.4824 72.1223 81.2142 72.1166 80.9398C72.1876 80.9461 72.2649 80.9517 72.3419 80.9577L72.5917 79.6278L90.8606 72.6632C91.7336 68.6918 92.09 64.7205 92.09 64.7205C92.09 64.7205 92.0899 64.7444 92.0955 64.7862C92.1312 65.4005 92.381 70.1471 91.6504 73.6173Z" fill="#FF8072"/>
<path d="M73.3629 58.887C73.0362 59.4834 72.5669 65.8635 72.3119 72.1963L68.577 68.6959C70.1625 65.6132 73.3629 58.887 73.3629 58.887Z" fill="#F58437"/>
<path d="M71.0923 76.7662C67.9395 77.3148 65.042 77.7858 65.042 77.7858L65.036 77.9409C61.5272 75.1263 56.1889 67.1541 56.1889 67.1541C56.1889 67.1541 58.1017 65.5068 58.5 65C58.5591 64.9227 66.9481 70.6605 67.3932 70.6067C67.5062 70.5947 67.9514 69.8076 68.5452 68.6386L72.2797 72.1391C72.2202 73.6475 72.1726 75.1502 72.1429 76.5756C71.7927 76.6411 71.4423 76.7009 71.0923 76.7662Z" fill="#FFBFA6"/>
<path d="M55.4629 80.4787H64.9624L65.0397 77.8669L62.54 78.1174C62.54 78.1174 61.5484 76.7517 58.978 76.7517C56.4067 76.7517 55.4629 80.4787 55.4629 80.4787Z" fill="url(#paint4_radial)"/>
<path d="M58.5 65V65.5C58.1019 66.007 56.5 67 56.5 67L55.0498 66.4743C55.0498 66.4743 53.9576 67.1424 52.687 66.4444C51.3625 65.7231 52.182 64.0004 52.2501 63.7961C51.9936 63.8689 50.4068 65.1566 50.1574 65.0196C49.9081 64.8822 49.7241 64.4291 51.4997 62.6702C53.2686 60.9112 55.6793 63.171 55.7507 63.171L58.5 65Z" fill="#FFBFA6"/>
<path d="M53.0744 66.0459C53.0744 66.0459 52.6917 66.7659 53.3722 67.0788C54.0524 67.3914 55.3762 67.6173 55.9451 67.5624C56.5137 67.5076 56.9661 66.708 56.9661 66.708L55.2437 65.085H53.8668L53.0744 66.0459Z" fill="#FFBFA6"/>
<path d="M52.9363 66.4316C53.0382 66.078 54.0164 66.2665 54.6223 66.2811C55.0692 66.2916 55.3136 66.1743 55.4523 65.8329C55.5902 65.4906 54.9417 64.9464 54.8142 65.1174C54.6863 65.2878 55.0478 65.5286 55.0588 65.7553C55.0692 65.9821 54.4207 66.0567 53.9209 66.0567C53.4215 66.0567 52.5588 66.1878 52.5588 66.1878L52.9363 66.4316Z" fill="#F5AA90"/>
<path d="M78.5299 75.1562C77.4429 75.4425 74.8185 75.937 72.1704 76.4024C71.8204 76.4677 71.4699 76.5274 71.1199 76.5931C67.967 77.1417 65.0695 77.6127 65.0695 77.6127L65.0636 77.7677V77.8688L64.9922 80.2246V80.8225C64.9922 80.8225 68.151 80.6597 72.1351 80.9401C77.7104 81.3394 84.9005 81.5781 87.2811 80.4512C88.3974 79.9203 89.2883 78.1793 89.9886 76.0326C89.9769 76.0385 89.9648 76.0445 89.9533 76.0505L80.6491 72.7412C79.9722 74.0111 79.2479 74.9656 78.5299 75.1562Z" fill="url(#paint5_radial)"/>
<path d="M80.6553 72.7412L89.9595 76.0509L89.5382 77.2993L80.3299 73.332L80.6553 72.7412Z" fill="#FFBFA6"/>
<path d="M80.6404 72.7064C79.9636 73.9765 79.2389 74.9309 78.5211 75.1215C77.4345 75.4079 74.81 75.9027 72.162 76.3677C72.1915 74.9427 72.2393 73.4398 72.2986 71.9313C72.5536 65.5988 73.0229 59.2182 73.3497 58.6218C73.8837 57.6261 75.3444 55.4615 77.6481 54.9667L77.654 54.9964C77.654 54.9964 76.8583 59.7191 81.608 59.7191C86.1326 59.7191 86.7086 55.3006 86.7497 54.8774C89.0775 55.1397 92.6461 56.3083 93.139 61.0071C93.2396 61.9376 93.382 63.1301 93.5664 64.4836L92.0995 64.6863C92.0995 64.6863 91.5056 71.3053 89.9802 75.9983C89.9683 76.0039 89.9561 76.0101 89.9445 76.016L80.6404 72.7064Z" fill="#F99746"/>
<path d="M86.7528 54.8774H84.7285C84.7285 54.8774 81.847 58.0546 79.9949 58.0546C78.1429 58.0546 79.1413 54.8954 79.1413 54.8954H78.2376C75.6422 54.8954 73.4579 56.8528 73.1638 59.443C73.1304 59.7398 73.0995 60.0211 73.0731 60.2757C72.8752 62.1977 80.6281 63.5966 80.6281 63.5966L84.62 63.3722L87.0441 58.6224L87.5271 56.6771L86.7528 54.8774Z" fill="#F99746"/>
<path d="M32.6988 80.9279L25.6951 62.1685H45.634L52.6372 80.9279H32.6988Z" fill="#B8C2C6"/>
<path d="M53.8519 80.9279H52.6192L45.6157 62.1685L46.735 62.2185L53.2129 79.1985L53.8519 80.9279Z" fill="#94A5AF"/>
<path d="M53.4637 80.8512H66.6388L66.6025 79.6685H53.194" fill="#94A5AF"/>
<path d="M109.594 84.4084H106.422V136.746H109.594V84.4084Z" fill="#94A5AF"/>
<path d="M92.3961 84.4084H89.2239V136.746H92.3961V84.4084Z" fill="#B8C2C6"/>
<path d="M37.2165 84.4084H34.0443V136.746H37.2165V84.4084Z" fill="#94A5AF"/>
<path d="M20.0185 84.4084H16.8463L16.669 137.204H20.0594L20.0185 84.4084Z" fill="#B8C2C6"/>
<path d="M112.789 84.9036H13.805C12.9535 84.9036 12.2632 84.2105 12.2632 83.3555V82.6755C12.2632 81.8204 12.9535 81.1274 13.805 81.1274H112.789C113.641 81.1274 114.331 81.8204 114.331 82.6755V83.3555C114.331 84.2105 113.641 84.9036 112.789 84.9036Z" fill="#112767"/>
<path d="M29.0076 64.3555L29.3486 65.269H33.3206L32.9794 64.3555H29.0076Z" fill="#94A5AF"/>
<path d="M68.5448 68.7311L68.2595 69.2841L72.2797 73.4565V72.2316L68.5448 68.731V68.7311Z" fill="#F5AA90"/>
<path d="M28.2095 37H13.7899C12.2539 37 11 35.7461 11 34.21V19.79C11 18.2539 12.2539 17 13.7899 17H28.2095C29.7455 17 30.9994 18.2539 30.9994 19.79V34.21C31.0308 35.7461 29.7769 37 28.2095 37Z" fill="#AC64F2"/>
<path d="M21.0489 20.9964C20.5441 20.9988 20.0619 21.0418 19.6377 21.1169C18.388 21.3377 18.1611 21.7998 18.1611 22.6521V23.7776H21.1143V24.1528H18.1611H17.0528C16.1946 24.1528 15.443 24.6687 15.208 25.6501C14.9368 26.775 14.9248 27.4769 15.208 28.6515C15.4179 29.5258 15.9192 30.1488 16.7775 30.1488H17.7929V28.7995C17.7929 27.8248 18.6362 26.9649 19.6377 26.9649H22.5875C23.4086 26.9649 24.0641 26.2888 24.0641 25.4642V22.6521C24.0641 21.8517 23.3889 21.2505 22.5875 21.1169C22.0802 21.0325 21.5538 20.9941 21.0489 20.9964ZM19.4519 21.9017C19.7569 21.9017 20.006 22.1549 20.006 22.4662C20.006 22.7764 19.7569 23.0272 19.4519 23.0272C19.1457 23.0272 18.8977 22.7764 18.8977 22.4662C18.8977 22.1549 19.1457 21.9017 19.4519 21.9017Z" fill="white"/>
<path d="M24.4336 24.1523V25.4638C24.4336 26.4805 23.5716 27.3362 22.5887 27.3362H19.6389C18.831 27.3362 18.1624 28.0278 18.1624 28.837V31.6491C18.1624 32.4494 18.8583 32.9202 19.6389 33.1498C20.5738 33.4247 21.4702 33.4744 22.5887 33.1498C23.3322 32.9346 24.0653 32.5013 24.0653 31.6491V30.5236H21.1155V30.1484H24.0653H25.5419C26.4001 30.1484 26.72 29.5497 27.0185 28.6511C27.3268 27.726 27.3137 26.8364 27.0185 25.6496C26.8063 24.7952 26.4012 24.1523 25.5419 24.1523H24.4336ZM22.7745 31.2739C23.0807 31.2739 23.3287 31.5248 23.3287 31.835C23.3287 32.1463 23.0807 32.3995 22.7745 32.3995C22.4695 32.3995 22.2204 32.1463 22.2204 31.835C22.2204 31.5248 22.4695 31.2739 22.7745 31.2739Z" fill="white"/>
</g>
<path d="M28.2095 37H13.7899C12.2539 37 11 35.7461 11 34.21V19.79C11 18.2539 12.2539 17 13.7899 17H28.2095C29.7455 17 30.9994 18.2539 30.9994 19.79V34.21C31.0308 35.7461 29.7769 37 28.2095 37Z" fill="#AC64F2"/>
<path d="M21.0489 20.996C20.5441 20.9983 20.0619 21.0414 19.6377 21.1164C18.388 21.3372 18.1611 21.7993 18.1611 22.6516V23.7771H21.1143V24.1523H18.1611H17.0528C16.1946 24.1523 15.443 24.6682 15.208 25.6496C14.9368 26.7745 14.9248 27.4765 15.208 28.651C15.4179 29.5254 15.9192 30.1483 16.7775 30.1483H17.7929V28.799C17.7929 27.8243 18.6362 26.9644 19.6377 26.9644H22.5875C23.4086 26.9644 24.0641 26.2884 24.0641 25.4637V22.6516C24.0641 21.8512 23.3889 21.25 22.5875 21.1164C22.0802 21.032 21.5538 20.9936 21.0489 20.996ZM19.4519 21.9012C19.7569 21.9012 20.006 22.1544 20.006 22.4657C20.006 22.7759 19.7569 23.0268 19.4519 23.0268C19.1457 23.0268 18.8977 22.7759 18.8977 22.4657C18.8977 22.1544 19.1457 21.9012 19.4519 21.9012Z" fill="white"/>
<path d="M24.4335 24.1519V25.4633C24.4335 26.48 23.5715 27.3357 22.5886 27.3357H19.6389C18.8309 27.3357 18.1623 28.0273 18.1623 28.8365V31.6486C18.1623 32.449 18.8582 32.9197 19.6389 33.1493C20.5737 33.4242 21.4701 33.4739 22.5886 33.1493C23.3321 32.9341 24.0652 32.5008 24.0652 31.6486V30.5231H21.1155V30.1479H24.0652H25.5418C26.4001 30.1479 26.7199 29.5492 27.0184 28.6506C27.3267 27.7255 27.3136 26.8359 27.0184 25.6491C26.8063 24.7947 26.4012 24.1519 25.5418 24.1519H24.4335ZM22.7745 31.2734C23.0806 31.2734 23.3286 31.5243 23.3286 31.8345C23.3286 32.1458 23.0806 32.399 22.7745 32.399C22.4694 32.399 22.2203 32.1458 22.2203 31.8345C22.2203 31.5243 22.4694 31.2734 22.7745 31.2734Z" fill="white"/>
<defs>
<linearGradient id="paint0_linear" x1="61" y1="-26" x2="61" y2="115" gradientUnits="userSpaceOnUse">
<stop stop-color="#3A36FF"/>
<stop offset="1" stop-color="white"/>
</linearGradient>
<linearGradient id="paint1_linear" x1="61" y1="5" x2="61" y2="115" gradientUnits="userSpaceOnUse">
<stop stop-color="#CFCEFE"/>
<stop offset="1" stop-color="white"/>
</linearGradient>
<radialGradient id="paint2_radial" cx="0" cy="0" r="1" gradientUnits="userSpaceOnUse" gradientTransform="translate(82.1803 54.8172) scale(4.80332 4.82403)">
<stop stop-color="#FFD3BE"/>
<stop offset="1" stop-color="#FFC9AE"/>
</radialGradient>
<radialGradient id="paint3_radial" cx="0" cy="0" r="1" gradientUnits="userSpaceOnUse" gradientTransform="translate(79.4035 45.9998) rotate(-12.2036) scale(7.57413 7.60387)">
<stop stop-color="#FFD3BE"/>
<stop offset="1" stop-color="#FFC9AE"/>
</radialGradient>
<radialGradient id="paint4_radial" cx="0" cy="0" r="1" gradientUnits="userSpaceOnUse" gradientTransform="translate(69.5366 76.7284) rotate(9.15966) scale(15.403 15.466)">
<stop stop-color="#FFD3BE"/>
<stop offset="1" stop-color="#FFC9AE"/>
</radialGradient>
<radialGradient id="paint5_radial" cx="0" cy="0" r="1" gradientUnits="userSpaceOnUse" gradientTransform="translate(69.5666 76.4748) rotate(9.1597) scale(15.403 15.466)">
<stop stop-color="#FFD3BE"/>
<stop offset="1" stop-color="#FFC9AE"/>
</radialGradient>
</defs>
</svg>
