<svg width="24" height="24" viewBox="0 0 24 24" fill="none" xmlns="http://www.w3.org/2000/svg">
<path d="M21 12C21 7.02939 16.9706 2.99996 12 2.99996C7.02943 2.99996 3 7.02939 3 12C3 16.4921 6.29117 20.2154 10.5938 20.8906V14.6015H8.30859V12H10.5938V10.0171C10.5938 7.76152 11.9374 6.51558 13.9932 6.51558C14.9779 6.51558 16.0078 6.69136 16.0078 6.69136V8.90621H14.8729C13.7549 8.90621 13.4062 9.59996 13.4062 10.3117V12H15.9023L15.5033 14.6015H13.4062V20.8906C17.7088 20.2154 21 16.4921 21 12Z" fill="#1877F2"/>
<path d="M15.5033 14.6016L15.9023 12H13.4062V10.3117C13.4062 9.60001 13.7549 8.90625 14.8729 8.90625H16.0078V6.69141C16.0078 6.69141 14.9779 6.51562 13.9932 6.51562C11.9374 6.51562 10.5937 7.76156 10.5937 10.0172V12H8.30859V14.6016H10.5937V20.8907C11.052 20.9626 11.5216 21 12 21C12.4784 21 12.948 20.9626 13.4062 20.8907V14.6016H15.5033Z" fill="white"/>
</svg>
