<svg width="24" height="24" viewBox="0 0 24 24" fill="none" xmlns="http://www.w3.org/2000/svg">
<g clip-path="url(#clip0_4116_15707)">
<path d="M8.66079 19.6174C15.4536 19.6174 19.1683 13.9942 19.1683 9.11804C19.1683 8.95833 19.165 8.79933 19.1579 8.64106C19.8789 8.12018 20.5057 7.47018 21 6.73023C20.3383 7.02412 19.6262 7.22196 18.8792 7.31117C19.6417 6.85433 20.227 6.13165 20.5032 5.27015C19.7897 5.69282 18.9995 6.00002 18.1582 6.16588C17.4842 5.44862 16.5248 5 15.4625 5C13.4231 5 11.7693 6.65258 11.7693 8.68961C11.7693 8.97918 11.8017 9.26085 11.865 9.53102C8.79571 9.3767 6.07406 7.90832 4.25259 5.67555C3.93543 6.22088 3.75255 6.85434 3.75255 7.53026C3.75255 8.81051 4.40453 9.94071 5.39596 10.6019C4.79007 10.5832 4.22091 10.417 3.72344 10.1404C3.72289 10.1559 3.72289 10.171 3.72289 10.1875C3.72289 11.9746 4.99586 13.4667 6.68566 13.8048C6.37534 13.8893 6.04885 13.9347 5.71186 13.9347C5.47427 13.9347 5.24278 13.9113 5.01778 13.8681C5.48794 15.3343 6.85128 16.4013 8.46763 16.4311C7.20367 17.421 5.61142 18.0106 3.8809 18.0106C3.58318 18.0106 3.28907 17.9937 3 17.9596C4.63441 19.0063 6.57513 19.6171 8.66098 19.6171" fill="#1DA1F2"/>
</g>
<defs>
<clipPath id="clip0_4116_15707">
<rect width="18" height="18" fill="white" transform="translate(3 3)"/>
</clipPath>
</defs>
</svg>
