<svg width="24" height="24" viewBox="0 0 24 24" fill="none" xmlns="http://www.w3.org/2000/svg">
<rect x="3.84204" y="5.68335" width="15.1488" height="14.3072" fill="white"/>
<path d="M17.4848 18.342H14.9659V14.4362C14.9659 13.5048 14.9492 12.3059 13.6559 12.3059C12.344 12.3059 12.1432 13.3206 12.1432 14.3684V18.3417H9.62435V10.3098H12.0425V11.4075H12.0763C12.3183 10.9978 12.668 10.6607 13.0882 10.4323C13.5083 10.2038 13.9832 10.0924 14.4622 10.11C17.0152 10.11 17.4859 11.7727 17.4859 13.9358L17.4848 18.342ZM6.78224 9.21192C6.49313 9.21197 6.2105 9.12714 5.97009 8.96814C5.72968 8.80915 5.5423 8.58314 5.43162 8.31869C5.32093 8.05425 5.29193 7.76324 5.34828 7.48248C5.40463 7.20171 5.5438 6.9438 5.74819 6.74135C5.95258 6.5389 6.21301 6.401 6.49655 6.34511C6.78009 6.28921 7.07399 6.31782 7.34111 6.42732C7.60823 6.53682 7.83655 6.72228 7.99721 6.96027C8.15787 7.19825 8.24365 7.47807 8.24371 7.76432C8.24374 7.95439 8.20596 8.1426 8.13253 8.31821C8.05911 8.49383 7.95148 8.6534 7.81577 8.78782C7.68006 8.92224 7.51892 9.02888 7.34159 9.10165C7.16426 9.17441 6.97419 9.21188 6.78224 9.21192ZM8.04167 18.342H5.52018V10.3098H8.04167V18.342ZM18.7406 4.00115H4.25445C3.92566 3.99747 3.60883 4.1232 3.3736 4.3507C3.13838 4.57819 3.00401 4.88885 3 5.2144V19.6174C3.00388 19.9431 3.13817 20.2539 3.37338 20.4817C3.60859 20.7094 3.92549 20.8354 4.25445 20.8319H18.7406C19.0702 20.836 19.388 20.7104 19.6241 20.4827C19.8602 20.2549 19.9954 19.9437 20 19.6174V5.21336C19.9953 4.88717 19.86 4.57616 19.6239 4.34866C19.3877 4.12117 19.07 3.99581 18.7406 4.00011" fill="#0A66C2"/>
</svg>
