<svg width="24" height="24" viewBox="0 0 24 24" fill="none" xmlns="http://www.w3.org/2000/svg">
<path d="M20.6292 7.68265C20.4217 6.90717 19.8138 6.29574 19.0428 6.08696C17.6342 5.69922 12 5.69922 12 5.69922C12 5.69922 6.36572 5.69922 4.95716 6.07204C4.20098 6.28083 3.57825 6.90717 3.37067 7.68265C3 9.09938 3 12.0372 3 12.0372C3 12.0372 3 14.99 3.37067 16.3918C3.57825 17.1673 4.18616 17.7788 4.95716 17.9875C6.38055 18.3753 12 18.3753 12 18.3753C12 18.3753 17.6342 18.3753 19.0428 18.0024C19.8138 17.7937 20.4217 17.1822 20.6292 16.4068C20.9999 14.99 20.9999 12.0522 20.9999 12.0522C20.9999 12.0522 21.0147 9.09938 20.6292 7.68265Z" fill="#FF0000"/>
<path d="M14.8913 12.0364L10.2059 9.32227V14.7506L14.8913 12.0364Z" fill="white"/>
</svg>
