<svg width="18" height="18" viewBox="0 0 18 18" fill="none" xmlns="http://www.w3.org/2000/svg">
<g clip-path="url(#clip0)">
<path d="M15.3093 2.61577C13.6247 0.929949 11.3846 0.00102856 8.99792 0C4.07983 0 0.0774877 4.00106 0.0755188 8.91894C0.0749457 10.491 0.485693 12.0255 1.26641 13.3781L0.000610352 18L4.73048 16.7598C6.03365 17.4705 7.50093 17.845 8.99409 17.8456H8.99788H8.99792C13.9152 17.8456 17.9182 13.8438 17.9202 8.92616C17.9211 6.54273 16.9938 4.30171 15.3093 2.61577ZM8.99792 16.3391H8.99503C7.6641 16.3384 6.35895 15.9811 5.22054 15.3056L4.94962 15.145L2.14282 15.8809L2.8922 13.1453L2.71568 12.8648C1.97328 11.6844 1.58136 10.3202 1.58192 8.91951C1.58355 4.83193 4.91014 1.5065 9.00073 1.5065C10.9816 1.50732 12.8434 2.27945 14.2436 3.68065C15.6438 5.08184 16.4143 6.94453 16.4137 8.92553C16.412 13.0132 13.0853 16.3391 8.99792 16.3391Z" fill="#E0E0E0"/>
<path d="M0.410278 17.4872L1.61826 13.0765C0.873012 11.7856 0.481102 10.321 0.481572 8.82113C0.483526 4.128 4.30308 0.309814 8.99611 0.309814C11.2739 0.310843 13.4117 1.19728 15.019 2.80614C16.6267 4.41498 17.5116 6.55348 17.5106 8.82779C17.5087 13.521 13.6889 17.3396 8.99644 17.3396C8.99611 17.3396 8.99668 17.3396 8.99644 17.3396H8.99265C7.5677 17.3391 6.16756 16.9814 4.924 16.3037L0.410278 17.4872Z" fill="url(#paint0_linear)"/>
<path fill-rule="evenodd" clip-rule="evenodd" d="M6.793 5.13241C6.62794 4.7654 6.45414 4.75806 6.2971 4.75164C6.16865 4.74613 6.02159 4.74646 5.87478 4.74646C5.72784 4.74646 5.48907 4.80168 5.28715 5.02221C5.08512 5.24273 4.51575 5.77583 4.51575 6.86006C4.51575 7.94441 5.30552 8.99215 5.41561 9.1393C5.52581 9.28624 6.94017 11.5824 9.18012 12.4657C11.0417 13.1998 11.4205 13.0538 11.8246 13.0171C12.2287 12.9803 13.1284 12.4841 13.3121 11.9694C13.4958 11.4549 13.4958 11.0139 13.4407 10.9217C13.3856 10.8299 13.2386 10.7748 13.0182 10.6646C12.7978 10.5544 11.7144 10.0211 11.5124 9.94768C11.3103 9.87421 11.1634 9.83747 11.0165 10.0581C10.8695 10.2785 10.4474 10.7748 10.3189 10.9217C10.1903 11.069 10.0617 11.0873 9.84133 10.9771C9.62092 10.8666 8.91116 10.6341 8.06916 9.88338C7.41404 9.2993 6.97173 8.57793 6.84317 8.35731C6.7146 8.1369 6.82938 8.01751 6.93994 7.90765C7.03888 7.80892 7.16034 7.65039 7.27054 7.5217C7.38051 7.39302 7.41724 7.30118 7.49071 7.15424C7.56417 7.00707 7.52744 6.8784 7.47234 6.7682C7.41724 6.65799 6.98895 5.56816 6.793 5.13241Z" fill="white"/>
<path d="M15.2364 2.58746C13.5711 0.92099 11.3567 0.00275224 8.99744 0.00170898C4.13578 0.00170898 0.179389 3.95684 0.177435 8.81826C0.176862 10.3722 0.582893 11.8891 1.35465 13.2263L0.103394 17.7951L4.77897 16.5691C6.06719 17.2716 7.51762 17.6418 8.99365 17.6424H8.99739H8.99744C13.8583 17.6424 17.8152 13.6866 17.8173 8.82537C17.8181 6.46934 16.9015 4.25405 15.2364 2.58746ZM8.99744 16.1533H8.99457C7.67891 16.1526 6.38873 15.7994 5.2634 15.1316L4.99558 14.9729L2.221 15.7003L2.96177 12.9961L2.78728 12.7189C2.05341 11.552 1.66598 10.2035 1.66655 8.81885C1.66815 4.7782 4.95656 1.49094 9.0002 1.49094C10.9584 1.49175 12.7988 2.25502 14.1829 3.64013C15.567 5.02525 16.3287 6.86654 16.3281 8.82483C16.3264 12.8656 13.0378 16.1533 8.99744 16.1533Z" fill="white"/>
</g>
<defs>
<linearGradient id="paint0_linear" x1="8.96046" y1="17.4872" x2="8.96046" y2="0.309843" gradientUnits="userSpaceOnUse">
<stop stop-color="#20B038"/>
<stop offset="1" stop-color="#60D66A"/>
</linearGradient>
<clipPath id="clip0">
<rect width="18" height="18" fill="white"/>
</clipPath>
</defs>
</svg>
