<svg width="102" height="25" viewBox="0 0 102 25" fill="none" xmlns="http://www.w3.org/2000/svg">
<path d="M30.066 14.0583H32.6158V23.0727H30.066V14.0583Z" fill="#073C71"/>
<path d="M43.0063 14.0583V23.0727H40.9073L36.9281 18.2693V23.0727H34.4298V14.0583H36.5289L40.5081 18.8617V14.0583H43.0063Z" fill="#073C71"/>
<path d="M46.7236 16.0801H43.9549V14.0583H52.0292V16.0801H49.2734V23.0727H46.7236V16.0801Z" fill="#073C71"/>
<path d="M60.2163 21.1024V23.0727H52.9791V14.0583H60.0489V16.0286H55.5031V17.5482H59.5081V19.4541H55.5031V21.1024H60.2163Z" fill="#073C71"/>
<path d="M70.2078 14.0583V23.0727H68.1087L64.1295 18.2693V23.0727H61.6313V14.0583H63.7303L67.7095 18.8617V14.0583H70.2078Z" fill="#073C71"/>
<path d="M75.1742 23.253C74.4445 23.253 73.7362 23.1628 73.0494 22.9825C72.3626 22.8022 71.8046 22.5619 71.3753 22.2614L72.2124 20.3813C72.6159 20.6474 73.0837 20.862 73.616 21.0251C74.1483 21.1882 74.672 21.2698 75.1871 21.2698C76.1658 21.2698 76.6551 21.0251 76.6551 20.5358C76.6551 20.2782 76.5135 20.0894 76.2302 19.9692C75.9555 19.8404 75.509 19.7073 74.8909 19.57C74.2127 19.424 73.6461 19.2695 73.1911 19.1064C72.736 18.9347 72.3454 18.6642 72.0192 18.2951C71.693 17.9259 71.5298 17.428 71.5298 16.8013C71.5298 16.2518 71.6801 15.7582 71.9806 15.3203C72.281 14.8739 72.7275 14.5219 73.3198 14.2644C73.9208 14.0068 74.6548 13.8781 75.5219 13.8781C76.1143 13.8781 76.6981 13.9467 77.2733 14.0841C77.8485 14.2129 78.355 14.406 78.7928 14.6636L78.0073 16.5566C77.1488 16.093 76.316 15.8612 75.509 15.8612C75.0025 15.8612 74.6334 15.9385 74.4016 16.093C74.1698 16.2389 74.0539 16.4321 74.0539 16.6725C74.0539 16.9129 74.1912 17.0932 74.4659 17.2134C74.7407 17.3335 75.1828 17.458 75.7923 17.5868C76.4791 17.7328 77.0458 17.8916 77.4922 18.0633C77.9472 18.2264 78.3378 18.4925 78.664 18.8617C78.9989 19.2223 79.1663 19.7159 79.1663 20.3426C79.1663 20.8835 79.016 21.3728 78.7156 21.8107C78.4151 22.2485 77.9644 22.6005 77.3634 22.8666C76.7625 23.1242 76.0327 23.253 75.1742 23.253Z" fill="#073C71"/>
<path d="M80.3441 14.0583H82.8938V23.0727H80.3441V14.0583Z" fill="#073C71"/>
<path d="M93.8258 14.0583L89.9626 23.0727H87.4514L83.601 14.0583H86.3568L88.8036 19.9305L91.3018 14.0583H93.8258Z" fill="#073C71"/>
<path d="M101.591 21.1024V23.0727H94.3535V14.0583H101.423V16.0286H96.8775V17.5482H100.882V19.4541H96.8775V21.1024H101.591Z" fill="#073C71"/>
<path d="M36.1322 9.36986L35.2058 8.43405C34.9474 8.67352 34.6859 8.86257 34.4212 9.00121C34.1629 9.13985 33.8446 9.20917 33.4665 9.20917C33.1829 9.20917 32.9214 9.1556 32.682 9.04847C32.4488 8.93504 32.2471 8.7838 32.077 8.59475C31.9132 8.4057 31.784 8.18514 31.6894 7.93307C31.5949 7.681 31.5477 7.41318 31.5477 7.1296V7.11069C31.5477 6.82712 31.5949 6.56244 31.6894 6.31668C31.784 6.06461 31.9163 5.84405 32.0865 5.655C32.2566 5.46594 32.4583 5.31785 32.6914 5.21072C32.9309 5.10359 33.1893 5.05003 33.4665 5.05003C33.8005 5.05003 34.0999 5.1162 34.3645 5.24853C34.6355 5.38087 34.9002 5.56362 35.1585 5.79678L36.0849 4.72864C35.9337 4.5774 35.7698 4.43876 35.5934 4.31273C35.4169 4.18669 35.2247 4.07956 35.0168 3.99134C34.8088 3.90312 34.5756 3.8338 34.3173 3.78338C34.0652 3.73297 33.7848 3.70776 33.476 3.70776C32.9655 3.70776 32.4992 3.79914 32.077 3.98189C31.6548 4.15834 31.2924 4.4041 30.99 4.71919C30.6875 5.02797 30.4512 5.39032 30.281 5.80624C30.1109 6.21585 30.0258 6.65697 30.0258 7.1296V7.1485C30.0258 7.62113 30.1109 8.0654 30.281 8.48132C30.4512 8.89723 30.6875 9.25958 30.99 9.56836C31.2924 9.87085 31.6516 10.1103 32.0675 10.2868C32.4835 10.4632 32.934 10.5514 33.4193 10.5514C33.7407 10.5514 34.0305 10.5231 34.2889 10.4664C34.5473 10.4159 34.7836 10.3403 34.9978 10.2395C35.2184 10.1324 35.4201 10.0063 35.6028 9.86139C35.7856 9.71645 35.962 9.55261 36.1322 9.36986Z" fill="#073C71"/>
<path d="M43.1108 9.36986L42.1845 8.43405C41.9261 8.67352 41.6646 8.86257 41.3999 9.00121C41.1415 9.13985 40.8233 9.20917 40.4452 9.20917C40.1616 9.20917 39.9001 9.1556 39.6606 9.04847C39.4275 8.93504 39.2258 8.7838 39.0557 8.59475C38.8918 8.4057 38.7626 8.18514 38.6681 7.93307C38.5736 7.681 38.5263 7.41318 38.5263 7.1296V7.11069C38.5263 6.82712 38.5736 6.56244 38.6681 6.31668C38.7626 6.06461 38.895 5.84405 39.0651 5.655C39.2353 5.46594 39.4369 5.31785 39.6701 5.21072C39.9095 5.10359 40.1679 5.05003 40.4452 5.05003C40.7792 5.05003 41.0785 5.1162 41.3432 5.24853C41.6142 5.38087 41.8788 5.56362 42.1372 5.79678L43.0636 4.72864C42.9123 4.5774 42.7485 4.43876 42.572 4.31273C42.3956 4.18669 42.2034 4.07956 41.9954 3.99134C41.7875 3.90312 41.5543 3.8338 41.2959 3.78338C41.0439 3.73297 40.7634 3.70776 40.4546 3.70776C39.9442 3.70776 39.4779 3.79914 39.0557 3.98189C38.6334 4.15834 38.2711 4.4041 37.9686 4.71919C37.6661 5.02797 37.4298 5.39032 37.2597 5.80624C37.0895 6.21585 37.0045 6.65697 37.0045 7.1296V7.1485C37.0045 7.62113 37.0895 8.0654 37.2597 8.48132C37.4298 8.89723 37.6661 9.25958 37.9686 9.56836C38.2711 9.87085 38.6303 10.1103 39.0462 10.2868C39.4621 10.4632 39.9127 10.5514 40.3979 10.5514C40.7193 10.5514 41.0092 10.5231 41.2676 10.4664C41.5259 10.4159 41.7623 10.3403 41.9765 10.2395C42.1971 10.1324 42.3987 10.0063 42.5815 9.86139C42.7642 9.71645 42.9407 9.55261 43.1108 9.36986Z" fill="#073C71"/>
<path d="M49.9004 8.62311V8.6042C49.9004 8.16308 49.7902 7.81964 49.5696 7.57387C49.349 7.3218 49.0465 7.1233 48.6621 6.97836C48.7819 6.91534 48.8922 6.83972 48.993 6.75149C49.1001 6.66327 49.1915 6.56244 49.2671 6.44901C49.349 6.32928 49.412 6.19694 49.4562 6.052C49.5066 5.90706 49.5318 5.74007 49.5318 5.55102V5.53211C49.5318 5.00907 49.3364 4.59316 48.9457 4.28437C48.5613 3.97559 48.0288 3.82119 47.3482 3.82119H44.2761V10.438H47.4239C47.7957 10.438 48.1328 10.4002 48.4353 10.3246C48.7441 10.249 49.0056 10.1355 49.2198 9.98428C49.4404 9.83304 49.6074 9.64398 49.7208 9.41712C49.8406 9.19026 49.9004 8.92559 49.9004 8.62311ZM48.0855 5.79678C48.0855 6.04255 47.991 6.22215 47.802 6.33558C47.6129 6.44271 47.3577 6.49627 47.0363 6.49627H45.694V5.09729H47.1308C47.4396 5.09729 47.6759 5.15716 47.8398 5.27689C48.0036 5.39032 48.0855 5.55732 48.0855 5.77788V5.79678ZM48.4542 8.44351C48.4542 8.68927 48.3628 8.87202 48.1801 8.99176C47.9973 9.10519 47.7452 9.1619 47.4239 9.1619H45.694V7.70621H47.3766C47.7547 7.70621 48.0288 7.77237 48.199 7.90471C48.3691 8.03074 48.4542 8.20404 48.4542 8.4246V8.44351Z" fill="#073C71"/>
<path d="M56.3346 6.12762V6.10872C56.3346 5.76843 56.2747 5.45964 56.155 5.18237C56.0416 4.89879 55.8746 4.65617 55.654 4.45452C55.4398 4.25286 55.1751 4.09847 54.86 3.99134C54.5512 3.87791 54.1983 3.82119 53.8013 3.82119H51.0979V10.438H52.5536V8.45296H53.6595C54.0313 8.45296 54.3779 8.4057 54.6993 8.31117C55.027 8.21034 55.3106 8.06225 55.55 7.8669C55.7958 7.67155 55.988 7.42893 56.1267 7.13905C56.2653 6.84917 56.3346 6.51203 56.3346 6.12762ZM54.86 6.15598C54.86 6.43956 54.7592 6.67902 54.5575 6.87438C54.3559 7.06343 54.0723 7.15796 53.7068 7.15796H52.5536V5.1351H53.6784C54.0439 5.1351 54.3307 5.22018 54.5386 5.39032C54.7529 5.56047 54.86 5.80939 54.86 6.13708V6.15598Z" fill="#073C71"/>
<path d="M63.3746 3.77393L59.7449 7.98033L59.9812 9.01066H63.2139V10.438H64.6035V9.01066H65.492V7.82909H64.6035V3.77393H63.3746ZM63.2139 7.82909H61.4558L63.2139 5.76843V7.82909Z" fill="#073C71"/>
<path d="M68.0863 10.438V8.92559H66.555V10.438H68.0863Z" fill="#073C71"/>
<path d="M75.0636 7.12015C75.0636 6.64121 74.9943 6.19379 74.8556 5.77788C74.717 5.36197 74.5185 4.99962 74.2601 4.69083C74.008 4.38205 73.6992 4.14258 73.3337 3.97244C72.9746 3.79599 72.5744 3.70776 72.1333 3.70776C71.6922 3.70776 71.2888 3.79599 70.9233 3.97244C70.5641 4.14888 70.2554 4.3915 69.997 4.70028C69.7386 5.00907 69.537 5.37457 69.392 5.79678C69.2534 6.2127 69.1841 6.66012 69.1841 7.13905C69.1841 7.62428 69.2534 8.07486 69.392 8.49077C69.5307 8.90038 69.726 9.25958 69.9781 9.56836C70.2365 9.87715 70.5452 10.1198 70.9044 10.2962C71.2699 10.4664 71.6732 10.5514 72.1144 10.5514C72.5555 10.5514 72.9556 10.4632 73.3148 10.2868C73.6803 10.1103 73.9923 9.8677 74.2506 9.55891C74.509 9.25013 74.7075 8.88778 74.8462 8.47186C74.9911 8.05595 75.0636 7.60538 75.0636 7.12015ZM73.5701 7.13905C73.5701 7.44153 73.5354 7.72196 73.4661 7.98033C73.4031 8.2324 73.3085 8.45296 73.1825 8.64201C73.0565 8.83106 72.9052 8.97915 72.7288 9.08628C72.5523 9.18711 72.3538 9.23752 72.1333 9.23752C71.9127 9.23752 71.7111 9.18396 71.5283 9.07683C71.3519 8.9697 71.2006 8.82161 71.0746 8.63256C70.9486 8.44351 70.8509 8.2198 70.7816 7.96142C70.7122 7.70305 70.6776 7.42263 70.6776 7.12015C70.6776 6.81766 70.7091 6.53724 70.7721 6.27887C70.8414 6.02049 70.9391 5.79993 71.0651 5.61718C71.1912 5.42813 71.3424 5.28319 71.5189 5.18237C71.6953 5.07524 71.8938 5.02167 72.1144 5.02167C72.3349 5.02167 72.5334 5.07524 72.7099 5.18237C72.8926 5.2895 73.047 5.43759 73.1731 5.62664C73.2991 5.81569 73.3968 6.0394 73.4661 6.29777C73.5354 6.55614 73.5701 6.83657 73.5701 7.13905Z" fill="#073C71"/>
<path fill-rule="evenodd" clip-rule="evenodd" d="M11.624 5.616L11.6246 5.61736C11.9143 6.2405 11.8205 6.98004 11.3723 7.51186L4.12616 16.1098V17.8769C4.12616 20.1881 4.12616 21.3437 4.57594 22.2264C4.97158 23.0029 5.60288 23.6342 6.37936 24.0298C7.2621 24.4796 8.41768 24.4796 10.7288 24.4796H18.5695C20.8807 24.4796 22.0362 24.4796 22.919 24.0298C23.6955 23.6342 24.3268 23.0029 24.7224 22.2264C25.1722 21.3437 25.1722 20.1881 25.1722 17.8769V10.0363C25.1722 7.72511 25.1722 6.56954 24.7224 5.68679C24.3268 4.91031 23.6955 4.27901 22.919 3.88337C22.0362 3.43359 20.8807 3.43359 18.5695 3.43359H10.7288C10.4072 3.43359 10.1079 3.43359 9.82867 3.43481L9.09671 4.58957H10.0132C10.7054 4.58957 11.3328 4.99121 11.624 5.616ZM10.0132 6.06338C10.101 6.06338 10.1828 6.10128 10.2394 6.16461C10.1828 6.10176 10.1013 6.06418 10.0139 6.06418H6.41828L6.41879 6.06338H10.0132ZM16.8596 12.1481H21.4994V15.1105H21.4925V18.2301H21.4992V21.5855H8.91659V18.2301H12.6912V14.8739H16.8596V12.1481ZM18.6418 6.21098L18.5102 7.03381L19.8497 7.24807L7.53846 16.1927L8.02664 16.869L20.3379 7.92435L20.123 9.26796L20.9433 9.39917L21.3831 6.64946L18.6418 6.21098Z" fill="url(#paint0_linear)"/>
<path d="M10.2883 6.23901C10.2385 6.13227 10.1314 6.06377 10.0134 6.06377H6.4177L9.96632 0.465406C10.0255 0.372033 10.0291 0.25379 9.97574 0.157077C9.92233 0.0600455 9.82035 0 9.70991 0H4.85502C4.74003 0 4.63502 0.0648775 4.58346 0.167665L0.0319957 9.26331C-0.015048 9.357 -0.00989202 9.46856 0.0453301 9.55799C0.100872 9.64742 0.198267 9.70199 0.303555 9.70199H3.42373L0.0237816 17.7704C-0.0341785 17.9084 0.0174168 18.0685 0.145142 18.1467C0.194284 18.1767 0.248901 18.1912 0.303235 18.1912C0.390317 18.1912 0.47619 18.1539 0.53568 18.0836L10.2455 6.56247C10.3216 6.47215 10.338 6.34602 10.2883 6.23901Z" fill="url(#paint1_linear)"/>
<defs>
<linearGradient id="paint0_linear" x1="1.76806" y1="1.22288" x2="25.2017" y2="24.5091" gradientUnits="userSpaceOnUse">
<stop stop-color="#00C6FF"/>
<stop offset="1" stop-color="#0072FF"/>
</linearGradient>
<linearGradient id="paint1_linear" x1="4.56881" y1="-0.397922" x2="5.15834" y2="10.9504" gradientUnits="userSpaceOnUse">
<stop stop-color="#00C6FF"/>
<stop offset="1" stop-color="#0072FF"/>
</linearGradient>
</defs>
</svg>
