<svg width="66" height="32" viewBox="0 0 66 32" fill="none" xmlns="http://www.w3.org/2000/svg">
<g clip-path="url(#clip0)">
<g clip-path="url(#clip1)">
<path fill-rule="evenodd" clip-rule="evenodd" d="M5.29297 28.6904H65.9021V6.80811H5.29297V28.6904Z" fill="#FFE57B"/>
<path fill-rule="evenodd" clip-rule="evenodd" d="M0 5.27173V21.5103H8.31792V17.8744L3.84412 17.8709V5.27173H0Z" fill="#004D82"/>
<path fill-rule="evenodd" clip-rule="evenodd" d="M45.801 11.7391H44.7266V8.9599H45.7829V5.28589H49.1716V8.9599H51.7072V11.7248H49.1819V21.5107H45.801V11.7391Z" fill="#004D82"/>
<path fill-rule="evenodd" clip-rule="evenodd" d="M38.0898 21.5102H41.4416V8.92212H38.0898V21.5102Z" fill="#004D82"/>
<path fill-rule="evenodd" clip-rule="evenodd" d="M38.0898 5.53336H41.4447V2.81226H38.0898V5.53336Z" fill="#004D82"/>
<path fill-rule="evenodd" clip-rule="evenodd" d="M15.3458 11.8857C16.6976 11.8034 17.8258 12.5722 18.0215 13.7296H13.1885C13.253 12.8201 14.2779 11.9498 15.3458 11.8857ZM17.3692 17.7273C17.0211 18.1432 16.5829 18.3865 16.0668 18.4553C15.6148 18.5153 15.1624 18.4957 14.7242 18.34C14.1167 18.1247 13.6217 17.7549 13.3194 17.1318C13.2142 16.9146 13.1329 16.6882 13.1275 16.413H21.2551C21.379 15.429 21.3664 14.4914 21.1492 13.5678C20.4412 10.5637 17.8373 8.45842 14.6582 8.98927C13.2288 9.22721 12.0539 9.98599 11.164 11.2099C10.0082 12.7986 9.56888 14.596 9.98253 16.5748C10.415 18.6421 11.5769 20.1089 13.3788 20.9504C14.9141 21.6673 16.4743 21.6577 17.9927 20.8766C19.2943 20.2066 20.2072 19.108 20.8338 17.7273H17.3692Z" fill="#004D82"/>
<path fill-rule="evenodd" clip-rule="evenodd" d="M29.1952 18.2046C30.438 18.2004 31.3958 17.4531 31.7369 16.2077C31.9737 15.3424 31.8893 14.501 31.519 13.6961C31.3083 13.2394 31.0052 12.8616 30.59 12.6079C29.534 11.9648 28.0198 12.0997 27.133 13.3059C26.5966 14.0351 26.4619 14.8719 26.5847 15.7764C26.7758 17.1825 27.8752 18.2085 29.1952 18.2046ZM31.8724 10.3215V8.9231H35.1659C35.1659 8.9231 35.1708 15.1787 35.1659 18.619C35.1643 19.3878 35.1897 21.5377 34.9042 22.5901C34.1306 25.4477 32.0523 26.7385 29.2124 26.7385C24.8979 26.7385 23.4624 22.2576 23.4624 22.2576H27.2555C27.4488 22.6536 27.7274 22.9726 28.1184 23.1694C29.7189 23.9732 31.6157 22.8481 31.8175 20.9668C31.854 20.6282 31.8643 20.1831 31.8831 19.7968C31.8229 19.8913 31.7718 19.9617 31.7523 19.9897C31.1272 20.9173 30.2611 21.4147 29.219 21.4835C27.2159 21.6176 25.5563 20.8581 24.3438 19.1118C23.5863 18.0193 23.2697 16.757 23.2563 15.4005C23.2417 13.8479 23.5767 12.4095 24.4842 11.1729C25.4911 9.80066 26.8245 9.07416 28.4458 8.95231C29.2719 8.89042 30.0639 9.01842 30.8095 9.42434C31.2124 9.64345 31.5443 9.95365 31.8724 10.3215Z" fill="#004D82"/>
</g>
</g>
<defs>
<clipPath id="clip0">
<rect width="66" height="32" fill="white"/>
</clipPath>
<clipPath id="clip1">
<rect width="66" height="26.1386" fill="white" transform="translate(0 2.81201)"/>
</clipPath>
</defs>
</svg>
