<svg width="79" height="147" viewBox="0 0 79 147" fill="none" xmlns="http://www.w3.org/2000/svg">
<ellipse opacity="0.15" cx="39.5" cy="142.677" rx="39.5" ry="3.67611" fill="black"/>
<path d="M52.7965 38.8559C52.7965 38.8559 54.6309 35.6376 56.8771 37.0223C60.546 39.2676 59.348 44.3195 59.348 44.3195L58.5244 42.0742C58.5244 42.0742 59.6475 45.6293 57.8505 48.0617L58.0377 45.7416C58.0377 45.7416 56.6525 49.1095 54.1068 49.4838C51.561 49.858 51.2241 49.858 50.9246 51.3549C50.6251 52.8517 52.7216 53.8247 52.0477 53.7125C49.7641 53.3382 49.9887 50.4567 49.9887 50.4567L49.6143 52.5524C49.6143 52.5524 46.7316 46.9391 46.9188 44.3195C47.0216 42.77 47.4967 41.268 48.304 39.9412L46.8065 40.5025C46.8065 40.5025 51.299 33.3549 52.7965 38.8559Z" fill="#333333"/>
<path d="M55.0417 46.6765C56.2397 44.506 58.0367 42.0736 53.7688 39.8283C53.095 39.4915 51.4477 39.7535 50.8113 39.716C50.1748 39.6786 50.3246 40.2025 49.9128 40.2399C48.0879 40.5616 46.4472 41.5483 45.308 43.0092C45.308 43.0092 48.0035 47.1256 39.9544 52.3647C39.0185 53.0008 45.7198 63.479 46.3937 59.6245C48.6399 46.3771 54.2929 47.9863 55.0417 46.6765Z" fill="#FFB78D"/>
<path d="M48.0428 41.1386C48.0428 41.1386 49.3531 40.7644 50.8132 42.6729C50.8459 42.7179 50.8682 42.7697 50.8783 42.8244C50.8885 42.8791 50.8863 42.9354 50.872 42.9892C50.8577 43.0429 50.8315 43.0928 50.7954 43.1352C50.7593 43.1776 50.7143 43.2114 50.6635 43.2342C50.027 43.3839 48.829 43.6458 47.7808 43.2716C45.9089 42.598 48.0428 41.1386 48.0428 41.1386Z" fill="#D84744"/>
<path d="M50.6628 43.2342C50.3921 43.0344 50.0633 42.9291 49.7269 42.9345C49.502 42.9355 49.2797 42.9825 49.0737 43.0727C48.8677 43.1629 48.6823 43.2943 48.5289 43.4589C49.2479 43.5123 49.9707 43.4361 50.6628 43.2342Z" fill="#822A2A"/>
<path d="M50.5494 42.9722C50.5494 42.9722 49.2391 41.7373 47.8913 41.625C47.8913 41.625 49.1268 41.9618 47.8165 42.0367C47.7679 42.0167 47.7241 41.9868 47.6879 41.9489C47.6517 41.9109 47.6238 41.8658 47.6062 41.8164C47.5885 41.767 47.5814 41.7144 47.5854 41.6621C47.5894 41.6098 47.6044 41.5589 47.6293 41.5128L48.0037 41.2134C48.0421 41.1749 48.0902 41.1476 48.143 41.1344C48.1958 41.1212 48.2511 41.1227 48.3031 41.1385C48.8214 41.174 49.3159 41.3695 49.7183 41.698C50.1206 42.0265 50.411 42.4717 50.5494 42.9722Z" fill="#EEF9F9"/>
<path d="M47.1808 42.8972C47.3412 43.076 47.5489 43.2057 47.78 43.2715L48.5291 43.4211C48.5291 43.4211 48.7538 43.234 48.4916 43.0095C48.2996 42.8837 48.0792 42.8076 47.8504 42.788C47.6216 42.7684 47.3915 42.806 47.1808 42.8972Z" fill="#EEF9F9"/>
<path d="M47.7809 43.2715C48.3622 43.4501 48.9751 43.5012 49.5779 43.4213C49.2013 43.2512 48.7932 43.1619 48.3799 43.1592L47.7061 43.2341L47.7809 43.2715Z" fill="#FFABAB"/>
<path d="M45.1217 47.2382C45.4212 50.3068 43.699 57.0427 43.2872 58.6145L43.4744 58.8016L46.9186 56.9679C48.491 50.4191 51.0367 48.5105 52.8712 47.6873L50.7372 46.7143C46.432 44.5812 45.3088 43.0095 45.3088 43.0095C45.3088 43.0095 46.3945 44.6561 45.1217 47.2382Z" fill="#E2915A"/>
<path d="M55.0403 46.0409C55.0403 46.0409 55.9762 46.2654 55.2649 47.2009C54.5536 48.1365 52.4571 48.1739 52.9812 46.9764C53.5054 45.7789 55.0403 46.0409 55.0403 46.0409Z" fill="#EABFA5"/>
<path d="M52.2352 41.438C52.2352 41.438 54.0322 40.5773 54.5564 42.8226C54.5564 42.8226 54.1071 41.3257 52.2352 41.438Z" fill="#822A2A"/>
<path d="M52.9838 40.8765C52.9838 40.8765 55.4921 40.2029 55.23 42.5231C55.115 42.0252 54.825 41.5851 54.4127 41.2829C54.0005 40.9808 53.4934 40.8365 52.9838 40.8765Z" fill="#333333"/>
<path d="M50.549 39.6788C50.549 39.6788 51.9715 39.7537 52.0464 40.5395C52.0464 40.5395 52.2336 38.893 50.549 39.6788Z" fill="#333333"/>
<path d="M51.3728 40.7646C51.3728 40.7646 51.5599 39.7534 49.8004 40.3901C49.8004 40.3901 50.9235 40.1654 51.3728 40.7646Z" fill="#822A2A"/>
<path d="M50.3254 40.8018L50.0259 40.5398C50.0259 40.5398 50.1382 40.203 50.9244 40.5024C51.3496 40.6849 51.8226 40.7243 52.2721 40.6147L50.8121 41.6999L50.3254 40.8018Z" fill="#FDA876"/>
<path d="M49.5773 40.9515L50.0267 40.5398C50.0686 40.5071 50.1176 40.4847 50.1698 40.4745C50.222 40.4643 50.2759 40.4666 50.327 40.4812C50.3782 40.4958 50.4251 40.5223 50.4641 40.5585C50.503 40.5947 50.5328 40.6396 50.551 40.6895L50.8132 41.6999C50.4931 41.3234 50.0595 41.0607 49.5773 40.9515Z" fill="#CB8454"/>
<path d="M54.8575 46.4521C54.8575 46.4521 55.0073 47.3129 53.8088 47.3129C53.8088 47.3129 54.3706 47.0509 54.2583 46.8264C54.1459 46.6018 53.8088 46.6018 53.8088 46.6018C53.8088 46.6018 54.4455 46.5644 54.483 46.7141C54.5042 46.8254 54.5042 46.9396 54.483 47.0509L54.8575 46.4521Z" fill="#D8A98F"/>
<path d="M53.3197 45.8162C53.3197 45.8162 55.1916 45.5917 55.3787 44.2819C55.8817 44.1253 56.3425 43.8566 56.7265 43.4961C57.288 42.9347 55.7157 46.5272 55.7157 46.5272C55.7157 46.5272 55.3413 45.8537 53.6566 46.6021L53.3197 45.8162Z" fill="#333333"/>
<path d="M62.6792 67.4834C61.5333 67.2281 60.5132 66.5793 59.7965 65.6497L57.3631 69.0925L55.1169 59.6247C54.443 56.9304 51.5229 54.7973 48.7151 53.3379C42.3882 55.209 42.5754 49.4834 42.6877 48.3607C41.4897 40.9512 46.9181 34.6643 51.6352 28.7516L46.3191 26.918C26.1404 45.3296 24.2686 75.9407 24.2686 75.9407L48.7525 79.5706C44.9339 75.0052 49.2392 72.5353 47.0679 72.2734C46.6186 72.1985 47.7417 71.3004 47.8166 70.8888C47.8915 70.4771 47.4422 70.1777 47.5545 69.8409C48.0514 68.2125 48.9833 66.7504 50.25 65.6123C50.3998 77.4376 57.8498 80.0571 57.8498 80.0571L62.6792 67.4834Z" fill="#F99746"/>
<path d="M44.3366 56.519C44.0371 56.4442 43.775 56.5565 43.7376 56.7436C43.7001 56.9307 43.8499 57.1552 44.112 57.2675C44.374 57.3798 44.6361 57.2301 44.6735 57.043C44.711 56.8558 44.5986 56.6313 44.3366 56.519ZM43.176 59.6625C43.1809 59.546 43.1467 59.4312 43.0788 59.3363C43.011 59.2414 42.9135 59.1718 42.8016 59.1386C42.6915 59.0974 42.5702 59.0974 42.4601 59.1387C42.3499 59.1799 42.2585 59.2597 42.2026 59.3631C42.1978 59.4796 42.232 59.5944 42.2998 59.6893C42.3676 59.7842 42.4652 59.8538 42.577 59.887C42.6872 59.9283 42.8085 59.9282 42.9186 59.887C43.0287 59.8457 43.1202 59.7659 43.176 59.6625ZM42.914 62.9182C42.8005 62.9072 42.687 62.9397 42.5967 63.0092C42.5063 63.0787 42.4457 63.18 42.4273 63.2924C42.4273 63.517 42.6519 63.6666 42.914 63.6666C43.176 63.6666 43.4381 63.517 43.4381 63.2924C43.4381 63.0679 43.2135 62.9182 42.914 62.9182ZM42.577 65.9494C42.5221 65.9727 42.4729 66.0077 42.4328 66.0519C42.3927 66.0961 42.3627 66.1485 42.3449 66.2055C42.3271 66.2624 42.3219 66.3226 42.3297 66.3818C42.3374 66.4409 42.358 66.4977 42.3898 66.5481C42.5021 66.8101 42.7268 66.9598 42.914 66.8849C43.0087 66.8125 43.0779 66.7118 43.1116 66.5974C43.1452 66.483 43.1416 66.3609 43.1011 66.2488C42.9888 66.0242 42.7642 65.8745 42.577 65.9494ZM40.2559 68.4192C40.0313 68.2695 39.7318 68.307 39.6569 68.4941C39.6325 68.5453 39.619 68.6011 39.6172 68.6579C39.6153 68.7146 39.6253 68.7711 39.6464 68.8238C39.6675 68.8766 39.6993 68.9244 39.7397 68.9642C39.7802 69.0041 39.8285 69.0351 39.8815 69.0554C39.928 69.0928 39.9815 69.1205 40.0388 69.137C40.0962 69.1534 40.1562 69.1583 40.2154 69.1514C40.2747 69.1444 40.332 69.1257 40.3839 69.0964C40.4358 69.0671 40.4814 69.0277 40.518 68.9806C40.5547 68.8713 40.548 68.752 40.4993 68.6475C40.4505 68.543 40.3633 68.4613 40.2559 68.4192Z" fill="#F58437"/>
<path d="M39.9931 72.0115L39.8807 71.6373C40.6669 71.4502 40.7418 69.7662 40.6669 69.13V69.0552L41.6777 67.7454H41.7152C41.7526 67.708 43.9614 66.6976 44.523 66.3234C45.0845 65.9492 44.2983 65.2382 44.0363 64.5271C43.7742 63.8161 43.0629 61.8328 43.1004 60.5978C43.1459 59.9148 43.3445 59.2507 43.6814 58.6548C44.0184 58.0589 44.4851 57.5463 45.0471 57.155L44.4481 55.9201L44.6353 55.8453C45.1454 55.6598 45.6348 55.4215 46.0953 55.1342L46.1702 54.9845C46.1702 54.7974 45.8707 54.4981 45.721 54.3858L45.9456 54.0864C46.0205 54.1238 46.5446 54.5729 46.5446 54.9845C46.5477 55.0722 46.5288 55.1593 46.4896 55.2377C46.4503 55.3162 46.392 55.3835 46.32 55.4336C45.8944 55.7027 45.4429 55.9283 44.9722 56.1072L45.4963 57.3047L45.384 57.3796C45.3466 57.417 43.587 58.5022 43.4747 60.5978C43.4373 61.7579 43.9614 63.2174 44.3732 64.4149C44.785 65.6124 45.0845 66.3982 44.7102 66.6602C44.3358 66.9221 42.2393 67.8951 41.9398 68.0448L41.0787 69.1675C41.0787 69.6165 41.1536 71.7122 39.9931 72.0115Z" fill="#F58437"/>
<path d="M60.2831 67.3339L55.4162 76.5023C50.3622 69.6915 50.6617 63.2175 50.6617 63.2175C48.4154 74.1822 57.6625 79.6083 57.6625 79.6083L61.7057 68.5689L60.2831 67.3339Z" fill="#F58437"/>
<path d="M26.1781 75.0801C26.2904 76.577 27.788 74.4439 27.788 74.4439C27.788 74.4439 28.05 68.3441 27.9003 67.5957C27.7505 66.8473 26.1781 75.0801 26.1781 75.0801Z" fill="#F58437"/>
<path d="M46.7703 72.0862C46.6206 70.739 21.1632 58.5394 47.3319 34.1029C47.3319 34.1029 41.3045 36.0488 41.3793 34.5894C41.493 33.1065 41.9826 31.6769 42.802 30.4355C38.5716 35.1133 30.3728 48.4355 32.6939 59.5872C35.2771 71.9739 42.8394 72.161 42.8394 72.161C41.0321 71.4366 39.4547 70.2366 38.2749 68.6882C37.095 67.1398 36.3566 65.301 36.1381 63.3669C36.1381 63.3669 38.6464 69.3544 46.7703 72.0862Z" fill="#F58437"/>
<path d="M44.4485 55.097C44.8229 55.2093 43.2131 53.7873 42.9885 53.0763C42.8261 52.5695 42.8663 52.0197 43.1008 51.542C42.7822 50.694 42.642 49.7895 42.689 48.885C41.7904 49.858 38.9452 53.1885 38.9452 55.9203C38.9452 55.9203 40.5924 51.28 42.2771 50.9058C42.2771 50.9058 41.5284 54.0867 44.4485 55.097Z" fill="#F58437"/>
<path d="M49.5387 63.2175C46.7309 67.1468 42.5005 64.3401 42.5005 64.3401L47.1053 69.7663C47.1053 69.7663 48.3033 66.1364 50.1751 64.4524L51.5977 60.7102C51.5977 60.7102 50.1377 62.3942 49.5387 63.2175Z" fill="#F58437"/>
<path d="M54.4833 69.5042L57.1039 68.2693L53.5474 69.13L54.2961 72.5728L54.4833 69.5042Z" fill="#F58437"/>
<path d="M45.9449 53.1508L46.1696 52.7017L47.4424 52.1404L49.0148 52.7391L49.9881 54.236C49.9881 54.236 47.1804 54.2734 46.3942 53.8992C45.608 53.525 45.9449 53.1508 45.9449 53.1508Z" fill="#B64E00"/>
<path d="M45.1224 53.4501L47.2564 52.3275L48.0425 55.2838L50.8129 54.4231L50.6631 52.2901L47.3312 51.8784L45.1224 53.4501Z" fill="#F58437"/>
<path d="M46.6934 53.4128C46.6934 53.4128 52.8706 60.6353 59.8339 56.444C59.8339 56.444 56.9887 60.2236 53.6568 59.5126C50.3248 58.8016 46.918 55.5833 46.3939 53.8245L46.6934 53.4128Z" fill="#5B5B5B"/>
<path d="M45.9453 52.8889C45.9453 52.8889 50.5501 66.8473 62.9044 55.5085C62.9044 55.5085 63.8029 54.1613 63.6157 50.232C63.6132 50.1843 63.5994 50.1379 63.5753 50.0966C63.5513 50.0553 63.5177 50.0204 63.4774 49.9948C63.4371 49.9692 63.3912 49.9535 63.3437 49.9492C63.2961 49.9449 63.2482 49.952 63.2039 49.97L59.4227 52.2527C59.4227 52.2527 57.8504 60.9346 51.823 58.6145C47.5551 57.0053 45.9453 52.8889 45.9453 52.8889Z" fill="#3D3D3D"/>
<path d="M44.4844 52.9638C44.4844 52.9638 45.6075 52.1031 46.2439 52.4773C46.6664 52.773 47.0338 53.1402 47.3296 53.5626L46.5808 54.2736C46.1561 54.2244 45.7476 54.0813 45.385 53.8548C45.0224 53.6282 44.7148 53.3239 44.4844 52.9638Z" fill="#3D3D3D"/>
<path d="M43.8877 51.2048C43.9132 51.6069 44.0399 51.996 44.2558 52.3361C44.4718 52.6763 44.7701 52.9565 45.1231 53.1508C45.1231 53.1508 46.0965 53.6747 45.5724 53.7869C45.0482 53.8992 44.1872 53.263 43.8128 52.2526C43.4384 51.2423 43.8877 51.2048 43.8877 51.2048Z" fill="#242424"/>
<path d="M44.4099 53.2258L45.5704 51.0927L43.0621 48.0615L42.6877 48.2486C42.6877 48.2486 42.3508 52.2154 44.4099 53.2258Z" fill="#F58437"/>
<path d="M46.3198 26.9182L51.6359 28.7519C53.3642 26.6134 55.201 24.565 57.1392 22.6147L59.4229 22.2405L60.2839 21.2301H60.9204C60.9204 21.2301 61.2947 20.8933 61.2199 20.6688C60.9578 19.8081 60.3588 20.1074 60.1342 19.6584C59.9096 19.2093 59.2731 17.937 59.1234 17.5627C58.9736 17.1885 58.8988 16.1781 58.0377 16.253C53.2832 16.8143 55.2299 19.9952 54.0694 21.0804C50.9543 23.0129 48.0442 25.2573 45.3839 27.7789C45.7135 27.5117 46.026 27.2243 46.3198 26.9182Z" fill="#FFB78D"/>
<path d="M64.3279 57.9785H59.1615L57.8512 59.6625C57.8512 59.6625 57.9635 60.7103 58.7871 60.8974C59.6107 61.0845 59.3861 60.7103 59.4984 60.4109C59.6856 61.571 60.9585 62.9931 61.3703 63.4421L59.7979 65.65C60.5146 66.5796 61.5347 67.2285 62.6806 67.4837L64.0284 63.8163C64.9643 61.6084 64.3279 57.9785 64.3279 57.9785Z" fill="#FFB78D"/>
<path d="M24.1576 74.3315C24.1576 74.3315 31.2707 67.3336 48.4918 73.6579L47.7431 75.5664C47.7431 75.5664 60.284 79.6192 66.7164 88.5796C68.7708 91.4415 67.1235 95.1651 63.9237 96.6386L45.1599 105.279L47.3687 111.978C47.3687 111.978 46.4328 113.288 44.6358 111.379C42.8388 109.471 39.6192 102.211 39.6192 102.211L56.1928 91.0435C56.1928 91.0435 47.9303 83.687 37.6725 85.9323C37.6725 85.9323 26.7034 102.51 31.121 124.365C31.121 124.365 31.5702 135.03 28.5003 134.506C25.4305 133.982 27.2649 124.44 27.2649 124.44C27.2649 124.44 17.5687 103.296 24.1576 74.3315Z" fill="#213F7A"/>
<path d="M47.5205 24.8225C47.5205 24.8225 50.3657 21.3048 53.136 27.5543L50.7401 31.0345C50.7401 31.0345 48.1195 26.6936 44.2634 27.9285L47.5205 24.8225Z" fill="#F58437"/>
<path d="M59.8621 65.0396C59.8621 65.0396 61.8837 67.3597 64.13 67.0978L62.2206 72.3368C62.2206 72.3368 58.9261 72.4117 57.5784 67.6591L59.8621 65.0396Z" fill="#F58437"/>
<path opacity="0.2" d="M38.2336 143.301C36.9757 140.109 35.9007 136.848 35.014 133.533C34.1096 130.217 33.3724 126.857 32.8052 123.467L32.3933 120.922L32.0938 118.378C31.994 117.529 31.9191 116.669 31.8692 115.795C31.7943 114.935 31.682 114.074 31.682 113.213C31.5387 109.79 31.6764 106.361 32.0938 102.96L31.9441 105.504C31.9067 105.953 31.8692 106.365 31.8692 106.814V109.359C31.8319 109.795 31.8319 110.233 31.8692 110.669L31.9815 113.213C32.1833 116.637 32.5707 120.048 33.1421 123.43C33.7036 126.797 34.4524 130.128 35.276 133.459C35.7253 135.105 36.1745 136.789 36.6612 138.398C37.1479 140.007 37.672 141.691 38.2336 143.301Z" fill="#333333"/>
<path opacity="0.2" d="M39.2804 136.639C38.6854 135.333 38.1605 133.997 37.708 132.635C37.2213 131.288 36.8095 129.903 36.4352 128.519C36.0608 127.134 35.7613 125.712 35.5367 124.29C35.276 122.879 35.0886 121.455 34.9751 120.024C35.1248 120.735 35.2372 121.446 35.3869 122.157L35.5741 123.205L35.7987 124.253C36.0982 125.625 36.4352 127.009 36.8095 128.406C37.1465 129.791 37.5583 131.176 37.9701 132.523C38.1947 133.234 38.3819 133.907 38.6065 134.581L39.2804 136.639Z" fill="#333333"/>
<g opacity="0.3">
<path opacity="0.3" d="M69.1574 90.4607C69.9436 91.6956 70.6549 92.968 71.3662 94.2029C72.0775 95.4378 72.7888 96.7476 73.4627 98.0573L73.6499 98.3941L73.3129 98.5438L70.3179 99.891L67.2855 101.163C65.2639 101.987 63.2423 102.81 61.1832 103.521C63.0925 102.473 65.0767 101.538 67.0234 100.565L70.0184 99.2174L73.0134 97.8702L72.8262 98.3941L70.9169 94.4648C70.3179 93.1177 69.7189 91.8079 69.1574 90.4607Z" fill="#333333"/>
</g>
<path d="M54.7872 16.8926C54.7931 16.9337 54.851 17.3099 55.085 17.8475C55.3864 18.5401 55.8547 19.2106 56.4392 19.7867C57.0237 20.3627 57.7011 20.8213 58.3982 21.1128C58.9392 21.339 59.3164 21.3917 59.3576 21.3969C59.5643 21.4232 59.7715 21.3517 59.9178 21.2033L60.6536 20.4574L60.4287 19.7343L59.7022 19.5198L59.232 19.9965C58.8396 19.8724 58.1151 19.5631 57.3772 18.8358C56.6392 18.1085 56.3196 17.3888 56.1899 16.9984L56.6601 16.5217L56.4353 15.7986L55.7088 15.5841L54.973 16.33C54.8266 16.4783 54.7579 16.6864 54.7872 16.8926Z" fill="#52009F"/>
<path d="M60.6521 20.4573L61.17 19.9322L60.9451 19.2089L60.2185 18.9943L59.7005 19.5194L60.6521 20.4573Z" fill="#FFE27A"/>
<path d="M55.7076 15.5837L56.6592 16.5215L57.1771 15.9964L56.9522 15.2731L56.2256 15.0586L55.7076 15.5837Z" fill="#FFE27A"/>
<path d="M70.7206 19.0276L74.887 14.8035C75.3816 14.3021 75.3759 13.4948 74.8743 13.0003L62.9668 1.26489C62.4652 0.770473 61.6575 0.776178 61.1629 1.27764L56.9965 5.50168L70.7206 19.0276Z" fill="url(#paint0_linear)"/>
<path d="M70.2021 19.5527L70.7199 19.0277C70.556 17.685 69.7084 14.5567 65.5954 10.5032C61.4824 6.44961 58.3412 5.64661 56.9958 5.50181L56.4779 6.02684L70.202 19.5527L70.2021 19.5527Z" fill="#52009F"/>
<path d="M69.9426 19.894C69.7999 18.5926 68.9964 15.425 64.8098 11.2989C60.6232 7.17278 57.4433 6.41455 56.1395 6.29031C55.7573 6.2539 55.1285 6.6455 54.8589 6.91877L52.3568 9.45544C51.8622 9.9569 51.8679 10.7642 52.3696 11.2587L65.026 23.7322C65.5276 24.2266 66.3353 24.2209 66.8299 23.7195L69.332 21.1828C69.6016 20.9095 69.9844 20.2754 69.9426 19.894Z" fill="url(#paint1_linear)"/>
<path d="M55.8885 6.54471C57.1923 6.66892 60.3722 7.42717 64.5588 11.5533C68.7454 15.6794 69.5488 18.847 69.6915 20.1483C69.7333 20.5298 69.6013 20.9096 69.3318 21.1829L69.8497 20.6578C70.1192 20.3846 70.2512 20.0048 70.2094 19.6233C70.0667 18.322 69.2632 15.1544 65.0766 11.0283C60.8901 6.90215 57.7102 6.14392 56.4064 6.01968C56.0242 5.98327 55.6461 6.12057 55.3766 6.39383L54.8587 6.91885C55.1283 6.64559 55.5063 6.50829 55.8885 6.54471Z" fill="#7700E7"/>
<path d="M65.939 10.154C65.4689 9.69076 64.7438 9.66412 63.998 10.4203L63.4892 10.9361C63.3243 11.1033 63.3262 11.3724 63.4935 11.5372L64.5899 12.6178C64.7571 12.7826 65.0264 12.7807 65.1913 12.6135L65.7001 12.0977C66.4459 11.3416 66.409 10.6172 65.939 10.154Z" fill="#FFE27A"/>
<path d="M65.6857 10.4085C66.1557 10.8717 66.161 11.6281 65.6976 12.0979L66.2156 11.5728C66.679 11.1029 66.6737 10.3466 66.2037 9.88333C65.7336 9.42009 64.977 9.42544 64.5135 9.89527L63.9956 10.4204C64.459 9.9506 65.2157 9.94523 65.6857 10.4085Z" fill="#F9CF58"/>
<path d="M56.7163 16.8595C56.7163 16.8595 54.7692 17.8168 54.6637 18.4601C54.5583 19.1034 57.2364 17.7599 57.2364 17.7599C57.2364 17.7599 55.13 19.0111 55.1849 19.4193C55.2397 19.8275 57.9363 18.5445 57.9363 18.5445C57.9363 18.5445 55.8968 19.7691 56.1047 19.9582C56.3126 20.1473 58.3071 19.1864 58.3071 19.1864C58.3071 19.1864 56.8762 20.1548 57.3103 20.3084C57.7444 20.462 59.5304 19.8236 59.5304 19.8236L56.7163 16.8595Z" fill="#FFB78D"/>
<path opacity="0.5" fill-rule="evenodd" clip-rule="evenodd" d="M69.5803 119.352L67.3533 119.949L68.0495 122.547L65.4513 123.243L66.048 125.47L68.6462 124.774L69.3424 127.372L71.5694 126.775L70.8732 124.177L73.4714 123.481L72.8747 121.254L70.2765 121.95L69.5803 119.352ZM68.5401 122.83L65.9419 123.526L66.5386 125.753L69.1368 125.057L69.833 127.655L72.06 127.059L71.3638 124.461L73.962 123.764L73.3652 121.537L70.7671 122.234L70.0709 119.635L67.8439 120.232L68.5401 122.83ZM68.0207 120.334L68.7169 122.932L66.1187 123.629L66.6407 125.577L69.2389 124.88L69.9351 127.479L71.8831 126.957L71.187 124.358L73.7851 123.662L73.2631 121.714L70.665 122.41L69.9688 119.812L68.0207 120.334Z" fill="#1565D8"/>
<defs>
<linearGradient id="paint0_linear" x1="74.9741" y1="13.0987" x2="59.5136" y2="17.0637" gradientUnits="userSpaceOnUse">
<stop stop-color="#8F00FF"/>
<stop offset="1" stop-color="#B38FFF"/>
</linearGradient>
<linearGradient id="paint1_linear" x1="71.1937" y1="17.5905" x2="53.0032" y2="21.0788" gradientUnits="userSpaceOnUse">
<stop stop-color="#8F00FF"/>
<stop offset="1" stop-color="#B38FFF"/>
</linearGradient>
</defs>
</svg>
