<svg width="16" height="13" viewBox="0 0 16 13" fill="none" xmlns="http://www.w3.org/2000/svg">
<path opacity="0.08" d="M13.7891 6.65625H11.5625V4.875C11.5625 3.90088 12.3418 3.09375 13.3437 3.09375H13.5664C13.9282 3.09375 14.2344 2.81543 14.2344 2.42578V1.08985C14.2344 0.728029 13.9282 0.421877 13.5664 0.421877H13.3437C10.8667 0.421877 8.89062 2.42578 8.89062 4.875V11.5547C8.89062 12.3062 9.4751 12.8906 10.2266 12.8906H13.7891C14.5127 12.8906 15.125 12.3062 15.125 11.5547V7.99219C15.125 7.26856 14.5127 6.65625 13.7891 6.65625ZM5.77344 6.65625H3.54688V4.875C3.54688 3.90088 4.32617 3.09375 5.32813 3.09375H5.55078C5.9126 3.09375 6.21875 2.81543 6.21875 2.42578V1.08985C6.21875 0.728029 5.9126 0.421877 5.55078 0.421877H5.32813C2.85107 0.421877 0.875001 2.42578 0.875001 4.875V11.5547C0.875001 12.3062 1.45947 12.8906 2.21094 12.8906H5.77344C6.49707 12.8906 7.10938 12.3062 7.10938 11.5547V7.99219C7.10938 7.26856 6.49707 6.65625 5.77344 6.65625Z" fill="#183B56"/>
</svg>
