<svg width="44" height="44" viewBox="0 0 44 44" fill="none" xmlns="http://www.w3.org/2000/svg">
<path d="M31.9354 19.4839V19.9819C31.9354 20.5921 32.0338 21.1983 32.2268 21.7772L33.3548 25.1612H35.4838V17.3548H34.0644C32.8886 17.3548 31.9354 18.308 31.9354 19.4839Z" fill="#5A4146"/>
<path d="M41.6526 20.9581L40.4517 25.1613L34.7742 20.1936C33.9903 20.1936 33.3549 19.5581 33.3549 18.7742C33.3549 17.5985 34.3081 16.6452 35.4839 16.6452H40.4516C41.2355 16.6452 41.8709 17.2807 41.8709 18.0646V19.3985C41.871 19.9259 41.7974 20.4508 41.6526 20.9581Z" fill="#694B4B"/>
<path d="M39.0318 27.2907H34.7738V30.4317H39.0318V27.2907Z" fill="#E6AF78"/>
<path d="M34.7742 28.5939C35.4324 28.8614 36.1501 29.0119 36.9032 29.0119C37.6563 29.0119 38.374 28.8614 39.0322 28.5939V27.2903H34.7742V28.5939Z" fill="#D29B6E"/>
<path d="M42.4557 29.9901L39.032 29.012L36.9031 30.4247L34.7741 29.0119L31.3505 29.9901C30.4365 30.2513 29.8064 31.0867 29.8064 32.0372V37.2258C29.8064 37.6178 30.1241 37.9355 30.5161 37.9355H43.2903C43.6822 37.9355 43.9999 37.6178 43.9999 37.2258V32.0372C43.9999 31.0866 43.3697 30.2513 42.4557 29.9901Z" fill="url(#paint0_linear)"/>
<path d="M36.9032 28C34.5515 28 32.6451 26.0936 32.6451 23.742V22.9105C32.6451 22.5341 32.7947 22.1731 33.0608 21.9068L34.3477 20.6199C34.6202 20.3474 34.9929 20.1908 35.378 20.2029C37.6466 20.2745 39.6546 20.7604 40.7523 21.8325C41.021 22.095 41.1613 22.4621 41.1613 22.8376V23.742C41.1613 26.0936 39.2549 28 36.9032 28Z" fill="#F0C087"/>
<path d="M41.1613 34.1519C41.1613 33.5872 41.3856 33.0457 41.7848 32.6465L43.6116 30.8197C43.8557 31.1687 43.9999 31.5888 43.9999 32.0373V37.2259C43.9999 37.6179 43.6822 37.9356 43.2903 37.9356H41.1613V34.1519Z" fill="url(#paint1_linear)"/>
<path d="M36.9033 30.4248L35.7004 31.3436C35.4932 31.5019 35.1936 31.4384 35.0684 31.2097L33.9894 29.2391L34.4237 28.5766C34.52 28.4297 34.7254 28.4047 34.8542 28.5241L36.9033 30.4248Z" fill="#1B69AA"/>
<path d="M36.9034 30.4248L38.1063 31.3436C38.3135 31.5019 38.6131 31.4385 38.7383 31.2098L39.8173 29.2392L39.383 28.5767C39.2867 28.4298 39.0814 28.4048 38.9525 28.5242L36.9034 30.4248Z" fill="#1B69AA"/>
<path d="M12.7035 27.7037C12.097 26.0968 11.616 23.3345 11.5121 21.8964C11.3144 19.1596 9.25203 16.9287 6.46405 16.9287C3.67606 16.9287 1.61365 19.1597 1.41599 21.8964C1.31209 23.3344 0.831101 26.0968 0.22464 27.7037C0.0910072 28.0579 0.245265 28.4485 0.594085 28.6066C1.24395 28.9011 2.62952 29.4781 4.30057 29.7028H8.62744C10.2907 29.4776 11.686 28.9003 12.3339 28.6066C12.6828 28.4485 12.8371 28.0579 12.7035 27.7037Z" fill="#5A4146"/>
<path d="M12.334 28.6067C12.6828 28.4486 12.8371 28.058 12.7034 27.7038C12.097 26.0969 11.6159 23.3346 11.5121 21.8965C11.3145 19.1597 9.25205 16.9288 6.46415 16.9288C6.4571 16.9288 6.45014 16.9288 6.44309 16.9288C4.30385 16.9375 3.54786 19.855 5.38941 20.9436C5.50001 21.009 5.57091 21.0404 5.57091 21.0404L7.18387 29.7029H8.62754C10.2908 29.4775 11.6861 28.9003 12.334 28.6067Z" fill="#694B4B"/>
<path d="M11.5973 31.1277L9.30067 29.9795C8.81977 29.739 8.51598 29.2475 8.51606 28.7098L8.51624 26.5807H4.25803V28.7099C4.25803 29.2475 3.95433 29.7389 3.47342 29.9794L1.17683 31.1277C0.455555 31.4883 0 32.2255 0 33.0318V37.2257C0 37.6176 0.317711 37.9354 0.709672 37.9354H12.0645C12.4565 37.9354 12.7742 37.6176 12.7742 37.2257V33.0319C12.7742 32.2255 12.3185 31.4883 11.5973 31.1277Z" fill="#E6AF78"/>
<path d="M6.38716 29.4193C7.15131 29.4193 7.88324 29.2618 8.55424 28.9814C8.53663 28.8919 8.51609 28.803 8.51609 28.7098L8.51626 26.5807H4.25805V28.7098C4.25805 28.8036 4.23752 28.893 4.21973 28.9828C4.89116 29.2617 5.62274 29.4193 6.38716 29.4193Z" fill="#D29B6E"/>
<path d="M11.5973 31.1277L9.96119 30.3097C9.20253 31.4812 7.88674 32.2581 6.38713 32.2581C4.88752 32.2581 3.57165 31.4812 2.81299 30.3096L1.17691 31.1277C0.455641 31.4883 0 32.2255 0 33.0318V37.2257C0 37.6177 0.317711 37.9354 0.709672 37.9354H12.0645C12.4565 37.9354 12.7742 37.6177 12.7742 37.2257V33.0319C12.7742 32.2255 12.3185 31.4883 11.5973 31.1277Z" fill="url(#paint2_linear)"/>
<path d="M6.38709 28C4.22216 28 2.43466 26.3844 2.16438 24.2931C2.12519 23.9901 2.27086 23.693 2.54362 23.5554C2.87036 23.3906 3.34516 23.1126 3.79977 22.707C4.30603 22.2553 4.60303 21.779 4.77078 21.4293C4.91524 21.1282 5.2473 20.9578 5.57095 21.0404C8.06966 21.6777 9.7708 22.9777 10.388 23.5085C10.5537 23.651 10.6492 23.8611 10.6321 24.079C10.4602 26.273 8.62534 28 6.38709 28Z" fill="#F0C087"/>
<path d="M0.43261 31.7525C0.159242 32.1154 0 32.5604 0 33.0318V37.2257C0 37.6177 0.317711 37.9354 0.709672 37.9354H2.83869V34.3595C2.83869 33.9284 2.64266 33.5205 2.30596 33.2512L0.43261 31.7525Z" fill="url(#paint3_linear)"/>
<path d="M32.1958 30.1592L26.258 27.9999L21.9999 29.4193L17.7419 28L11.804 30.1593C10.6822 30.5672 9.93542 31.6333 9.93542 32.827V37.2258C9.93542 37.6177 10.2531 37.9355 10.6451 37.9355H33.3548C33.7467 37.9355 34.0644 37.6177 34.0644 37.2258V32.827C34.0644 31.6333 33.3177 30.5671 32.1958 30.1592Z" fill="url(#paint4_linear)"/>
<path d="M21.2566 30.8388L20.5807 37.9354H23.4194L22.7435 30.8388H21.2566Z" fill="#621E09"/>
<path d="M22.745 31.8137H21.2549C20.9805 31.8137 20.7581 31.5913 20.7581 31.3169V29.4193H23.2417V31.3169C23.2418 31.5912 23.0194 31.8137 22.745 31.8137Z" fill="#621E09"/>
<path d="M33.3005 30.8928C33.7797 31.4072 34.0644 32.0922 34.0644 32.8269V37.2257C34.0644 37.6177 33.7467 37.9354 33.3548 37.9354H29.8064V35.5628C29.8064 34.8099 30.1055 34.0879 30.6378 33.5556L33.3005 30.8928Z" fill="url(#paint5_linear)"/>
<path d="M29.8066 13.3645V7.41934C29.8066 6.63542 29.1711 6 28.3872 6H19.8711C16.7355 6 14.1936 8.54186 14.1936 11.6775V13.3645C14.1936 14.1273 14.3166 14.8851 14.5578 15.6087L14.794 16.3174C14.8664 16.5345 14.9033 16.7618 14.9033 16.9906V17.3548H29.0968V16.9906C29.0968 16.7618 29.1337 16.5345 29.206 16.3174L29.4423 15.6087C29.6836 14.885 29.8066 14.1272 29.8066 13.3645Z" fill="#5A4146"/>
<path d="M17.7421 8.88303C17.7421 10.4753 19.0328 11.7661 20.6251 11.7661H21.0243L21.2169 17.3548H29.0968V16.9905C29.0968 16.7617 29.1337 16.5344 29.206 16.3173L29.4423 15.6086C29.6835 14.885 29.8065 14.1272 29.8065 13.3644V7.41934C29.8065 6.63542 29.171 6 28.3871 6H20.6251C19.0328 6 17.7421 7.29078 17.7421 8.88303Z" fill="#694B4B"/>
<path d="M26.2582 23.0325H17.7418V29.4194H26.2582V23.0325Z" fill="#E6AF78"/>
<path d="M17.742 25.4319C18.9957 26.1582 20.4471 26.5806 22.0001 26.5806C23.553 26.5806 25.0045 26.1582 26.2581 25.4319V23.0322H17.7419L17.742 25.4319Z" fill="#D29B6E"/>
<path d="M22 29.4193L19.7366 31.6828C19.4324 31.987 18.9295 31.9527 18.6695 31.61L16.3226 28.5176L16.9365 27.224C17.1176 26.8422 17.5901 26.7023 17.9499 26.9241L22 29.4193Z" fill="#D23C69"/>
<path d="M21.9999 29.4193L24.2633 31.6827C24.5675 31.987 25.0703 31.9527 25.3304 31.61L27.6773 28.5176L27.0634 27.224C26.8822 26.8422 26.4098 26.7023 26.05 26.924L21.9999 29.4193Z" fill="#D23C69"/>
<path d="M22 25.1613C18.0806 25.1613 14.9032 21.9839 14.9032 18.0645V17.2331C14.9032 16.8566 15.0527 16.4956 15.3189 16.2294L15.9068 15.6415C16.1729 15.3753 16.3225 15.0143 16.3225 14.6378V12.9366C16.3225 12.608 16.5431 12.3225 16.8629 12.247C18.5414 11.8505 23.7644 10.9115 27.3188 13.5257C27.5497 13.6954 27.6773 13.9743 27.6773 14.2608V14.6378C27.6773 15.0142 27.8268 15.3753 28.093 15.6415L28.6809 16.2294C28.947 16.4955 29.0966 16.8566 29.0966 17.2331V18.0645C29.0968 21.9839 25.9194 25.1613 22 25.1613Z" fill="#F0C087"/>
<path d="M10.6993 30.8928C10.2201 31.4072 9.93542 32.0922 9.93542 32.8269V37.2257C9.93542 37.6177 10.2531 37.9354 10.6451 37.9354H14.1935V35.5628C14.1935 34.8099 13.8944 34.0879 13.362 33.5556L10.6993 30.8928Z" fill="url(#paint6_linear)"/>
<defs>
<linearGradient id="paint0_linear" x1="36.4295" y1="24.5225" x2="36.8683" y2="36.388" gradientUnits="userSpaceOnUse">
<stop stop-color="#A0D4FF"/>
<stop offset="1" stop-color="#0593FC"/>
</linearGradient>
<linearGradient id="paint1_linear" x1="42.4859" y1="27.2398" x2="43.8532" y2="36.5129" gradientUnits="userSpaceOnUse">
<stop stop-color="#A0D4FF"/>
<stop offset="1" stop-color="#0593FC"/>
</linearGradient>
<linearGradient id="paint2_linear" x1="6.22093" y1="30.6072" x2="6.28018" y2="37.004" gradientUnits="userSpaceOnUse">
<stop stop-color="#4AAC3F"/>
<stop offset="1" stop-color="#017B4E"/>
</linearGradient>
<linearGradient id="paint3_linear" x1="1.38242" y1="31.9938" x2="1.5575" y2="37.1748" gradientUnits="userSpaceOnUse">
<stop stop-color="#4AAC3F"/>
<stop offset="1" stop-color="#017B4E"/>
</linearGradient>
<linearGradient id="paint4_linear" x1="21.9999" y1="27.9999" x2="21.9999" y2="37.9355" gradientUnits="userSpaceOnUse">
<stop stop-color="#FFF850"/>
<stop offset="1" stop-color="#FFA450"/>
</linearGradient>
<linearGradient id="paint5_linear" x1="31.9354" y1="30.8928" x2="31.9354" y2="37.9354" gradientUnits="userSpaceOnUse">
<stop stop-color="#FFF850"/>
<stop offset="1" stop-color="#FFA450"/>
</linearGradient>
<linearGradient id="paint6_linear" x1="12.0644" y1="30.8928" x2="12.0644" y2="37.9354" gradientUnits="userSpaceOnUse">
<stop stop-color="#FFF850"/>
<stop offset="1" stop-color="#FFA450"/>
</linearGradient>
</defs>
</svg>
