<svg width="42" height="42" viewBox="0 0 42 42" fill="none" xmlns="http://www.w3.org/2000/svg">
<path d="M22.1327 8.96641H30.8735C37.0185 8.96641 42 13.9479 42 20.0925V23.9961C42 28.9285 38.7899 33.1108 34.3451 34.5695C34.5371 35.5993 34.9664 36.5459 35.5746 37.3499C36.3879 38.4252 35.616 39.9864 34.2679 39.9934C34.2557 39.9934 34.2439 39.9934 34.2317 39.9934C31.1757 39.9934 28.6029 37.9308 27.8252 35.1225H22.133C15.9881 35.1225 11.0066 30.141 11.0066 23.9961V20.0925C11.0066 13.9479 15.9877 8.96641 22.1327 8.96641Z" fill="url(#paint0_linear)"/>
<path d="M32.2177 31.888C32.8066 31.888 33.2841 31.4106 33.2841 30.8217C33.2841 30.2327 32.8066 29.7553 32.2177 29.7553C31.6288 29.7553 31.1514 30.2327 31.1514 30.8217C31.1514 31.4106 31.6288 31.888 32.2177 31.888Z" fill="white"/>
<path d="M32.2173 27.8434C31.6886 27.8434 31.26 27.4148 31.26 26.8861V23.4772C31.26 22.9485 31.6886 22.5199 32.2173 22.5199C32.8546 22.5199 33.4476 22.265 33.8872 21.802C34.3264 21.3394 34.55 20.7326 34.5168 20.0934C34.4546 18.896 33.4657 17.9391 32.2653 17.915C31.0965 17.8913 30.0976 18.7426 29.9368 19.8948C29.922 20.0008 29.9145 20.1092 29.9145 20.2172C29.9145 20.7459 29.4859 21.1745 28.9573 21.1745C28.4286 21.1745 28 20.7459 28 20.2172C28 20.0209 28.0137 19.8233 28.0407 19.6301C28.3314 17.5466 30.1191 16 32.2176 16C32.2464 16 32.2751 16.0003 32.3038 16.0009C34.5029 16.0452 36.3147 17.7992 36.4287 19.9942C36.4894 21.1629 36.0798 22.2731 35.2755 23.1203C34.7058 23.7203 33.9703 24.1364 33.1745 24.3233V26.8862C33.1745 27.4148 32.746 27.8434 32.2173 27.8434Z" fill="white"/>
<path d="M16.8734 1.96877H9.44962C4.2307 1.96877 0 6.19946 0 11.4184V14.7336C0 18.923 2.72626 22.475 6.5013 23.7138C6.3382 24.5886 5.97354 25.3925 5.45732 26.0751C4.76646 26.9886 5.42207 28.3143 6.56699 28.3207H6.59775C9.19327 28.3207 11.3783 26.5688 12.0387 24.1835H16.8734C22.0924 24.1835 26.3231 19.9525 26.3231 14.7336V11.4184C26.3231 6.19946 22.0924 1.96877 16.8734 1.96877V1.96877Z" fill="url(#paint1_linear)"/>
<path d="M3.63696 10.6798H23.9987V11.8401H3.63696V10.6798Z" fill="white"/>
<path d="M3.63696 15.1107H19.726V16.2713H3.63696V15.1107Z" fill="white"/>
<defs>
<linearGradient id="paint0_linear" x1="54.4998" y1="43" x2="10.9998" y2="12" gradientUnits="userSpaceOnUse">
<stop stop-color="#FF4C54"/>
<stop offset="1" stop-color="#EF9A9A"/>
</linearGradient>
<linearGradient id="paint1_linear" x1="0" y1="15.1447" x2="26.3231" y2="15.1447" gradientUnits="userSpaceOnUse">
<stop stop-color="#02AAB0"/>
<stop offset="1" stop-color="#00CDAC"/>
</linearGradient>
</defs>
</svg>
