<svg width="44" height="44" viewBox="0 0 44 44" fill="none" xmlns="http://www.w3.org/2000/svg">
<path d="M44 22C44 21.7327 43.9952 21.4665 43.9858 21.2016C43.5655 9.42116 33.883 0 22 0C10.117 0 0.4345 9.42116 0.0142656 21.2016C0.0048125 21.4665 0 21.7327 0 22C0 34.1503 11.301 43.2016 22 43.2016C32.8929 43.2016 44 34.1503 44 22Z" fill="#FF738C"/>
<path d="M22 42.4032C10.1172 42.4032 0.436391 32.9818 0.0159844 21.2016C0.00644531 21.4668 0 21.7326 0 22C0 34.1503 9.84973 44 22 44C34.1503 44 44 34.1503 44 22C44 21.7326 43.9936 21.4668 43.9841 21.2016C43.5636 32.9819 33.8828 42.4032 22 42.4032Z" fill="#E46374"/>
<path d="M40.3406 21.2016C39.9226 11.4333 31.8711 3.6422 21.9999 3.6422C12.1287 3.6422 4.07722 11.4333 3.65922 21.2016C3.64787 21.4663 3.65913 39.1901 21.9999 39.1901C40.3407 39.1901 40.3519 21.4663 40.3406 21.2016Z" fill="#E4EEF9"/>
<path d="M22 38.761C12.1289 38.761 4.07869 30.9697 3.66052 21.2016C3.64917 21.4664 3.64221 21.7323 3.64221 21.9999C3.64221 32.1386 11.8613 40.3577 22 40.3577C32.1387 40.3577 40.3578 32.1387 40.3578 22C40.3578 21.7324 40.3508 21.4664 40.3395 21.2016C39.9213 30.9698 31.8711 38.761 22 38.761Z" fill="#D5E0F2"/>
<path d="M28.6683 15.559C28.145 15.0429 27.3025 15.0487 26.7865 15.5719L23.6641 18.7376L23.9778 20.2446L25.4364 20.7305L28.6813 17.4408C29.1972 16.9176 29.1915 16.075 28.6683 15.559Z" fill="#405B6C"/>
<path d="M20.1164 18.8587L13.035 12.5482C12.4863 12.0592 11.6452 12.1076 11.1563 12.6564C10.6674 13.205 10.7158 14.0461 11.2645 14.535L18.4854 20.9699L19.9901 20.468L20.1164 18.8587Z" fill="#405B6C"/>
<path d="M31.4218 30.5797C31.2707 30.5797 31.1189 30.5286 30.9942 30.4239L22.566 23.3445C22.2847 23.1082 22.2481 22.6884 22.4845 22.4072C22.7208 22.1257 23.1404 22.0892 23.4219 22.3256L31.85 29.4051C32.1313 29.6414 32.1679 30.0611 31.9316 30.3424C31.8 30.499 31.6115 30.5797 31.4218 30.5797Z" fill="#86DCFF"/>
<path d="M18.4855 20.9699L19.7281 22.0773L21.324 21.535L21.2374 19.8576L20.1166 18.8587C19.3367 19.3273 18.7464 20.0782 18.4855 20.9699Z" fill="#2D4456"/>
<path d="M23.6641 18.7376L22.6075 19.8088V21.9113H24.2718L25.4364 20.7306C25.1164 19.8647 24.4781 19.1537 23.6641 18.7376Z" fill="#2D4456"/>
<path d="M24.1298 21.2015C23.8065 20.3395 22.9749 19.726 22.0001 19.726C21.0252 19.726 20.1936 20.3395 19.8703 21.2015C19.7771 21.4499 19.8641 23.4755 22.0001 23.4755C24.136 23.4755 24.223 21.4499 24.1298 21.2015Z" fill="#FF5876"/>
<path d="M22.0001 22.6772C21.0252 22.6772 20.1939 22.0636 19.8706 21.2016C19.7774 21.4501 19.7261 21.719 19.7261 22C19.7261 23.2559 20.7442 24.2739 22 24.2739C23.2559 24.2739 24.2739 23.2558 24.2739 22C24.2739 21.719 24.2226 21.4501 24.1294 21.2016C23.8062 22.0635 22.9749 22.6772 22.0001 22.6772Z" fill="#E6485D"/>
<path d="M22.6667 8.04142V5.9766C22.6667 5.60844 22.3683 5.30998 22.0001 5.30998C21.632 5.30998 21.3335 5.60844 21.3335 5.9766V8.04142C21.3335 8.40958 21.6319 8.70804 22.0001 8.70804C22.3684 8.70804 22.6667 8.40958 22.6667 8.04142Z" fill="#405B6C"/>
<path d="M21.3335 35.9586V38.0234C21.3335 38.3915 21.6319 38.69 22.0001 38.69C22.3684 38.69 22.6667 38.3915 22.6667 38.0234V35.9586C22.6667 35.5904 22.3683 35.2919 22.0001 35.2919C21.632 35.2919 21.3335 35.5904 21.3335 35.9586Z" fill="#405B6C"/>
<path d="M38.0236 22.6666C38.3918 22.6666 38.6902 22.3681 38.6902 22C38.6902 21.6318 38.3917 21.3334 38.0236 21.3334H35.9587C35.5906 21.3334 35.2921 21.6318 35.2921 22C35.2921 22.3681 35.5906 22.6666 35.9587 22.6666H38.0236Z" fill="#405B6C"/>
<path d="M5.97668 21.3334C5.60843 21.3334 5.31006 21.6318 5.31006 22C5.31006 22.3681 5.60843 22.6666 5.97668 22.6666H8.0415C8.40974 22.6666 8.70811 22.3681 8.70811 22C8.70811 21.6318 8.40965 21.3334 8.0415 21.3334H5.97668Z" fill="#405B6C"/>
</svg>
