<svg width="47" height="37" viewBox="0 0 47 37" fill="none" xmlns="http://www.w3.org/2000/svg">
<path d="M8.65295 10.9184H14.7061V23.5483H8.65295V10.9184Z" fill="#DEB874"/>
<path d="M16.5589 31.6024V17.2203L15.0108 16.6743L13.9523 19.5589C13.2947 21.4619 9.39142 21.0813 8.97017 19.5138L8.33855 16.6743L7.60571 16.8226V31.6024H16.5589Z" fill="#EBF0F3"/>
<path d="M21.7431 20.1329C21.2778 19.671 20.7302 19.2816 20.1228 18.9815L16.2242 17.0546L15.0111 16.6735L14.6392 16.7393C14.3831 18.5887 13.9712 25.4778 11.6799 31.6024C9.38858 25.4795 8.9702 18.592 8.71417 16.741L7.77287 16.7393L7.14492 17.0495L3.23512 18.9815C2.62772 19.2816 2.08013 19.671 1.61663 20.1329C0.575626 21.1663 0 22.5116 0 23.9075V30.5415C0 31.6456 0.992282 32.5407 2.21632 32.5407H21.1434C22.3675 32.5407 23.3597 31.6456 23.3597 30.5415V23.9075C23.3597 22.5116 22.7841 21.1663 21.7431 20.1329Z" fill="#44C4A1"/>
<path d="M16.4333 21.4782L16.224 17.0546L14.71 16.1982C14.71 16.1982 14.6876 16.3887 14.639 16.7393C14.3829 18.5887 13.9738 24.951 11.6825 31.0757C9.3912 24.9527 8.97002 18.592 8.71398 16.741C8.66539 16.3903 8.64296 16.1982 8.64296 16.1982L7.14474 17.0495L7.13913 17.0546L6.92981 21.4782L7.77644 22.2436L7.46433 23.5333C8.1577 26.3688 11.6817 31.6776 11.6817 31.6776C11.6817 31.6776 15.2054 26.3688 15.8988 23.5333L15.5867 22.2436L16.4333 21.4782Z" fill="#3EA69B"/>
<path d="M11.5973 17.6821C14.2126 17.6821 16.3328 14.839 16.3328 11.3318C16.3328 7.82456 14.2126 4.9814 11.5973 4.9814C8.98196 4.9814 6.86182 7.82456 6.86182 11.3318C6.86182 14.839 8.98196 17.6821 11.5973 17.6821Z" fill="#FFD596"/>
<path d="M9.06941 5.88344C9.06941 5.88344 12.5099 9.01506 15.6375 10.0025C15.6375 10.0025 14.668 8.6765 14.5429 8.08404C14.5429 8.08404 15.6375 9.0997 15.9503 10.8771C16.2631 12.6545 15.7939 14.3755 15.3873 14.8833C14.9807 15.3912 14.2614 16.0118 14.2614 16.0118C14.2614 16.0118 14.9182 16.7172 14.9182 17.1686C14.9182 17.62 15.0433 18.7485 13.6045 18.8613C13.6045 18.8613 14.3865 18.9178 15.2622 18.5228C15.2622 18.5228 14.9182 20.1309 13.5107 20.6105C13.5107 20.6105 15.0596 20.5541 16.0523 19.2845C16.0523 19.2845 17.3115 21.6262 16.0523 23.2907C16.0523 23.2907 16.9824 23.0368 17.4516 22.3879C17.4516 22.3879 17.8895 23.7986 17.2327 24.391C17.2327 24.391 18.515 23.7422 18.9216 22.8958C18.9216 22.8958 19.3282 23.0086 19.1405 23.7139C19.1405 23.7139 19.8912 21.8519 19.5159 20.3848C19.1405 18.9178 17.7956 18.0996 17.7956 18.0996C17.7956 18.0996 18.0459 14.9398 18.5776 13.5855C19.1093 12.2313 18.6401 8.05582 16.2944 5.31918C13.9486 2.58253 12.8539 1.79258 10.1328 2.80824C10.1328 2.80824 9.88261 2.32862 8.8192 2.80824C7.75578 3.28786 6.03556 6.0245 5.78535 7.37871C5.53513 8.73293 5.09726 10.3693 5.19109 11.3567C5.28492 12.3442 4.44579 14.1498 5.17812 15.6733C5.91045 17.1968 5.62896 17.8739 5.62896 17.8739C5.62896 17.8739 4.503 19.3974 4.22151 20.413C3.94002 21.4287 3.94002 21.1748 3.65852 21.7673C3.37703 22.3597 3.2832 23.9679 3.2832 23.9679L4.12768 22.4726C4.12768 22.4726 4.22151 24.4757 4.87832 24.8989C4.87832 24.8989 5.66024 23.7986 5.59769 23.0933C5.59769 23.0933 6.50471 24.1089 6.88004 24.3628C6.88004 24.3628 6.75493 22.3879 6.84876 21.1184C6.84876 21.1184 7.88089 22.9804 10.4143 22.8958C10.4143 22.8958 8.38132 21.993 8.44388 20.7234C8.50643 19.4538 8.25622 16.9429 8.25622 16.9429L8.69409 15.6451C8.69409 15.6451 7.81834 14.6836 7.53685 13.6409C7.25536 12.5981 6.84876 12.5417 7.0677 11.3003C7.28663 10.0589 7.13025 9.46646 7.38046 8.78936C7.63068 8.11225 8.44388 6.4759 9.06941 5.88344Z" fill="#114B6B"/>
<path d="M19.5556 32.1641H7.64841C6.87695 32.1641 6.25159 31.5387 6.25159 30.7673V24.367L6.98412 22.9702H19.5556C20.327 22.9702 20.9524 23.5955 20.9524 24.367V31.3511L19.5556 32.1641Z" fill="#002967"/>
<path d="M6.98411 22.9702C6.21265 22.9702 5.58728 23.5955 5.58728 24.367V31.3511C5.58728 32.1226 6.21265 32.748 6.98411 32.748H19.5556C20.327 32.748 20.9524 32.1226 20.9524 31.3511H9.07935C7.9222 31.3511 6.98411 30.413 6.98411 29.2559V22.9702Z" fill="#002967"/>
<path d="M25.1428 32.7479H0.698414C0.312383 32.7479 0 33.0607 0 33.4464C0 33.832 0.312383 34.1448 0.698414 34.1448H25.1428V32.7479Z" fill="#AA640E"/>
<path fill-rule="evenodd" clip-rule="evenodd" d="M12.5656 27.3236L11.5267 28.8714C11.4629 28.9665 11.5229 29.0943 11.6314 29.094L13.6047 29.0897C13.7132 29.0894 13.7821 28.961 13.7246 28.8665L12.7904 27.3231C12.7653 27.2835 12.7244 27.2602 12.6801 27.2603C12.6358 27.2604 12.5934 27.2839 12.5656 27.3236Z" fill="url(#paint0_linear)"/>
<path fill-rule="evenodd" clip-rule="evenodd" d="M14.4639 26.3168L12.6611 28.8251C12.5865 28.9288 12.6594 29.0709 12.7876 29.0722L16.2764 29.108C16.4046 29.1094 16.4838 28.9688 16.4143 28.8637L14.7278 26.3196C14.6977 26.2758 14.6493 26.2498 14.5972 26.2492C14.5451 26.2487 14.4955 26.2738 14.4633 26.3168" fill="white"/>
<path d="M30.0286 19.1234L33.6397 20.2113L36.9714 19.1234V10.6457H30.0286V19.1234Z" fill="#F7BE56"/>
<path d="M21.8687 21.0356C22.4066 20.5034 23.0395 20.0547 23.7416 19.709L28.2476 17.4888L28.9843 17.1256H38.0159L38.7417 17.483L43.2607 19.709C43.9628 20.0547 44.5958 20.5034 45.1314 21.0356C46.3346 22.2262 47 23.7762 47 25.3845V33.0278C47 34.3 45.8531 35.3313 44.4383 35.3313H22.5619C21.1472 35.3313 20.0001 34.3 20.0001 33.0278V25.3845C20.0001 23.7762 20.6655 22.2262 21.8687 21.0356Z" fill="#9EC8FF"/>
<path d="M27.4603 9.29685C27.3369 8.62644 27.5293 8.04017 27.8899 7.98739C28.2506 7.9346 28.643 8.43529 28.7664 9.1057C28.8898 9.77612 28.6975 10.3624 28.3368 10.4152C27.9762 10.468 27.5837 9.96727 27.4603 9.29685Z" fill="#FCD462"/>
<path d="M38.6896 10.3791C38.3252 10.3556 38.0743 9.7875 38.1292 9.11015C38.184 8.43281 38.5239 7.90273 38.8883 7.92619C39.2527 7.94966 39.5036 8.51778 39.4488 9.19512C39.3939 9.87247 39.054 10.4025 38.6896 10.3791Z" fill="#FCD462"/>
<path d="M28.2313 2.81C29.0845 1.70532 32.5653 -0.629897 35.3557 0.159924C38.1461 0.949704 37.1488 2.41737 37.1488 2.41737C37.1488 2.41737 38.0997 1.99448 38.8983 2.44146C39.6972 2.8884 39.9437 4.63743 39.5928 6.08094C39.3427 7.10946 38.9483 8.86499 38.7416 9.792L38.7663 10.4325C38.7663 10.4325 39.0078 11.7362 38.4558 12.6889C37.9037 13.6416 37.3861 14.0767 36.6615 14.7116C35.9369 15.3465 34.9897 15.5433 33.6001 15.5828C32.2104 15.5433 31.2633 15.3465 30.5387 14.7116C29.8141 14.0767 29.2966 13.6416 28.7445 12.6889C28.3027 11.9265 28.3687 10.9505 28.4128 10.5865C28.3904 10.3428 28.1532 7.93143 27.4232 6.17779C26.6537 4.32911 27.3784 3.91468 28.2313 2.81Z" fill="#2D2E2E"/>
<path d="M37.0287 15.5828H29.9715L28.9487 17.1256H38.0515L37.0287 15.5828Z" fill="#EBF0F3"/>
<path d="M37.0287 15.5828H29.9715L28.9487 17.1256H38.0515L37.0287 15.5828Z" fill="#EBF0F3"/>
<path d="M31 22.5416H29C26.7908 22.5416 25 24.3324 25 26.5416V36.5416H27V26.5416C27 24.3324 28.7908 22.5416 31 22.5416Z" fill="url(#paint1_linear)"/>
<path d="M42.9999 22.5416H30.9999C28.7908 22.5416 25.8564 23.8614 25.4053 26.6607L26.9999 36.5416H44.9999C46.1045 36.5416 46.9999 35.6462 46.9999 34.5416V26.5416C46.9999 24.3324 45.2091 22.5416 42.9999 22.5416Z" fill="url(#paint2_linear)"/>
<defs>
<linearGradient id="paint0_linear" x1="12.9127" y1="27.2992" x2="12.5689" y2="29.256" gradientUnits="userSpaceOnUse">
<stop stop-color="white"/>
<stop offset="1" stop-color="white" stop-opacity="0.6"/>
</linearGradient>
<linearGradient id="paint1_linear" x1="25" y1="29.5416" x2="31" y2="29.5416" gradientUnits="userSpaceOnUse">
<stop stop-color="#485563"/>
<stop offset="1" stop-color="#29323C"/>
</linearGradient>
<linearGradient id="paint2_linear" x1="25.4053" y1="29.5416" x2="46.9999" y2="29.5416" gradientUnits="userSpaceOnUse">
<stop stop-color="#485563"/>
<stop offset="1" stop-color="#29323C"/>
</linearGradient>
</defs>
</svg>
