<svg width="44" height="44" viewBox="0 0 44 44" fill="none" xmlns="http://www.w3.org/2000/svg">
<path d="M2.90699 7.00004H41.0932C42.6984 7.00004 43.9999 8.30151 43.9999 9.90678V34.2192C43.9999 35.8245 42.6984 37.126 41.0932 37.126H2.90699C1.30171 37.126 0.000244141 35.8245 0.000244141 34.2192V9.90678C0.000244141 8.30151 1.30171 7.00004 2.90699 7.00004Z" fill="url(#paint0_linear)"/>
<path d="M40.5929 36.7313H3.40704C1.84374 36.7313 0.576538 35.4641 0.576538 33.9004V10.2256C0.576538 8.66194 1.84374 7.39474 3.40704 7.39474H40.5925C42.1562 7.39474 43.4234 8.66194 43.4234 10.2256V33.9004C43.4234 35.4641 42.1562 36.7313 40.5929 36.7313Z" fill="url(#paint1_linear)"/>
<path d="M0 29.1725V34.2193C0 35.8246 1.30147 37.1261 2.90674 37.1261H41.0929C42.6982 37.1261 43.9997 35.8246 43.9997 34.2193V29.1725H0Z" fill="url(#paint2_linear)"/>
<path d="M40.125 34.7441H3.87481C3.16747 34.7441 2.59375 34.1708 2.59375 33.4635V10.6627C2.59375 9.95539 3.16747 9.38205 3.87481 9.38205H40.125C40.8323 9.38205 41.406 9.95539 41.406 10.6627V33.4635C41.406 34.1708 40.8323 34.7441 40.125 34.7441Z" fill="url(#paint3_linear)"/>
<path d="M41.406 29.1725H2.59375V33.4635C2.59375 34.1708 3.16747 34.7442 3.87481 34.7442H40.125C40.8323 34.7442 41.406 34.1708 41.406 33.4635V29.1725Z" fill="url(#paint4_linear)"/>
<path fill-rule="evenodd" clip-rule="evenodd" d="M8.42682 15.6218H25.0089C25.8304 15.6218 26.4963 16.2877 26.4963 17.1092V27.1723C26.4963 27.9938 25.8304 28.6597 25.0089 28.6597H8.42682C7.60537 28.6597 6.93945 27.9938 6.93945 27.1723V17.1092C6.93945 16.2877 7.60537 15.6218 8.42682 15.6218ZM14.2738 24.9345C14.2738 25.1485 14.499 25.2877 14.6904 25.192L19.4629 22.8058C19.675 22.6997 19.675 22.3969 19.4629 22.2908L14.6904 19.9045C14.499 19.8088 14.2738 19.948 14.2738 20.162V24.9345Z" fill="white"/>
<path d="M36.5903 17.0939H31.5433C31.1949 17.0939 30.9125 16.8115 30.9125 16.463C30.9125 16.1145 31.1949 15.8321 31.5433 15.8321H36.5903C36.9388 15.8321 37.2211 16.1145 37.2211 16.463C37.2211 16.8115 36.9388 17.0939 36.5903 17.0939Z" fill="white"/>
<path d="M36.5903 20.8792H31.5433C31.1949 20.8792 30.9125 20.5968 30.9125 20.2483C30.9125 19.8998 31.1949 19.6175 31.5433 19.6175H36.5903C36.9388 19.6175 37.2211 19.8998 37.2211 20.2483C37.2211 20.5968 36.9388 20.8792 36.5903 20.8792Z" fill="white"/>
<path d="M36.5903 24.6642H31.5433C31.1949 24.6642 30.9125 24.3818 30.9125 24.0334C30.9125 23.6849 31.1949 23.4025 31.5433 23.4025H36.5903C36.9388 23.4025 37.2211 23.6849 37.2211 24.0334C37.2211 24.3818 36.9388 24.6642 36.5903 24.6642Z" fill="white"/>
<path d="M36.5903 28.4494H31.5433C31.1949 28.4494 30.9125 28.167 30.9125 27.8185C30.9125 27.47 31.1949 27.1877 31.5433 27.1877H36.5903C36.9388 27.1877 37.2211 27.47 37.2211 27.8185C37.2211 28.167 36.9388 28.4494 36.5903 28.4494Z" fill="white"/>
<defs>
<linearGradient id="paint0_linear" x1="38.8887" y1="38.9517" x2="4.40378" y2="4.46676" gradientUnits="userSpaceOnUse">
<stop stop-color="#575C55"/>
<stop offset="1" stop-color="#45425A"/>
</linearGradient>
<linearGradient id="paint1_linear" x1="5.55386" y1="5.61695" x2="39.1352" y2="39.1983" gradientUnits="userSpaceOnUse">
<stop stop-color="#575C55"/>
<stop offset="1" stop-color="#45425A"/>
</linearGradient>
<linearGradient id="paint2_linear" x1="21.9998" y1="31.4779" x2="21.9998" y2="38.9151" gradientUnits="userSpaceOnUse">
<stop stop-color="#45425A" stop-opacity="0"/>
<stop offset="0.3474" stop-color="#353343" stop-opacity="0.34902"/>
<stop offset="1" stop-color="#1A1A1A"/>
</linearGradient>
<linearGradient id="paint3_linear" x1="-46.684" y1="-23.2814" x2="37.0498" y2="37.113" gradientUnits="userSpaceOnUse">
<stop stop-color="#A3FFFF"/>
<stop offset="1" stop-color="#1CCBF7"/>
</linearGradient>
<linearGradient id="paint4_linear" x1="21.9999" y1="30.5173" x2="21.9999" y2="36.9718" gradientUnits="userSpaceOnUse">
<stop stop-color="#1CCBF7" stop-opacity="0"/>
<stop offset="1" stop-color="#00A5E8"/>
</linearGradient>
</defs>
</svg>
