<svg width="44" height="44" viewBox="0 0 44 44" fill="none" xmlns="http://www.w3.org/2000/svg">
<path d="M24.6582 41.2048V42.3042C24.6582 43.2407 25.4223 44 26.3648 44C27.3073 44 28.0713 43.2407 28.0713 42.3042V41.2048H24.6582Z" fill="#BC7C63"/>
<path d="M26.365 22.8578C25.7853 22.8578 25.1264 22.8151 24.5694 22.7337V24.3514V29.4418C24.5663 29.5815 24.6773 29.7123 24.8354 29.7123H28.0716V22.7337C27.5146 22.815 26.9449 22.8578 26.365 22.8578Z" fill="#BC7C63"/>
<path d="M30.9069 29.4467H24.9242C24.766 29.4467 24.6551 29.3159 24.6582 29.1762V24.3513C24.6582 23.769 24.1845 23.2946 23.5984 23.2927C23.5965 23.2927 23.5946 23.2927 23.5928 23.2927C23.0036 23.2927 22.4682 23.6313 22.2189 24.1618C21.6557 25.3603 21.8263 26.6813 20.0595 28.4285C19.188 29.2904 18.0003 29.7622 16.7708 29.7622H15.1638V40.1338H16.1831C17.0541 40.1338 17.9116 40.3482 18.6788 40.7577C19.446 41.1674 20.3034 41.3817 21.1744 41.3817H28.8557C29.6849 41.3817 30.3571 40.7138 30.3571 39.8899C30.3571 39.0659 29.6849 38.398 28.8557 38.398H29.5394C30.3686 38.398 31.0407 37.7301 31.0407 36.9061C31.0407 36.0821 30.3686 35.4142 29.5394 35.4142H30.223C31.0522 35.4142 31.7244 34.7463 31.7244 33.9224C31.7244 33.0984 31.0522 32.4305 30.223 32.4305H30.9067C31.7359 32.4305 32.408 31.7626 32.408 30.9386C32.4082 30.1146 31.7361 29.4467 30.9069 29.4467Z" fill="url(#paint0_linear)"/>
<path d="M26.365 23.1234C32.7908 23.1234 38 17.947 38 11.5617C38 5.17634 32.7908 0 26.365 0C19.9391 0 14.7299 5.17634 14.7299 11.5617C14.7299 17.947 19.9391 23.1234 26.365 23.1234Z" fill="url(#paint1_linear)"/>
<path d="M28.476 11.7008C28.3988 11.6241 28.3988 11.4994 28.476 11.4226C29.5432 10.3622 30.4416 9.46944 30.6735 9.23904C31.2017 8.71413 31.2503 7.85905 30.7476 7.31C30.2108 6.72382 29.2968 6.70775 28.7393 7.26179L26.5138 9.47322C26.4366 9.54996 26.3113 9.54979 26.2341 9.47305C25.1628 8.40854 24.26 7.51144 24.0274 7.28035C23.4992 6.75544 22.6388 6.70715 22.0862 7.2067C21.4963 7.74012 21.4802 8.64839 22.0377 9.20234L24.2723 11.4229C24.3495 11.4996 24.3495 11.624 24.2723 11.7007L22.0377 13.9213C21.4802 14.4752 21.4963 15.3835 22.0862 15.9168C22.6388 16.4164 23.4992 16.3681 24.0274 15.8432L26.2341 13.6505C26.3113 13.5737 26.4366 13.5736 26.5138 13.6503L28.7393 15.8617C29.2968 16.4158 30.2108 16.3997 30.7476 15.8135C31.2503 15.2645 31.2017 14.4095 30.6735 13.8845C30.4416 13.654 29.5432 12.7613 28.476 11.7008Z" fill="#DFEBFA"/>
<path d="M14.8361 28.6433H12.075V40.9515H14.8361C15.165 40.9515 15.4316 40.6865 15.4316 40.3597V29.2351C15.4315 28.9083 15.1649 28.6433 14.8361 28.6433Z" fill="#DFEBFA"/>
<path d="M11.4907 27.511H6.85125C6.38113 27.511 6 27.8897 6 28.3569V41.2379C6 41.705 6.38113 42.0838 6.85125 42.0838H11.4907C11.9608 42.0838 12.342 41.705 12.342 41.2379V28.3569C12.3421 27.8897 11.9608 27.511 11.4907 27.511Z" fill="#23A8FE"/>
<defs>
<linearGradient id="paint0_linear" x1="23.7859" y1="23.2927" x2="23.7859" y2="41.3817" gradientUnits="userSpaceOnUse">
<stop stop-color="#FED2A4"/>
<stop offset="1" stop-color="#FCC081"/>
</linearGradient>
<linearGradient id="paint1_linear" x1="56.4999" y1="29.5" x2="8.70896" y2="-0.33491" gradientUnits="userSpaceOnUse">
<stop stop-color="#FF4C54"/>
<stop offset="1" stop-color="#EF9A9A"/>
</linearGradient>
</defs>
</svg>
