<svg width="54" height="32" viewBox="0 0 54 32" fill="none" xmlns="http://www.w3.org/2000/svg">
<g clip-path="url(#clip0)">
<path fill-rule="evenodd" clip-rule="evenodd" d="M33.8105 23.9878C33.7811 23.9264 33.6877 23.815 33.6877 23.815C33.6877 23.815 30.8711 20.4721 30.7671 20.3813C30.5519 20.193 30.2757 20.0891 29.9896 20.0889C29.8914 20.0889 29.7971 20.102 29.7068 20.1248C29.6029 20.152 25.1058 21.4702 25.1058 21.4702C25.1058 21.4702 24.9791 21.507 24.8835 21.507C24.5721 21.507 24.3196 21.2544 24.3196 20.9431C24.3196 20.8387 24.3494 20.7427 24.3985 20.6589L24.4594 20.5502L26.538 16.8469C26.5929 16.7482 26.8064 16.3097 26.849 16.1886C26.9114 16.0092 26.9296 15.8173 26.9019 15.6294C26.8743 15.4414 26.8017 15.2629 26.6902 15.109C26.642 15.0415 26.4911 14.852 26.4701 14.82L24.0143 11.6039C24.0143 11.6039 23.9867 11.564 23.9788 11.5495C23.938 11.4758 23.885 11.3452 23.885 11.2263C23.885 10.915 24.1376 10.6624 24.4489 10.6624C24.4823 10.6624 24.8116 10.6948 24.8116 10.6948C24.8116 10.6948 29.5266 11.1737 29.6046 11.1737C29.8046 11.1737 29.9905 11.1198 30.1563 11.0325L30.1861 11.0163C30.2365 10.9882 30.2843 10.9575 30.3299 10.9229C30.3326 10.9202 30.3352 10.9194 30.3387 10.9167C30.3448 10.9119 30.3545 10.9027 30.3628 10.8952C30.401 10.8637 30.4374 10.8303 30.4725 10.7944C30.5093 10.7562 31.6126 9.43627 32.1814 8.74516C32.6734 8.1479 33.1339 7.58308 33.311 7.34891C33.3386 7.31251 33.4281 7.20025 33.4627 7.14763C33.5154 7.06782 33.5776 6.94678 33.5741 6.81742C33.5649 6.50607 33.3215 6.25304 33.0098 6.25304H21.0118C20.6975 6.25397 20.3963 6.37924 20.174 6.60149C19.9518 6.82375 19.8265 7.12493 19.8256 7.43924V23.6339C19.8265 23.9481 19.9518 24.2493 20.1741 24.4715C20.3963 24.6936 20.6975 24.8188 21.0118 24.8196H33.315C33.6263 24.8196 33.8789 24.567 33.8789 24.2557C33.8789 24.1583 33.8675 24.1079 33.8105 23.9882V23.9878ZM52.9998 6.23682H48.8913C48.5771 6.23774 48.276 6.36306 48.054 6.58535C47.8319 6.80764 47.707 7.10882 47.7064 7.42302L47.7108 12.395V12.7936C47.7108 13.1049 47.4582 13.3575 47.1468 13.3575L47.1416 13.3567L47.1372 13.3575C47.0867 13.3575 47.0385 13.3488 46.9925 13.3356C46.9885 13.3347 46.9859 13.3334 46.9824 13.3321C46.9543 13.3242 46.9262 13.3159 46.8999 13.3036C46.8881 13.2967 46.8768 13.289 46.8662 13.2804C46.8048 13.2448 46.7522 13.197 46.7083 13.1418C46.6978 13.1317 46.6855 13.1199 46.6798 13.1128C46.5693 12.983 46.4969 12.8528 46.3132 12.5901C45.3634 11.2333 42.7129 7.07176 42.6634 6.99458C42.5182 6.76714 42.319 6.57911 42.0836 6.44722C41.8482 6.31532 41.5838 6.24365 41.314 6.23857C41.2325 6.23725 40.9233 6.23682 40.8549 6.23682H36.7201C36.4058 6.23774 36.1047 6.36303 35.8825 6.5853C35.6603 6.80756 35.5351 7.10874 35.5343 7.42302V11.9942C35.5343 12.2282 35.6032 12.457 35.7323 12.6522C35.8615 12.8474 36.0451 13.0003 36.2605 13.0918C36.3443 13.1278 40.6067 15.3252 40.6067 15.3252C41.0202 15.5629 41.0759 15.9856 40.7558 16.2987C40.6256 16.4263 39.8647 16.6666 39.8647 16.6666C39.8647 16.6666 36.3539 17.9761 36.2908 18.0015C36.0676 18.0898 35.8762 18.2431 35.7413 18.4416C35.6064 18.64 35.5343 18.8745 35.5343 19.1145C35.5343 19.1824 35.5361 19.4469 35.5343 19.5126V19.9143L35.5773 23.5865C35.5773 23.5865 35.6097 24.032 35.6808 24.1706C35.886 24.5701 36.2434 24.8038 36.7201 24.8038H40.8286C41.1437 24.8023 41.4457 24.6771 41.6695 24.4553C41.8934 24.2335 42.0213 23.9327 42.0258 23.6176L42.0569 18.7575C42.0569 18.5488 42.1722 18.3685 42.3411 18.2707C42.3511 18.2646 42.3617 18.2593 42.3722 18.2541C42.3985 18.2409 42.4818 18.212 42.4963 18.2085C42.5366 18.1993 42.5783 18.1936 42.6213 18.1936C42.6721 18.1944 42.7225 18.202 42.7712 18.2164C42.8164 18.2286 42.859 18.2466 42.8989 18.2694C42.9041 18.2721 42.9199 18.2804 42.923 18.2826C43.0142 18.3405 43.1348 18.526 43.1361 18.5273L43.3137 18.7882L46.9745 23.8694C47.0183 23.925 47.0696 23.979 47.1231 24.0325C47.2607 24.2524 47.4485 24.4365 47.6711 24.5697C47.8937 24.7028 48.1448 24.7811 48.4036 24.7981C48.5045 24.8047 48.8321 24.8038 48.8913 24.8038H53.0002C53.3145 24.8028 53.6155 24.6775 53.8377 24.4552C54.0598 24.233 54.1851 23.9319 54.186 23.6176V7.42302C54.1851 7.1087 54.0598 6.80753 53.8375 6.58527C53.6153 6.36301 53.3141 6.23774 52.9998 6.23682ZM18.9341 6.42889C18.8008 6.29558 18.7284 6.25304 18.3653 6.25304H13.4701C13.3727 6.25304 13.2793 6.26795 13.1886 6.28988C12.7798 6.35829 12.5325 6.5986 12.187 7.29497C12.187 7.29497 10.746 9.86646 10.3197 10.751C10.254 10.8873 10.1584 11.1294 9.97024 11.2452C9.87839 11.3006 9.77275 11.3291 9.66547 11.3272C9.50146 11.3272 9.3813 11.2588 9.29535 11.1759C9.16994 11.0549 9.06162 10.7988 8.99891 10.665C8.60249 9.81691 7.32858 7.31251 7.32858 7.31251C7.05363 6.77313 6.90541 6.48941 6.51775 6.35522C6.36641 6.28807 6.20271 6.25327 6.03713 6.25304H0.563939C0.252589 6.25304 0 6.50563 0 6.81742C0 6.99809 0.101737 7.15947 0.156991 7.25638C0.156991 7.25638 3.01615 11.7403 4.53695 14.1092C5.0737 14.9459 5.73061 15.8773 5.81173 16.0904C5.90996 16.3496 5.93759 16.6175 5.90514 16.8745C5.91566 16.9631 5.92093 17.0582 5.92093 17.1665V23.6339C5.92185 23.9481 6.04714 24.2493 6.2694 24.4715C6.49167 24.6936 6.79285 24.8188 7.10713 24.8196H12.1063C12.4206 24.8188 12.7217 24.6936 12.944 24.4715C13.1663 24.2493 13.2916 23.9481 13.2925 23.6339V17.1665C13.2925 17.0315 13.2947 16.914 13.3026 16.8034C13.2771 16.4862 13.3448 16.1685 13.4973 15.8891C13.5345 15.8212 14.0652 14.9976 14.6615 14.0513C16.2065 11.5982 18.9284 7.26252 18.9284 7.26252C18.9762 7.18534 19.0112 7.11035 19.0362 7.038C19.0814 6.92179 19.0801 6.80909 19.0801 6.80514C19.0819 6.65999 19.0042 6.49905 18.9341 6.42889Z" fill="#313434"/>
<path fill-rule="evenodd" clip-rule="evenodd" d="M40.6065 15.3252C40.6065 15.3252 36.3441 13.1277 36.2603 13.0918C36.0449 13.0003 35.8612 12.8474 35.732 12.6522C35.6029 12.4571 35.5341 12.2282 35.5341 11.9942C35.5341 11.924 35.2618 6.57929 35.2618 6.57183C35.2618 6.2561 35.0057 6 34.6895 6C34.5093 6 34.3505 6.08507 34.2457 6.21531C34.19 6.27934 33.8993 6.61481 33.5094 7.06605C33.4954 7.09397 33.4797 7.12106 33.4625 7.14717C33.4279 7.20023 33.3384 7.3125 33.3108 7.34889C33.1336 7.58306 32.6732 8.14788 32.1812 8.74515C31.6152 9.43153 31.0454 10.1148 30.4718 10.7948C30.4373 10.8303 30.4009 10.8638 30.3626 10.8952C30.3543 10.9027 30.3451 10.9119 30.3385 10.9171C30.335 10.9193 30.3324 10.9202 30.3297 10.9228C30.2841 10.9575 30.2363 10.9882 30.1859 11.0163L30.1561 11.0325C29.9865 11.1239 29.7971 11.1723 29.6044 11.1737C29.5264 11.1737 24.8114 10.6948 24.8114 10.6948C24.8114 10.6948 24.482 10.6624 24.4487 10.6624C24.1374 10.6624 23.8848 10.915 23.8848 11.2263C23.8848 11.3451 23.9378 11.4758 23.9786 11.5495C23.9865 11.564 24.0137 11.6039 24.0137 11.6039L26.4694 14.82C26.4909 14.852 26.6418 15.0414 26.69 15.109C26.8014 15.2629 26.8741 15.4414 26.9017 15.6293C26.9294 15.8173 26.9112 16.0092 26.8487 16.1886C26.8062 16.3097 26.5926 16.7482 26.5374 16.8468L24.4592 20.5502L24.3983 20.6589C24.3492 20.7427 24.3193 20.8387 24.3193 20.9431C24.3193 21.2544 24.5719 21.507 24.8833 21.507C24.9789 21.507 25.1056 21.4702 25.1056 21.4702C25.1056 21.4702 29.6027 20.152 29.7066 20.1248C29.7969 20.102 29.8912 20.0888 29.9894 20.0888C30.2756 20.0886 30.5521 20.1927 30.7669 20.3818C30.8709 20.4721 34.1615 24.4679 34.3045 24.61C34.3624 24.6674 34.5049 24.7994 34.5759 24.8543C34.6702 24.9266 34.8105 25.0077 34.9645 24.9994C35.2105 24.9871 35.4192 24.8429 35.4995 24.6245C35.5363 24.5547 35.5683 24.139 35.5788 23.9513C35.5815 23.9101 35.5832 23.8084 35.5841 23.6659L35.5771 23.5869L35.5341 19.9139V19.5126C35.5359 19.4468 35.5341 19.1824 35.5341 19.1144C35.5341 18.6088 35.8472 18.1764 36.2906 18.0015C36.3537 17.976 39.8645 16.6666 39.8645 16.6666C39.8645 16.6666 40.6253 16.4263 40.7556 16.2991C41.0757 15.9856 41.02 15.5629 40.6065 15.3252Z" fill="#E8D619"/>
</g>
<defs>
<clipPath id="clip0">
<rect width="54" height="32" fill="white"/>
</clipPath>
</defs>
</svg>
